<svg xmlns="http://www.w3.org/2000/svg" xmlns:xlink="http://www.w3.org/1999/xlink" width="575" height="426" viewBox="0 0 575 426"><defs><path id="h2v6b" d="M1354.963 435.667c0 117.39-95.165 212.556-212.557 212.556-117.391 0-212.556-95.165-212.556-212.556 0-117.392 95.165-212.557 212.556-212.557 117.392 0 212.557 95.165 212.557 212.557"/><path id="h2v6c" d="M1289.728 435.664c0 81.36-65.955 147.315-147.314 147.315-81.36 0-147.314-65.956-147.314-147.315s65.955-147.314 147.314-147.314 147.314 65.955 147.314 147.314"/><path id="h2v6d" d="M1232.735 435.663c0 49.883-40.438 90.322-90.322 90.322s-90.323-40.439-90.323-90.322c0-49.884 40.439-90.323 90.323-90.323 49.884 0 90.322 40.439 90.322 90.323"/><path id="h2v6e" d="M1250.052 429.467c0 64.046-51.913 115.966-115.95 115.966-64.039 0-115.952-51.92-115.952-115.966 0-64.047 51.913-115.967 115.951-115.967s115.951 51.92 115.951 115.967"/><path id="h2v6f" d="M1274.03 435.262c0 73.14-59.285 132.432-132.416 132.432-73.13 0-132.414-59.291-132.414-132.432 0-73.14 59.284-132.432 132.414-132.432 73.131 0 132.416 59.292 132.416 132.432"/><path id="h2v6g" d="M1292.947 398.745a154.693 154.693 0 0 0-13.623-36.932c-26.021-49.94-78.262-84.043-138.47-84.043-65.242 0-121.134 40.043-144.443 96.9a154.727 154.727 0 0 0-10.56 40.988 157.77 157.77 0 0 0-1.051 18.187c0 86.197 69.869 156.075 156.054 156.075 86.187 0 156.056-69.878 156.056-156.075 0-12.07-1.368-23.817-3.963-35.1m-95.149 100.991c-15.69 13.743-36.234 22.062-58.721 22.062-15.356 0-29.802-3.875-42.416-10.702-27.876-15.094-46.806-44.6-46.806-78.53 0-2.355.094-4.686.27-6.993 1.41-18.146 8.241-34.771 18.884-48.25 16.335-20.7 41.652-33.985 70.068-33.985 25.604 0 48.689 10.79 64.96 28.073 11.217 11.906 19.195 26.905 22.523 43.583a89.365 89.365 0 0 1 1.731 17.571c0 26.787-11.804 50.822-30.493 67.171"/><path id="h2v6h" d="M1354.399 357.017l7.595-3.794s3.504-1.943 9.59-3.932c6.086-1.99 9.77-1.047 19.355-5.417 10.878-4.96 6.26 4.187 1.492 7.41-3.722 2.513-8.682 2.128-10.97 5.435 1.783 1.156 4.314 3.768 19.845 5.487 2.785.308 11.86-.78 11.86-.78 2.712.023 8.374-.217 9.18 2.863.2.764-.663 1.737-.663 1.737s3.544-.232 4.19 2.914c.254 1.237-7.432 3.54-7.432 3.54s3.873.446 4.261 2.793c.11.663-22.175 8.06-22.175 8.06l5.01-.377 5.14-.941s2.755.134 3.202 2.341c.177.876-4.452 2.466-9.89 3.935-8.463 2.286-14.786 2.12-21.063 1.285-7.584-1.01-10.145-.67-19.403-4.202-3.819-1.457-9.575-4.585-12.023-6.232"/><path id="h2v6i" d="M921.511 376.463l-7.177-3.83s-3.298-1.97-9.114-3.94c-5.817-1.969-9.47-.915-18.553-5.31-10.308-4.99-6.37 4.494-1.917 7.778 3.476 2.563 8.34 2.069 10.367 5.486-1.812 1.243-4.445 4.021-19.71 6.105-2.737.374-11.527-.598-11.527-.598-2.648.074-8.159-.073-9.138 3.164-.242.803.54 1.805.54 1.805s-3.445-.177-4.272 3.126c-.325 1.298 7.034 3.568 7.034 3.568s-3.808.537-4.333 3c-.148.696 21.14 8.025 21.14 8.025l-4.865-.303-4.959-.89s-2.697.192-3.27 2.51c-.229.92 4.19 2.498 9.407 3.935 8.117 2.237 14.299 1.946 20.477.958 7.466-1.195 9.943-.887 19.198-4.752 3.819-1.595 9.631-4.974 12.123-6.74"/><path id="h2v6a" d="M1279.789 363.91c-24.205 3.215-51.075 6.683-75.365 9.593-30.097 3.597-56.233 6.336-68.414 6.653-15.7.412-39.885.03-66.755-.744-23.464-.675-48.977-1.649-72.674-2.652-48.67-2.066-81.481-5.428-81.481-5.428l1.85 33.58 69.06 12.814 64.341 9.91 24.12 3.72s26.601 59.238 22.464 81.757c12.628 6.823 27.088 10.696 42.46 10.696 22.51 0 43.076-8.314 58.783-22.05 11.181-24.555 10.176-80.15 10.176-80.15l18.616-4.546 66.456-16.242 60.827-14.867V353.73s-33.387 4.723-74.464 10.18"/><path id="h2v6k" d="M1425.878 342.42v37.51l-80.941 17.308-88.433 18.906-24.77 5.293s1.337 64.714-13.542 93.298c-20.9 15.99-48.267 25.667-78.221 25.667-20.455 0-39.697-4.507-56.5-12.45 5.505-26.214-29.891-95.17-29.891-95.17l-32.097-4.33-85.618-11.537-100.496-13.55-4.809-39.089s54.608 2.548 119.372 4.952c31.533 1.168 65.484 2.301 96.705 3.087 35.755.901 67.938 1.346 88.83.867 16.21-.368 50.988-3.558 91.036-7.745 32.323-3.388 68.08-7.424 100.285-11.167 54.663-6.352 99.09-11.85 99.09-11.85"/><path id="h2v6m" d="M1149 415.596l7.473-10.396"/><path id="h2v6o" d="M1179.13 417.37l13.017 6.574"/><path id="h2v6q" d="M950.12 396.34l10.366 13.149"/><path id="h2v6s" d="M982.19 386.88l8.919-8.37"/><path id="h2v6u" d="M944.097 375.88l-8.437 8.691"/><path id="h2v6w" d="M1002.68 400.91l11.812 8.575"/><path id="h2v6y" d="M1028.95 390.628l8.437-7.938"/><path id="h2v6A" d="M1050.08 417.37l-11 13.149"/><path id="h2v6C" d="M1058.23 397.36l18.888 10.05"/><path id="h2v6E" d="M1083.67 387.915l8.526-7.925"/><path id="h2v6G" d="M1106.094 416.47l-9.334 14.202"/><path id="h2v6I" d="M1127.31 432.68l18.32 7.462"/><path id="h2v6K" d="M1169.972 445.2l-9.642 15.165"/><path id="h2v6M" d="M1181.02 462.77l12.821 8.907"/><path id="h2v6O" d="M1124.65 458.68l-8.31 12.517"/><path id="h2v6Q" d="M1177.441 486.36l-9.401 12.999"/><path id="h2v6S" d="M1154.062 485.646l-12.892-5.536"/><path id="h2v6U" d="M1141.17 498.4l-9.37 12.517"/><path id="h2v6W" d="M1161.54 514.53l14.464 12.035"/><path id="h2v6Y" d="M1113.582 492.86l-16.822-9.99"/><path id="h2v6aa" d="M1099.09 449.775l-12.52-5.295"/><path id="h2v6ac" d="M1193.36 501.05l13.5 7.462"/><path id="h2v6ae" d="M1102.297 503.46l-7.717 17.09"/><path id="h2v6ag" d="M1204.2 442.554l7.232-7.924"/><path id="h2v6ai" d="M1195.28 397.361l3.375-6.731"/><path id="h2v6ak" d="M1123.812 403.364l-14.932-4.814"/><path id="h2v6am" d="M1181.013 388.155l-13.213-3.585"/><path id="h2v6ao" d="M1208.35 371.47l10.078 7.033"/><path id="h2v6aq" d="M1235.058 382.69l-10.848 14.67"/><path id="h2v6as" d="M1246.79 402.38l15.032 7.101"/><path id="h2v6au" d="M1267.6 387.91l8.196-7.69"/><path id="h2v6aw" d="M1254.3 371.471l-12.01-7.391"/><path id="h2v6ay" d="M1288.58 395.86l15.67 9.343"/><path id="h2v6aA" d="M1299.428 374.994l-19.768-8.704"/><path id="h2v6aC" d="M1317.716 374.99l-8.166 14.457"/><path id="h2v6aE" d="M1332.93 361.963l-19.3-6.163"/><path id="h2v6aG" d="M1333.65 387.91l14.705 10.11"/><path id="h2v6aI" d="M925.14 372.26l1.055 34.37"/><path id="h2v6aK" d="M1345.08 355.02l1.11 32.907"/><path id="h2v6aL" d="M1212.484 420.55l-4.134 1.062V397.36z"/><path id="h2v6aM" d="M1165.827 259.73l-2.037 16.764 6.395 2.619 10.831-12.357"/><path id="h2v6aN" d="M1077.609 279.91s-23.655 29.676 7.594 38.217z"/><path id="h2v6aO" d="M1156.496 320.468c2.414-6.719 23.45-14.82 28.195.43 6.118 19.666-31.33 29.279-31.33 29.279l.83 28.556 4.737-.23s8.377 11.693-16.573 12.055c-28.157.407-28.779-10.261-28.779-10.261l6.216.027.293-22.741s-33.133 1.98-39.975-1.724c0 0-4.676-32.327.721-55.094l27.604-24.015 43.789 4z"/><path id="h2v6aP" d="M1158.931 378.51s.771 11.42-16.573 12.054c-28.778 1.053-28.778-10.26-28.778-10.26"/><path id="h2v6aQ" d="M1173.797 312.253s21.44-8.27-2.905-34.333c-24.345-26.063-46.683-13.159-46.683-13.159s-5.769-26.218-23.024-26.449c-24.582-.328-29.05 37.528-29.05 37.528s-12.021-20.844-19.118-18.02c-7.098 2.824-8.51 71.322 89.884 39.672 0 0-8.746 18.743 13.593 22.976 0 0 4.05-7.993 17.303-8.215"/><path id="h2v6aR" d="M1102.314 344.451c.27 3.284 5.986 5.435 11.568 3.204 8.274-3.305 10.34-11.857 5.336-14.544-4.792-2.573-7.684 4.288-12.475 5.868-2.607.86-4.634 2.976-4.429 5.472"/><path id="h2v6aS" d="M1120.082 357.584l21.85-4.274-21.922 14.23z"/><path id="h2v6aT" d="M1102.428 317.34l-7.848 18.23 9.012.275z"/><path id="h2v6aU" d="M1111.389 319.292a4.551 4.551 0 0 0 3.579 5.352 4.55 4.55 0 1 0 1.781-8.926 4.556 4.556 0 0 0-5.36 3.574"/><path id="h2v6aV" d="M1087.729 318.872a4.551 4.551 0 0 0 3.578 5.352 4.55 4.55 0 1 0 1.782-8.926 4.557 4.557 0 0 0-5.36 3.574"/><clipPath id="h2v6j"><use xlink:href="#h2v6a"/></clipPath><clipPath id="h2v6l"><use xlink:href="#h2v6a"/></clipPath><clipPath id="h2v6n"><use xlink:href="#h2v6a"/></clipPath><clipPath id="h2v6p"><use xlink:href="#h2v6a"/></clipPath><clipPath id="h2v6r"><use xlink:href="#h2v6a"/></clipPath><clipPath id="h2v6t"><use xlink:href="#h2v6a"/></clipPath><clipPath id="h2v6v"><use xlink:href="#h2v6a"/></clipPath><clipPath id="h2v6x"><use xlink:href="#h2v6a"/></clipPath><clipPath id="h2v6z"><use xlink:href="#h2v6a"/></clipPath><clipPath id="h2v6B"><use xlink:href="#h2v6a"/></clipPath><clipPath id="h2v6D"><use xlink:href="#h2v6a"/></clipPath><clipPath id="h2v6F"><use xlink:href="#h2v6a"/></clipPath><clipPath id="h2v6H"><use xlink:href="#h2v6a"/></clipPath><clipPath id="h2v6J"><use xlink:href="#h2v6a"/></clipPath><clipPath id="h2v6L"><use xlink:href="#h2v6a"/></clipPath><clipPath id="h2v6N"><use xlink:href="#h2v6a"/></clipPath><clipPath id="h2v6P"><use xlink:href="#h2v6a"/></clipPath><clipPath id="h2v6R"><use xlink:href="#h2v6a"/></clipPath><clipPath id="h2v6T"><use xlink:href="#h2v6a"/></clipPath><clipPath id="h2v6V"><use xlink:href="#h2v6a"/></clipPath><clipPath id="h2v6X"><use xlink:href="#h2v6a"/></clipPath><clipPath id="h2v6Z"><use xlink:href="#h2v6a"/></clipPath><clipPath id="h2v6ab"><use xlink:href="#h2v6a"/></clipPath><clipPath id="h2v6ad"><use xlink:href="#h2v6a"/></clipPath><clipPath id="h2v6af"><use xlink:href="#h2v6a"/></clipPath><clipPath id="h2v6ah"><use xlink:href="#h2v6a"/></clipPath><clipPath id="h2v6aj"><use xlink:href="#h2v6a"/></clipPath><clipPath id="h2v6al"><use xlink:href="#h2v6a"/></clipPath><clipPath id="h2v6an"><use xlink:href="#h2v6a"/></clipPath><clipPath id="h2v6ap"><use xlink:href="#h2v6a"/></clipPath><clipPath id="h2v6ar"><use xlink:href="#h2v6a"/></clipPath><clipPath id="h2v6at"><use xlink:href="#h2v6a"/></clipPath><clipPath id="h2v6av"><use xlink:href="#h2v6a"/></clipPath><clipPath id="h2v6ax"><use xlink:href="#h2v6a"/></clipPath><clipPath id="h2v6az"><use xlink:href="#h2v6a"/></clipPath><clipPath id="h2v6aB"><use xlink:href="#h2v6a"/></clipPath><clipPath id="h2v6aD"><use xlink:href="#h2v6a"/></clipPath><clipPath id="h2v6aF"><use xlink:href="#h2v6a"/></clipPath><clipPath id="h2v6aH"><use xlink:href="#h2v6a"/></clipPath><clipPath id="h2v6aJ"><use xlink:href="#h2v6a"/></clipPath></defs><g><g transform="translate(-851 -223)"><use fill="#c7e9fd" xlink:href="#h2v6b"/></g><g transform="translate(-851 -223)"><use fill="#bbe0ff" xlink:href="#h2v6c"/></g><g transform="translate(-851 -223)"><use fill="#aad5ff" xlink:href="#h2v6d"/></g><g transform="translate(-851 -223)"><g><use fill="#242429" xlink:href="#h2v6e"/></g><g><use fill="#2e2e37" xlink:href="#h2v6f"/></g><g><use fill="#285fd7" xlink:href="#h2v6g"/></g></g><g transform="translate(-851 -223)"><g><use fill="#ff77ca" xlink:href="#h2v6h"/></g><g><use fill="#ff77ca" xlink:href="#h2v6i"/></g><g><g><g/><g clip-path="url(#h2v6j)"><use fill="#ffc100" xlink:href="#h2v6k"/></g></g><g><g/><g clip-path="url(#h2v6l)"><use fill="#fff" fill-opacity="0" stroke="#ff663b" stroke-miterlimit="50" stroke-width="6.3" xlink:href="#h2v6m"/></g></g><g><g/><g clip-path="url(#h2v6n)"><use fill="#fff" fill-opacity="0" stroke="#ff663b" stroke-miterlimit="50" stroke-width="6.3" xlink:href="#h2v6o"/></g></g><g><g/><g clip-path="url(#h2v6p)"><use fill="#fff" fill-opacity="0" stroke="#ff663b" stroke-miterlimit="50" stroke-width="6.3" xlink:href="#h2v6q"/></g></g><g><g/><g clip-path="url(#h2v6r)"><use fill="#fff" fill-opacity="0" stroke="#ff663b" stroke-miterlimit="50" stroke-width="6.3" xlink:href="#h2v6s"/></g></g><g><g/><g clip-path="url(#h2v6t)"><use fill="#fff" fill-opacity="0" stroke="#ff663b" stroke-miterlimit="50" stroke-width="6.3" xlink:href="#h2v6u"/></g></g><g><g/><g clip-path="url(#h2v6v)"><use fill="#fff" fill-opacity="0" stroke="#ff663b" stroke-miterlimit="50" stroke-width="6.3" xlink:href="#h2v6w"/></g></g><g><g/><g clip-path="url(#h2v6x)"><use fill="#fff" fill-opacity="0" stroke="#ff663b" stroke-miterlimit="50" stroke-width="6.3" xlink:href="#h2v6y"/></g></g><g><g/><g clip-path="url(#h2v6z)"><use fill="#fff" fill-opacity="0" stroke="#ff663b" stroke-miterlimit="50" stroke-width="6.3" xlink:href="#h2v6A"/></g></g><g><g/><g clip-path="url(#h2v6B)"><use fill="#fff" fill-opacity="0" stroke="#ff663b" stroke-miterlimit="50" stroke-width="6.3" xlink:href="#h2v6C"/></g></g><g><g/><g clip-path="url(#h2v6D)"><use fill="#fff" fill-opacity="0" stroke="#ff663b" stroke-miterlimit="50" stroke-width="6.3" xlink:href="#h2v6E"/></g></g><g><g/><g clip-path="url(#h2v6F)"><use fill="#fff" fill-opacity="0" stroke="#ff663b" stroke-miterlimit="50" stroke-width="6.3" xlink:href="#h2v6G"/></g></g><g><g/><g clip-path="url(#h2v6H)"><use fill="#fff" fill-opacity="0" stroke="#ff663b" stroke-miterlimit="50" stroke-width="6.3" xlink:href="#h2v6I"/></g></g><g><g/><g clip-path="url(#h2v6J)"><use fill="#fff" fill-opacity="0" stroke="#ff663b" stroke-miterlimit="50" stroke-width="6.3" xlink:href="#h2v6K"/></g></g><g><g/><g clip-path="url(#h2v6L)"><use fill="#fff" fill-opacity="0" stroke="#ff663b" stroke-miterlimit="50" stroke-width="6.3" xlink:href="#h2v6M"/></g></g><g><g/><g clip-path="url(#h2v6N)"><use fill="#fff" fill-opacity="0" stroke="#ff663b" stroke-miterlimit="50" stroke-width="6.3" xlink:href="#h2v6O"/></g></g><g><g/><g clip-path="url(#h2v6P)"><use fill="#fff" fill-opacity="0" stroke="#ff663b" stroke-miterlimit="50" stroke-width="6.3" xlink:href="#h2v6Q"/></g></g><g><g/><g clip-path="url(#h2v6R)"><use fill="#fff" fill-opacity="0" stroke="#ff663b" stroke-miterlimit="50" stroke-width="6.3" xlink:href="#h2v6S"/></g></g><g><g/><g clip-path="url(#h2v6T)"><use fill="#fff" fill-opacity="0" stroke="#ff663b" stroke-miterlimit="50" stroke-width="6.3" xlink:href="#h2v6U"/></g></g><g><g/><g clip-path="url(#h2v6V)"><use fill="#fff" fill-opacity="0" stroke="#ff663b" stroke-miterlimit="50" stroke-width="6.3" xlink:href="#h2v6W"/></g></g><g><g/><g clip-path="url(#h2v6X)"><use fill="#fff" fill-opacity="0" stroke="#ff663b" stroke-miterlimit="50" stroke-width="6.3" xlink:href="#h2v6Y"/></g></g><g><g/><g clip-path="url(#h2v6Z)"><use fill="#fff" fill-opacity="0" stroke="#ff663b" stroke-miterlimit="50" stroke-width="6.3" xlink:href="#h2v6aa"/></g></g><g><g/><g clip-path="url(#h2v6ab)"><use fill="#fff" fill-opacity="0" stroke="#ff663b" stroke-miterlimit="50" stroke-width="6.3" xlink:href="#h2v6ac"/></g></g><g><g/><g clip-path="url(#h2v6ad)"><use fill="#fff" fill-opacity="0" stroke="#ff663b" stroke-miterlimit="50" stroke-width="6.3" xlink:href="#h2v6ae"/></g></g><g><g/><g clip-path="url(#h2v6af)"><use fill="#fff" fill-opacity="0" stroke="#ff663b" stroke-miterlimit="50" stroke-width="6.3" xlink:href="#h2v6ag"/></g></g><g><g/><g clip-path="url(#h2v6ah)"><use fill="#fff" fill-opacity="0" stroke="#ff663b" stroke-miterlimit="50" stroke-width="6.3" xlink:href="#h2v6ai"/></g></g><g><g/><g clip-path="url(#h2v6aj)"><use fill="#fff" fill-opacity="0" stroke="#ff663b" stroke-miterlimit="50" stroke-width="6.3" xlink:href="#h2v6ak"/></g></g><g><g/><g clip-path="url(#h2v6al)"><use fill="#fff" fill-opacity="0" stroke="#ff663b" stroke-miterlimit="50" stroke-width="6.3" xlink:href="#h2v6am"/></g></g><g><g/><g clip-path="url(#h2v6an)"><use fill="#fff" fill-opacity="0" stroke="#ff663b" stroke-miterlimit="50" stroke-width="6.3" xlink:href="#h2v6ao"/></g></g><g><g/><g clip-path="url(#h2v6ap)"><use fill="#fff" fill-opacity="0" stroke="#ff663b" stroke-miterlimit="50" stroke-width="6.3" xlink:href="#h2v6aq"/></g></g><g><g/><g clip-path="url(#h2v6ar)"><use fill="#fff" fill-opacity="0" stroke="#ff663b" stroke-miterlimit="50" stroke-width="6.3" xlink:href="#h2v6as"/></g></g><g><g/><g clip-path="url(#h2v6at)"><use fill="#fff" fill-opacity="0" stroke="#ff663b" stroke-miterlimit="50" stroke-width="6.3" xlink:href="#h2v6au"/></g></g><g><g/><g clip-path="url(#h2v6av)"><use fill="#fff" fill-opacity="0" stroke="#ff663b" stroke-miterlimit="50" stroke-width="6.3" xlink:href="#h2v6aw"/></g></g><g><g/><g clip-path="url(#h2v6ax)"><use fill="#fff" fill-opacity="0" stroke="#ff663b" stroke-miterlimit="50" stroke-width="6.3" xlink:href="#h2v6ay"/></g></g><g><g/><g clip-path="url(#h2v6az)"><use fill="#fff" fill-opacity="0" stroke="#ff663b" stroke-miterlimit="50" stroke-width="6.3" xlink:href="#h2v6aA"/></g></g><g><g/><g clip-path="url(#h2v6aB)"><use fill="#fff" fill-opacity="0" stroke="#ff663b" stroke-miterlimit="50" stroke-width="6.3" xlink:href="#h2v6aC"/></g></g><g><g/><g clip-path="url(#h2v6aD)"><use fill="#fff" fill-opacity="0" stroke="#ff663b" stroke-miterlimit="50" stroke-width="6.3" xlink:href="#h2v6aE"/></g></g><g><g/><g clip-path="url(#h2v6aF)"><use fill="#fff" fill-opacity="0" stroke="#ff663b" stroke-miterlimit="50" stroke-width="6.3" xlink:href="#h2v6aG"/></g></g><g><g/><g clip-path="url(#h2v6aH)"><use fill="#fff" fill-opacity="0" stroke="#ff663b" stroke-miterlimit="50" stroke-width="6.3" xlink:href="#h2v6aI"/></g></g><g><g/><g clip-path="url(#h2v6aJ)"><use fill="#fff" fill-opacity="0" stroke="#ff663b" stroke-miterlimit="50" stroke-width="6.3" xlink:href="#h2v6aK"/></g></g></g><g><g><use fill="#ff5c1a" xlink:href="#h2v6aL"/></g><g><use fill="#fff" fill-opacity="0" stroke="#0b096f" stroke-miterlimit="50" stroke-width="6.3" xlink:href="#h2v6aM"/></g><g><use fill="#0b096f" xlink:href="#h2v6aN"/></g><g><use fill="#ff77ca" xlink:href="#h2v6aO"/></g><g><use fill="#fff" fill-opacity="0" stroke="#fb5425" stroke-miterlimit="50" stroke-width="6.3" xlink:href="#h2v6aP"/></g><g><use fill="#0b096f" xlink:href="#h2v6aQ"/></g><g><use fill="#fff" xlink:href="#h2v6aR"/></g><g><use fill="#ef3c86" xlink:href="#h2v6aS"/></g><g><use fill="#285fd7" xlink:href="#h2v6aT"/></g><g><use fill="#0b096f" xlink:href="#h2v6aU"/></g><g><use fill="#0b096f" xlink:href="#h2v6aV"/></g></g></g></g></svg>