<svg xmlns="http://www.w3.org/2000/svg" xmlns:xlink="http://www.w3.org/1999/xlink" width="3013" height="2191" viewBox="0 0 3013 2191"><defs><path id="n0p0a" d="M888.53 1180.53c0-55.228 44.772-100 100-100h1169c55.228 0 100 44.772 100 100v1169c0 55.228-44.772 100-100 100h-1169c-55.228 0-100-44.772-100-100z"/><path id="n0p0b" d="M433.79 1116.63c0-55.228 44.772-100 100-100h1168.48c55.228 0 100 44.772 100 100v1168.48c0 55.228-44.772 100-100 100H533.79c-55.228 0-100-44.772-100-100z"/><path id="n0p0c" d="M-326.92 2190.08c0-55.228 44.772-100 100-100h515c55.228 0 100 44.772 100 100v515c0 55.228-44.772 100-100 100h-515c-55.228 0-100-44.772-100-100z"/><mask id="n0p0e" width="2" height="2" x="-1" y="-1"><path fill="#fff" d="M646 838h1854v1854H646z"/><use xlink:href="#n0p0a"/></mask><filter id="n0p0d" width="1977" height="1979" x="591" y="783" filterUnits="userSpaceOnUse"><feOffset dx="13" dy="15" in="SourceGraphic" result="FeOffset2792Out"/><feGaussianBlur in="FeOffset2792Out" result="FeGaussianBlur2793Out" stdDeviation="18 18"/></filter><mask id="n0p0g" width="2" height="2" x="-1" y="-1"><path fill="#fff" d="M191 783h1854v1845H191z"/><use xlink:href="#n0p0b"/></mask><filter id="n0p0f" width="1977" height="1970" x="136" y="728" filterUnits="userSpaceOnUse"><feOffset dx="13" dy="15" in="SourceGraphic" result="FeOffset2808Out"/><feGaussianBlur in="FeOffset2808Out" result="FeGaussianBlur2809Out" stdDeviation="18 18"/></filter><mask id="n0p0i" width="2" height="2" x="-1" y="-1"><path fill="#fff" d="M-434 1983h930v929h-930z"/><use xlink:href="#n0p0c"/></mask><filter id="n0p0h" width="1040" height="1054" x="-489" y="1928" filterUnits="userSpaceOnUse"><feOffset dy="15" in="SourceGraphic" result="FeOffset2824Out"/><feGaussianBlur in="FeOffset2824Out" result="FeGaussianBlur2825Out" stdDeviation="18 18"/></filter></defs><g><g transform="rotate(45 2737.85 1958.497)"><g filter="url(#n0p0d)"><use fill="none" stroke-opacity=".27" stroke-width="0" mask="url(&quot;#n0p0e&quot;)" xlink:href="#n0p0a"/><use fill="#1780e0" fill-opacity=".27" xlink:href="#n0p0a"/></g><use fill="#f6f9fd" xlink:href="#n0p0a"/></g><g transform="rotate(45 2282.85 1898.997)"><g filter="url(#n0p0f)"><use fill="none" stroke-opacity=".27" stroke-width="0" mask="url(&quot;#n0p0g&quot;)" xlink:href="#n0p0b"/><use fill="#1780e0" fill-opacity=".27" xlink:href="#n0p0b"/></g><use fill="#f6f9fd" xlink:href="#n0p0b"/></g><g transform="rotate(45 1195.85 2640.997)"><g filter="url(#n0p0h)"><use fill="none" stroke-opacity=".21" stroke-width="0" mask="url(&quot;#n0p0i&quot;)" xlink:href="#n0p0c"/><use fill="#1780e0" fill-opacity=".21" xlink:href="#n0p0c"/></g><use fill="#f6f9fd" xlink:href="#n0p0c"/></g></g></svg>