<svg xmlns="http://www.w3.org/2000/svg" xmlns:xlink="http://www.w3.org/1999/xlink" width="3669.94" height="3701.797" viewBox="0 0 3669.94 3701.797">
  <defs>
    <filter id="BG" x="0" y="1014.506" width="2597.924" height="2597.924" filterUnits="userSpaceOnUse">
      <feOffset dy="2" input="SourceAlpha"/>
      <feGaussianBlur stdDeviation="24.5" result="blur"/>
      <feFlood flood-color="#1780e0" flood-opacity="0.271"/>
      <feComposite operator="in" in2="blur"/>
      <feComposite in="SourceGraphic"/>
    </filter>
  </defs>
  <g id="Group_2" data-name="Group 2" transform="translate(-1126.408 0.005)">
    <path id="Rectangle_6" data-name="Rectangle 6" d="M1.444,170.239A100,100,0,0,1,96.23,53.478L1505.212.072a100,100,0,0,1,103.619,105.739L1452.9,2784.9a100,100,0,0,1-29.445,65.223L735.218,3532.077c-57.5,56.975-155.334,25.59-168.959-54.2Z" transform="translate(3619.596 0) rotate(43)" fill="#91b7dc" opacity="0.297"/>
    <g transform="matrix(1, 0, 0, 1, 1126.41, -0.01)" filter="url(#BG)">
      <path id="BG-2" data-name="BG" d="M.176,105.857A100,100,0,0,1,100,0H1263a100,100,0,0,1,100,100V1314.74a100,100,0,0,1-45.228,83.667L266.428,2086.66c-64.311,42.1-150.1-1.075-154.6-77.809Z" transform="translate(1560.64 1086.01) rotate(45)" fill="#f6f9fd"/>
    </g>
  </g>
</svg>
