<svg xmlns="http://www.w3.org/2000/svg" xmlns:xlink="http://www.w3.org/1999/xlink" width="4201" height="4942" viewBox="0 0 4201 4942"><defs><path id="1k2ya" d="M888.53 2245.53c0-55.228 44.772-100 100-100h1169c55.228 0 100 44.772 100 100v1169c0 55.228-44.772 100-100 100h-1169c-55.228 0-100-44.772-100-100z"/><path id="1k2yb" d="M433.79 2181.63c0-55.228 44.772-100 100-100h1168.48c55.228 0 100 44.772 100 100v1168.48c0 55.228-44.772 100-100 100H533.79c-55.228 0-100-44.772-100-100z"/><path id="1k2yc" d="M-1835.51 3603.49c0-55.228 44.772-100 100-100h3160c55.228 0 100 44.772 100 100v2234c0 55.228-44.772 100-100 100h-3160c-55.228 0-100-44.772-100-100z"/><path id="1k2yd" d="M-326.92 2190.08c0-55.228 44.772-100 100-100h515c55.228 0 100 44.772 100 100v515c0 55.228-44.772 100-100 100h-515c-55.228 0-100-44.772-100-100z"/><mask id="1k2yf" width="2" height="2" x="-1" y="-1"><path fill="#fff" d="M646 1903h1854v1854H646z"/><use xlink:href="#1k2ya"/></mask><filter id="1k2ye" width="1977" height="1979" x="591" y="1848" filterUnits="userSpaceOnUse"><feOffset dx="13" dy="15" in="SourceGraphic" result="FeOffset1023Out"/><feGaussianBlur in="FeOffset1023Out" result="FeGaussianBlur1024Out" stdDeviation="18 18"/></filter><mask id="1k2yh" width="2" height="2" x="-1" y="-1"><path fill="#fff" d="M191 1848h1854v1845H191z"/><use xlink:href="#1k2yb"/></mask><filter id="1k2yg" width="1977" height="1970" x="136" y="1793" filterUnits="userSpaceOnUse"><feOffset dx="13" dy="15" in="SourceGraphic" result="FeOffset1039Out"/><feGaussianBlur in="FeOffset1039Out" result="FeGaussianBlur1040Out" stdDeviation="18 18"/></filter><mask id="1k2yj" width="2" height="2" x="-1" y="-1"><path fill="#fff" d="M-1622 3318h3474v3410h-3474z"/><use xlink:href="#1k2yc"/></mask><filter id="1k2yi" width="3584" height="3535" x="-1677" y="3263" filterUnits="userSpaceOnUse"><feOffset dy="15" in="SourceGraphic" result="FeOffset1055Out"/><feGaussianBlur in="FeOffset1055Out" result="FeGaussianBlur1056Out" stdDeviation="18 18"/></filter><mask id="1k2yl" width="2" height="2" x="-1" y="-1"><path fill="#fff" d="M-434 1983h930v929h-930z"/><use xlink:href="#1k2yd"/></mask><filter id="1k2yk" width="1040" height="1054" x="-489" y="1928" filterUnits="userSpaceOnUse"><feOffset dy="15" in="SourceGraphic" result="FeOffset1071Out"/><feGaussianBlur in="FeOffset1071Out" result="FeGaussianBlur1072Out" stdDeviation="18 18"/></filter></defs><g><g transform="rotate(45 4617.42 3925.04)"><g filter="url(#1k2ye)"><use fill="none" stroke-opacity=".27" stroke-width="0" mask="url(&quot;#1k2yf&quot;)" xlink:href="#1k2ya"/><use fill="#1780e0" fill-opacity=".27" xlink:href="#1k2ya"/></g><use fill="#f6f9fd" xlink:href="#1k2ya"/></g><g transform="rotate(45 4162.42 3865.54)"><g filter="url(#1k2yg)"><use fill="none" stroke-opacity=".27" stroke-width="0" mask="url(&quot;#1k2yh&quot;)" xlink:href="#1k2yb"/><use fill="#1780e0" fill-opacity=".27" xlink:href="#1k2yb"/></g><use fill="#f6f9fd" xlink:href="#1k2yb"/></g><g transform="rotate(45 3159.42 6118.04)"><g filter="url(#1k2yi)"><use fill="none" stroke-opacity=".21" stroke-width="0" mask="url(&quot;#1k2yj&quot;)" xlink:href="#1k2yc"/><use fill="#1780e0" fill-opacity=".21" xlink:href="#1k2yc"/></g><use fill="#f6f9fd" xlink:href="#1k2yc"/></g><g transform="rotate(45 3075.42 3542.54)"><g filter="url(#1k2yk)"><use fill="none" stroke-opacity=".21" stroke-width="0" mask="url(&quot;#1k2yl&quot;)" xlink:href="#1k2yd"/><use fill="#1780e0" fill-opacity=".21" xlink:href="#1k2yd"/></g><use fill="#f6f9fd" xlink:href="#1k2yd"/></g></g></svg>