<svg xmlns="http://www.w3.org/2000/svg" xmlns:xlink="http://www.w3.org/1999/xlink" width="4893.113" height="9244.516" viewBox="0 0 4893.113 9244.516">
  <defs>
    <filter id="BG" x="2822.055" y="4202.505" width="2071.059" height="2071.058" filterUnits="userSpaceOnUse">
      <feOffset dx="13" dy="15" input="SourceAlpha"/>
      <feGaussianBlur stdDeviation="22.5" result="blur"/>
      <feFlood flood-color="#1780e0" flood-opacity="0.271"/>
      <feComposite operator="in" in2="blur"/>
      <feComposite in="SourceGraphic"/>
    </filter>
    <filter id="BG-2" x="2367.423" y="4138.712" width="2070.322" height="2070.322" filterUnits="userSpaceOnUse">
      <feOffset dx="13" dy="15" input="SourceAlpha"/>
      <feGaussianBlur stdDeviation="22.5" result="blur-2"/>
      <feFlood flood-color="#1780e0" flood-opacity="0.271"/>
      <feComposite operator="in" in2="blur-2"/>
      <feComposite in="SourceGraphic"/>
    </filter>
    <filter id="BG-3" x="0" y="5012.485" width="4232.031" height="4232.031" filterUnits="userSpaceOnUse">
      <feOffset dy="15" input="SourceAlpha"/>
      <feGaussianBlur stdDeviation="22.5" result="blur-3"/>
      <feFlood flood-color="#1780e0" flood-opacity="0.212"/>
      <feComposite operator="in" in2="blur-3"/>
      <feComposite in="SourceGraphic"/>
    </filter>
    <filter id="BG-4" x="1729.055" y="4282.505" width="1146.163" height="1146.163" filterUnits="userSpaceOnUse">
      <feOffset dy="15" input="SourceAlpha"/>
      <feGaussianBlur stdDeviation="22.5" result="blur-4"/>
      <feFlood flood-color="#1780e0" flood-opacity="0.212"/>
      <feComposite operator="in" in2="blur-4"/>
      <feComposite in="SourceGraphic"/>
    </filter>
    <filter id="BG-5" x="1193.963" y="1014.506" width="2597.924" height="2597.924" filterUnits="userSpaceOnUse">
      <feOffset dy="2" input="SourceAlpha"/>
      <feGaussianBlur stdDeviation="24.5" result="blur-5"/>
      <feFlood flood-color="#1780e0" flood-opacity="0.271"/>
      <feComposite operator="in" in2="blur-5"/>
      <feComposite in="SourceGraphic"/>
    </filter>
  </defs>
  <g id="BG-6" data-name="BG" transform="translate(67.555 0.005)">
    <path id="Rectangle_6" data-name="Rectangle 6" d="M1.444,170.239A100,100,0,0,1,96.23,53.478L1505.212.072a100,100,0,0,1,103.619,105.739L1452.9,2784.9a100,100,0,0,1-29.445,65.223L735.218,3532.077c-57.5,56.975-155.334,25.59-168.959-54.2Z" transform="translate(3619.596 0) rotate(43)" fill="#91b7dc" opacity="0.297"/>
    <g transform="matrix(1, 0, 0, 1, -67.55, -0.01)" filter="url(#BG)">
      <rect id="BG-7" data-name="BG" width="1369" height="1369" rx="100" transform="translate(3844.58 4255.01) rotate(45)" fill="#f6f9fd"/>
    </g>
    <g transform="matrix(1, 0, 0, 1, -67.55, -0.01)" filter="url(#BG-2)">
      <path id="BG-8" data-name="BG" d="M6.037,105.516A100,100,0,0,1,105.516,6.037L1267.96,0a100,100,0,0,1,100.519,100V1268.479a100,100,0,0,1-100,100H100A100,100,0,0,1,0,1267.96Z" transform="translate(3389.58 4191.21) rotate(45)" fill="#f6f9fd"/>
    </g>
    <g transform="matrix(1, 0, 0, 1, -67.55, -0.01)" filter="url(#BG-3)">
      <path id="BG-9" data-name="BG" d="M869.506,49.655A100,100,0,0,1,955.908,0H3260a100,100,0,0,1,100,100V2334c0,64.751-60.6,112.43-123.534,97.191L76.5,1666.036c-65.047-15.75-96.563-89.711-62.868-147.536Z" transform="translate(1788.65 5065.01) rotate(45)" fill="#f6f9fd"/>
    </g>
    <g transform="matrix(1, 0, 0, 1, -67.55, -0.01)" filter="url(#BG-4)">
      <rect id="BG-10" data-name="BG" width="715" height="715" rx="100" transform="translate(2302.14 4335.01) rotate(45)" fill="#f6f9fd"/>
    </g>
    <g transform="matrix(1, 0, 0, 1, -67.55, -0.01)" filter="url(#BG-5)">
      <path id="BG-11" data-name="BG" d="M.176,105.857A100,100,0,0,1,100,0H1263a100,100,0,0,1,100,100V1314.74a100,100,0,0,1-45.228,83.667L266.428,2086.66c-64.311,42.1-150.1-1.075-154.6-77.809Z" transform="translate(2754.6 1086.01) rotate(45)" fill="#f6f9fd"/>
    </g>
  </g>
</svg>
