<svg xmlns="http://www.w3.org/2000/svg" xmlns:xlink="http://www.w3.org/1999/xlink" width="33" height="31" viewBox="0 0 33 31"><defs><path id="hvwya" d="M1229 3197.5c0-8.56 7.387-15.5 16.5-15.5s16.5 6.94 16.5 15.5c0 8.56-7.387 15.5-16.5 15.5s-16.5-6.94-16.5-15.5zm16.5-8.267c-2.39 0-2.69.01-3.628.05-.937.04-1.576.18-2.136.385a4.347 4.347 0 0 0-1.559.953c-.489.46-.79.922-1.015 1.466-.218.526-.367 1.127-.409 2.007-.042.883-.053 1.165-.053 3.411 0 2.247.01 2.528.053 3.41.043.88.192 1.482.409 2.008a4.037 4.037 0 0 0 1.015 1.465c.489.46.98.743 1.558.955.56.204 1.2.344 2.137.384.938.04 1.238.05 3.628.05s2.689-.01 3.628-.05c.936-.04 1.577-.18 2.137-.384a4.343 4.343 0 0 0 1.557-.955c.49-.46.79-.921 1.016-1.465.216-.526.365-1.128.409-2.008.042-.882.053-1.163.053-3.41 0-2.246-.011-2.528-.053-3.41-.044-.881-.193-1.482-.409-2.008a4.044 4.044 0 0 0-1.016-1.466 4.338 4.338 0 0 0-1.558-.953c-.561-.205-1.2-.344-2.138-.385-.938-.04-1.237-.05-3.628-.05z"/><path id="hvwyb" d="M1244.715 3190.722h.79c2.349 0 2.627.008 3.555.048.858.036 1.324.171 1.634.284.41.15.704.33 1.011.619.308.289.499.564.659.95.12.291.264.729.303 1.535.042.871.051 1.133.051 3.34 0 2.205-.009 2.467-.051 3.339-.04.806-.183 1.243-.303 1.534-.16.386-.35.66-.659.95-.308.29-.6.468-1.01.618-.31.114-.777.248-1.635.285-.927.04-1.206.048-3.556.048s-2.628-.008-3.556-.048c-.858-.037-1.323-.172-1.634-.285a2.749 2.749 0 0 1-1.012-.618 2.553 2.553 0 0 1-.658-.95c-.12-.292-.264-.73-.303-1.535-.043-.872-.051-1.133-.051-3.34 0-2.208.008-2.469.05-3.34.04-.806.183-1.244.304-1.535.16-.386.35-.662.658-.95.308-.29.602-.47 1.012-.62.31-.113.776-.247 1.634-.285.812-.034 1.127-.044 2.767-.046zm5.483 1.373c-.585 0-1.06.446-1.06.996s.475.997 1.06.997c.586 0 1.06-.446 1.06-.997 0-.55-.474-.997-1.06-.997zm-4.699 1.159c-2.494 0-4.516 1.9-4.516 4.245s2.022 4.245 4.516 4.245 4.516-1.9 4.516-4.245c0-2.344-2.022-4.245-4.516-4.245z"/><path id="hvwyc" d="M1245.503 3194.74c1.62 0 2.934 1.234 2.934 2.756 0 1.521-1.314 2.755-2.934 2.755s-2.933-1.234-2.933-2.755c0-1.522 1.313-2.756 2.933-2.756z"/></defs><g><g transform="translate(-1229 -3182)"><g><use fill="#677897" xlink:href="#hvwya"/></g><g><use fill="#677897" xlink:href="#hvwyb"/></g><g><use fill="#677897" xlink:href="#hvwyc"/></g></g></g></svg>