<svg xmlns="http://www.w3.org/2000/svg" xmlns:xlink="http://www.w3.org/1999/xlink" width="25" height="25" viewBox="0 0 25 25"><defs><path id="iuoja" d="M159.944 3026h-18.888c-1.695 0-3.056 1.278-3.056 2.861v14.361c0 1.584 1.361 2.861 3.056 2.861h2v4.25c0 .25.166.5.416.611.111.056.195.056.306.056a.936.936 0 0 0 .472-.139l6.306-4.778h9.388c1.695 0 3.056-1.277 3.056-2.86v-14.362c0-1.583-1.361-2.861-3.056-2.861z"/><linearGradient id="iuojb" x1="78.21" x2="177.19" y1="3070.79" y2="3017.81" gradientUnits="userSpaceOnUse"><stop offset="0" stop-color="#102397"/><stop offset=".55" stop-color="#187adf"/><stop offset="1" stop-color="#00eaf8"/></linearGradient></defs><g><g transform="translate(-138 -3026)"><use fill="url(#iuojb)" xlink:href="#iuoja"/></g></g></svg>