<svg xmlns="http://www.w3.org/2000/svg" xmlns:xlink="http://www.w3.org/1999/xlink" width="537" height="429" viewBox="0 0 537 429"><defs><path id="vie6a" d="M1295.956 1169.667c0 .827-120.359 1.496-268.828 1.496-148.47 0-268.828-.67-268.828-1.496 0-.827 120.358-1.497 268.828-1.497 148.47 0 268.828.67 268.828 1.497"/><path id="vie6b" d="M1028.37 923.15l28.644 36.31"/><path id="vie6c" d="M1066.581 976.105s.711-16.626-10.083-16.019c-11.224.63-2.923 17.412-2.923 17.412"/><path id="vie6d" d="M1056.104 857.032h-5.65c-2.246 0-4.084-1.913-4.084-4.251s1.838-4.251 4.085-4.251h5.65c2.246 0 4.084 1.913 4.084 4.25 0 2.339-1.838 4.252-4.085 4.252"/><path id="vie6e" d="M1061.764 907.875l-26.574 19.678c-4.696 3.478-11.273 2.326-14.616-2.562l-.563-.823c-3.342-4.888-2.234-11.732 2.462-15.21l26.573-19.678c4.697-3.479 11.274-2.326 14.616 2.561l.563.824c3.343 4.887 2.235 11.732-2.461 15.21"/><path id="vie6f" d="M1074.1 955.062h14.713V930.77H1074.1z"/><path id="vie6g" d="M1095.78 936.03h-28.644c-9.238 0-16.796-7.864-16.796-17.477v-16.975c0-9.613 7.558-17.478 16.796-17.478h28.644c9.237 0 16.795 7.865 16.795 17.478v16.975c0 9.613-7.558 17.478-16.795 17.478"/><path id="vie6h" d="M1066.521 961.79l-7.671 88"/><path id="vie6i" d="M1094.912 964.306h-26.901c-3.284 0-5.971-2.796-5.971-6.213 0-3.417 2.687-6.213 5.97-6.213h26.902c3.284 0 5.97 2.796 5.97 6.213 0 3.417-2.686 6.213-5.97 6.213"/><path id="vie6j" d="M1058.85 1057.74l3.19 101.161"/><path id="vie6k" d="M1097 961.15l.423 87.777"/><path id="vie6l" d="M1097.43 1052.68l11.381 109.064"/><path id="vie6m" d="M1065.297 1050.679c0 5.986-3.648 10.838-8.149 10.838-4.5 0-8.148-4.852-8.148-10.838 0-5.987 3.648-10.839 8.148-10.839s8.149 4.852 8.149 10.839"/><path id="vie6n" d="M1093.32 836.36l34.871 29.343"/><path id="vie6o" d="M1056.072 1169.66h11.327v-14.494l-38.929-12.466z"/><path id="vie6p" d="M1083.7 1169.666h33.787l-5.339-14.226z"/><path id="vie6q" d="M1137.492 876.906l-22.339 24.728c-3.948 4.37-10.615 4.585-14.816.477l-.707-.693c-4.2-4.108-4.407-11.046-.458-15.416l22.338-24.729c3.949-4.37 10.615-4.585 14.816-.476l.708.692c4.2 4.109 4.406 11.046.458 15.417"/><path id="vie6r" d="M1073.99 867.95l4.33 16.574"/><path id="vie6s" d="M1073.352 876.509h-1.693c-9.685 0-17.609-8.246-17.609-18.325v-9.89c0-10.079 7.924-18.324 17.61-18.324h1.692c9.685 0 17.609 8.245 17.609 18.324v9.89c0 10.079-7.924 18.325-17.61 18.325"/><path id="vie6t" d="M1058.67 821.44s6.51 4.268 7.226 11.651"/><path id="vie6u" d="M1062.249 819.643c0 2.525-1.967 4.572-4.395 4.572-2.426 0-4.394-2.047-4.394-4.572 0-2.526 1.968-4.573 4.394-4.573 2.428 0 4.395 2.047 4.395 4.573"/><path id="vie6v" d="M1081.13 919.008h-14.062c-2.793 0-5.078-2.377-5.078-5.284v-8.58c0-2.906 2.285-5.284 5.078-5.284h14.061c2.793 0 5.078 2.378 5.078 5.284v8.58c0 2.907-2.285 5.284-5.078 5.284"/><path id="vie6w" d="M1066.736 849.584c-.222 1.306.615 2.55 1.87 2.782 1.255.23 2.452-.641 2.674-1.947.221-1.306-.616-2.551-1.871-2.782-1.255-.23-2.452.641-2.673 1.947"/><path id="vie6x" d="M1125.914 867.781c-.399 2.351 1.109 4.594 3.368 5.009 2.26.415 4.415-1.154 4.814-3.505.398-2.35-1.11-4.593-3.369-5.008-2.259-.416-4.414 1.153-4.813 3.504"/><path id="vie6y" d="M1103.264 892.261c-.399 2.351 1.109 4.594 3.368 5.009 2.259.415 4.414-1.154 4.813-3.505.4-2.35-1.109-4.593-3.368-5.008-2.26-.416-4.414 1.153-4.813 3.504"/><path id="vie6z" d="M1024.304 917.831c-.399 2.351 1.109 4.594 3.368 5.009 2.26.415 4.415-1.154 4.813-3.505.4-2.35-1.109-4.593-3.368-5.008-2.259-.416-4.414 1.153-4.813 3.504"/><path id="vie6A" d="M1054.765 849.634c-.22 1.305.617 2.55 1.872 2.782 1.254.23 2.451-.641 2.673-1.947.222-1.306-.616-2.551-1.871-2.782-1.255-.23-2.452.64-2.674 1.947"/><path id="vie6B" d="M1064.032 846.99l-5.822 9.614 6.267.158z"/><path id="vie6C" d="M1057.63 843.86l-4.2 2.472"/><path id="vie6D" d="M1068.76 843.72l3.613 2.1"/><path id="vie6E" d="M1093.421 856.122h-5.481v-8.502h5.481c2.247 0 4.085 1.913 4.085 4.25 0 2.339-1.838 4.252-4.085 4.252"/><path id="vie6F" d="M1070.866 858.357c-2.773-.489-5.365 1.16-5.646 2.886"/><path id="vie6G" d="M1057.15 1061.517h4.481v-21.677h-4.481z"/><path id="vie6H" d="M1069.557 1050.679c0 5.986-3.648 10.838-8.148 10.838s-8.149-4.852-8.149-10.838c0-5.987 3.648-10.839 8.149-10.839 4.5 0 8.148 4.852 8.148 10.839"/><path id="vie6I" d="M1066.758 1050.675c0 3.504-1.824 6.345-4.074 6.345s-4.074-2.84-4.074-6.345c0-3.504 1.824-6.345 4.074-6.345s4.074 2.84 4.074 6.345"/><path id="vie6J" d="M1103.457 1050.679c0 5.986-3.648 10.838-8.148 10.838-4.501 0-8.149-4.852-8.149-10.838 0-5.987 3.648-10.839 8.149-10.839 4.5 0 8.148 4.852 8.148 10.839"/><path id="vie6K" d="M1095.31 1061.517h4.481v-21.677h-4.481z"/><path id="vie6L" d="M1107.717 1050.679c0 5.986-3.648 10.838-8.149 10.838-4.5 0-8.148-4.852-8.148-10.838 0-5.987 3.648-10.839 8.148-10.839s8.149 4.852 8.149 10.839"/><path id="vie6M" d="M1104.909 1050.675c0 3.504-1.825 6.345-4.075 6.345s-4.074-2.84-4.074-6.345c0-3.504 1.824-6.345 4.074-6.345s4.075 2.84 4.075 6.345"/><path id="vie6N" d="M1074.87 831.685s10.795 12.28 18.015 3.908c7.508-8.705-9.765-14.463-9.765-14.463"/><path id="vie6O" d="M979.839 1031.91H792.024c-10.42 0-18.944-8.87-18.944-19.713V763.313c0-10.842 8.525-19.713 18.944-19.713h187.815c10.42 0 18.944 8.87 18.944 19.713v248.884c0 10.842-8.525 19.713-18.944 19.713"/><path id="vie6P" d="M980.897 819.843H793.512c-2.404 0-4.352-2.027-4.352-4.528v-21.677c0-2.5 1.948-4.528 4.352-4.528h187.385c2.404 0 4.352 2.027 4.352 4.528v21.677c0 2.5-1.948 4.528-4.352 4.528"/><path id="vie6Q" d="M938.542 1011.253H835.856c-7.846 0-14.206-6.618-14.206-14.782v-1.169c0-8.164 6.36-14.782 14.206-14.782h102.686c7.846 0 14.206 6.618 14.206 14.782v1.169c0 8.164-6.36 14.782-14.206 14.782"/><path id="vie6R" d="M980.897 959.412H793.512c-2.404 0-4.352-2.027-4.352-4.528v-40.056c0-2.5 1.948-4.528 4.352-4.528h187.385c2.404 0 4.352 2.027 4.352 4.528v40.056c0 2.5-1.948 4.528-4.352 4.528"/><path id="vie6S" d="M800.92 807.596h90.337v-6.246H800.92z"/><path id="vie6T" d="M980.897 890.213H793.512c-2.404 0-4.352-2.027-4.352-4.529v-21.676c0-2.5 1.948-4.528 4.352-4.528h187.385c2.404 0 4.352 2.027 4.352 4.528v21.676c0 2.502-1.948 4.529-4.352 4.529"/><path id="vie6U" d="M789.16 844.85h59.918v-8.43H789.16z"/><path id="vie6V" d="M789.16 774.48h48.02v-8.43h-48.02z"/><path id="vie6W" d="M809.12 874.847c0 2.236-1.742 4.048-3.89 4.048s-3.89-1.812-3.89-4.048c0-2.235 1.742-4.047 3.89-4.047s3.89 1.812 3.89 4.047"/><path id="vie6X" d="M821.22 874.847c0 2.236-1.742 4.048-3.89 4.048-2.149 0-3.89-1.812-3.89-4.048 0-2.235 1.741-4.047 3.89-4.047 2.148 0 3.89 1.812 3.89 4.047"/><path id="vie6Y" d="M833.32 874.847c0 2.236-1.742 4.048-3.89 4.048s-3.89-1.812-3.89-4.048c0-2.235 1.742-4.047 3.89-4.047s3.89 1.812 3.89 4.047"/><path id="vie6Z" d="M845.41 874.847c0 2.236-1.742 4.048-3.89 4.048-2.149 0-3.89-1.812-3.89-4.048 0-2.235 1.741-4.047 3.89-4.047 2.148 0 3.89 1.812 3.89 4.047"/><path id="vie6aa" d="M857.51 874.847c0 2.236-1.742 4.048-3.89 4.048s-3.89-1.812-3.89-4.048c0-2.235 1.742-4.047 3.89-4.047s3.89 1.812 3.89 4.047"/><path id="vie6ab" d="M869.61 874.847c0 2.236-1.742 4.048-3.89 4.048-2.149 0-3.89-1.812-3.89-4.048 0-2.235 1.741-4.047 3.89-4.047 2.148 0 3.89 1.812 3.89 4.047"/><path id="vie6ac" d="M881.7 874.847c0 2.236-1.742 4.048-3.89 4.048-2.149 0-3.89-1.812-3.89-4.048 0-2.235 1.741-4.047 3.89-4.047 2.148 0 3.89 1.812 3.89 4.047"/><path id="vie6ad" d="M818.645 946.132h-11.517c-2.793 0-5.078-2.377-5.078-5.283v-11.985c0-2.906 2.285-5.284 5.078-5.284h11.517c2.793 0 5.078 2.378 5.078 5.284v11.985c0 2.906-2.285 5.283-5.078 5.283z"/><path id="vie6ae" d="M956.163 934.805c0 .044-.012.07-.026.09v.004c-.038.043-.117.024-.181.024-1.97 0-3.945-.004-5.916-.008.03-.168.158-.114.248-.114 1.952 0 3.904 0 5.852.004z"/><path id="vie6af" d="M1202.628 955.36l-1.555-24.969-24.413-23.128s8.438-12.41 15.324-18.697c6.435-5.873 13.902-11.073 32.489-11.975 19.929-.967 30.15.391 40.305 8.453 7.924 6.29 16.275 21.858 16.275 21.858l-23.14 18.428-1.598 30.03z"/><path id="vie6ag" d="M1257.34 936.023l.57-10.696-10.28-15.357z"/><path id="vie6ah" d="M1237.71 816.72l.246 8.906 3.4.864 4.49-7.297"/><path id="vie6ai" d="M1195.06 834.18s-9.6 17.34 6.69 19.343z"/><path id="vie6aj" d="M1235.184 862.41l2.382 14.118 4.905.248s-1.574 12.062-17.154 12.062c-14.258 0-9.225-11.658-9.225-11.658l3.505-.336-1.448-11.533"/><path id="vie6ak" d="M1222.198 871.369s-16.44 3.634-20.144 2.238c0 0-4.783-16.499-3.801-28.8l12.006-14.697 22.225-1.35 5.14 20.387c.7-3.695 10.621-9.574 14.148-1.989 4.55 9.78-13.473 17.735-13.473 17.735"/><path id="vie6al" d="M1245.664 843.5s10.11-6-4.048-17.686c-14.157-11.687-24.367-3.201-24.367-3.201s-4.868-13.226-13.525-11.992c-12.332 1.758-11.709 21.86-11.709 21.86s-7.593-9.932-10.933-7.901c-3.34 2.03 1.128 37.88 47.999 13.643 0 0-2.963 10.465 8.54 10.92 0 0 1.425-4.488 8.043-5.644"/><path id="vie6am" d="M1218.762 862.33c-2.354 0-3.94 2.32-3.33 3.954"/><path id="vie6an" d="M1217.435 846.961c-1.99-1.31-4.522-.23-4.845 1.489"/><path id="vie6ao" d="M1209.567 853.19l-1.417 10.366 4.44-1.103z"/><path id="vie6ap" d="M1213.875 853.874c.087 1.323 1.188 2.323 2.46 2.233 1.27-.09 2.231-1.236 2.144-2.559-.086-1.323-1.188-2.322-2.459-2.232-1.271.09-2.231 1.236-2.145 2.558"/><path id="vie6aq" d="M1202.265 856.924c.087 1.323 1.188 2.323 2.46 2.232 1.27-.09 2.231-1.235 2.144-2.558-.086-1.323-1.187-2.323-2.459-2.232-1.271.09-2.231 1.236-2.145 2.558"/><path id="vie6ar" d="M1209.488 1146.82l.83 10.55s-20.64 3.639-27.638 12.462h41.296l-2.613-29.462z"/><path id="vie6as" d="M1249.02 1146.193l2.222 11.576s-8.694 1.27-12.232 12.06h28.145l-2.815-12.7-3.217-11.579z"/><path id="vie6at" d="M1221.788 1143.07l1.022 13.59-12.49.709-.83-10.548z"/><path id="vie6au" d="M1262.398 1142.2l1.933 14.928-13.098.64-2.223-11.575z"/><path id="vie6av" d="M1202.626 955.36l-2.316 99.945 5.407 96.954 20.408.347 1.676-97.305 8.74-99.941z"/><path id="vie6aw" d="M1222.54 955.36l23.342 197.651h20.631l-10.2-197.651z"/><path id="vie6ax" d="M1200.552 927.723l-1.662-22.213"/><path id="vie6ay" d="M1247.13 959.154l20.464-24.438-6.672-11.786 16.927-13.48s9.394 17.225 8.557 22.912c-2.395 16.258-33.392 39.967-33.392 39.967"/><path id="vie6az" d="M1212.418 938.359s-44.187 7.355-47.95-1.197c-3.378-7.677 13.877-28.302 13.877-28.302l15.748 14.92-.073.117 22.285 1.126"/><path id="vie6aA" d="M1180.42 923.41l13.882.545"/><path id="vie6aB" d="M1230.205 1027.877l-5.375-51.357 3.692 70.602z"/><path id="vie6aC" d="M1210.264 932.396s-2.616 6.9-1.208 9.903c1.41 3.004 11.762 2.771 13.768 1.31 2.005-1.46 4.984-14.757 3.09-17.014-1.893-2.257-11.765-1.637-11.765-1.637"/><path id="vie6aD" d="M1204.876 940.935h-4.254c-.79 0-1.432-.668-1.432-1.49V923.66c0-.823.641-1.491 1.432-1.491h4.254c.791 0 1.433.668 1.433 1.49v15.784c0 .823-.642 1.49-1.433 1.49"/><path id="vie6aE" d="M1207.4 924.51h-9.302c-.827 0-1.498-.697-1.498-1.558v-.444c0-.86.67-1.558 1.498-1.558h9.301c.827 0 1.498.698 1.498 1.558v.444c0 .861-.671 1.558-1.498 1.558"/><path id="vie6aF" d="M1201.59 853.269l4.34-.337"/><path id="vie6aG" d="M1246.42 958.27s.782 6.639 7.096 14.7"/><path id="vie6aH" d="M1260.93 922.93l16.927-13.48-13.64 19.285z"/></defs><g><g transform="translate(-759 -743)"><g><g><g><use fill="#afb4c8" xlink:href="#vie6a"/></g><g><use fill="#fff" fill-opacity="0" stroke="#0b096f" stroke-linecap="round" stroke-miterlimit="50" stroke-width="11.2" xlink:href="#vie6b"/></g><g><use fill="#fff" fill-opacity="0" stroke="#285fd7" stroke-miterlimit="50" stroke-width="10.5" xlink:href="#vie6c"/></g><g><use fill="#0b096f" xlink:href="#vie6d"/></g><g><use fill="#285fd7" xlink:href="#vie6e"/></g><g><use fill="#0b096f" xlink:href="#vie6f"/></g><g><use fill="#49a2ff" xlink:href="#vie6g"/></g><g><use fill="#fff" fill-opacity="0" stroke="#0b096f" stroke-linecap="round" stroke-miterlimit="50" stroke-width="11.2" xlink:href="#vie6h"/></g><g><use fill="#49a2ff" xlink:href="#vie6i"/></g><g><use fill="#fff" fill-opacity="0" stroke="#0b096f" stroke-linecap="round" stroke-miterlimit="50" stroke-width="11.2" xlink:href="#vie6j"/></g><g><use fill="#fff" fill-opacity="0" stroke="#0b096f" stroke-linecap="round" stroke-miterlimit="50" stroke-width="11.2" xlink:href="#vie6k"/></g><g><use fill="#fff" fill-opacity="0" stroke="#0b096f" stroke-linecap="round" stroke-miterlimit="50" stroke-width="11.2" xlink:href="#vie6l"/></g><g><use fill="#285fd7" xlink:href="#vie6m"/></g><g><use fill="#fff" fill-opacity="0" stroke="#0b096f" stroke-linecap="round" stroke-miterlimit="50" stroke-width="11.2" xlink:href="#vie6n"/></g><g><use fill="#285fd7" xlink:href="#vie6o"/></g><g><use fill="#285fd7" xlink:href="#vie6p"/></g><g><use fill="#285fd7" xlink:href="#vie6q"/></g><g><use fill="#fff" fill-opacity="0" stroke="#0b096f" stroke-linecap="round" stroke-miterlimit="50" stroke-width="19.6" xlink:href="#vie6r"/></g><g><use fill="#49a2ff" xlink:href="#vie6s"/></g><g><use fill="#fff" fill-opacity="0" stroke="#0b096f" stroke-linecap="round" stroke-miterlimit="50" stroke-width="4.2" xlink:href="#vie6t"/></g><g><use fill="#49a2ff" xlink:href="#vie6u"/></g><g><use fill="#0b096f" xlink:href="#vie6v"/></g><g><use fill="#0b096f" xlink:href="#vie6w"/></g><g><use fill="#0b096f" xlink:href="#vie6x"/></g><g><use fill="#0b096f" xlink:href="#vie6y"/></g><g><use fill="#0b096f" xlink:href="#vie6z"/></g><g><use fill="#0b096f" xlink:href="#vie6A"/></g><g><use fill="#285fd7" xlink:href="#vie6B"/></g><g><use fill="#fff" fill-opacity="0" stroke="#0b096f" stroke-miterlimit="50" stroke-width="4.2" xlink:href="#vie6C"/></g><g><use fill="#fff" fill-opacity="0" stroke="#0b096f" stroke-miterlimit="50" stroke-width="4.2" xlink:href="#vie6D"/></g><g><use fill="#0b096f" xlink:href="#vie6E"/></g><g><use fill="#fff" fill-opacity="0" stroke="#0b096f" stroke-miterlimit="50" stroke-width="2.8" xlink:href="#vie6F"/></g><g><use fill="#285fd7" xlink:href="#vie6G"/></g><g><use fill="#285fd7" xlink:href="#vie6H"/></g><g><use fill="#0b096f" xlink:href="#vie6I"/></g><g><use fill="#285fd7" xlink:href="#vie6J"/></g><g><use fill="#285fd7" xlink:href="#vie6K"/></g><g><use fill="#285fd7" xlink:href="#vie6L"/></g><g><use fill="#0b096f" xlink:href="#vie6M"/></g><g><use fill="#fff" fill-opacity="0" stroke="#285fd7" stroke-miterlimit="50" stroke-width="10.5" xlink:href="#vie6N"/></g><g><use fill="#007eff" xlink:href="#vie6O"/></g><g><use fill="#fff" xlink:href="#vie6P"/></g><g><use fill="#fff" xlink:href="#vie6Q"/></g><g><use fill="#fff" xlink:href="#vie6R"/></g></g><g><g><use fill="#92979d" xlink:href="#vie6S"/></g><g><use fill="#fff" xlink:href="#vie6T"/></g><g><use fill="#fff" xlink:href="#vie6U"/></g><g><use fill="#fff" xlink:href="#vie6V"/></g><g><use fill="#92979d" xlink:href="#vie6W"/></g><g><use fill="#92979d" xlink:href="#vie6X"/></g><g><use fill="#92979d" xlink:href="#vie6Y"/></g><g><use fill="#92979d" xlink:href="#vie6Z"/></g><g><use fill="#92979d" xlink:href="#vie6aa"/></g><g><use fill="#92979d" xlink:href="#vie6ab"/></g><g><use fill="#92979d" xlink:href="#vie6ac"/></g><g><use fill="#fff" fill-opacity="0" stroke="#505459" stroke-miterlimit="50" stroke-width="3.5" xlink:href="#vie6ad"/></g><g><use fill="#0670dc" xlink:href="#vie6ae"/></g><g><use fill="#ffc100" xlink:href="#vie6af"/></g><g><use fill="#f38c01" xlink:href="#vie6ag"/></g><g><use fill="#fff" fill-opacity="0" stroke="#0b096f" stroke-miterlimit="50" stroke-width="6.3" xlink:href="#vie6ah"/></g><g><use fill="#0b096f" xlink:href="#vie6ai"/></g><g><use fill="#ff77ca" xlink:href="#vie6aj"/></g><g><use fill="#ff77ca" xlink:href="#vie6ak"/></g><g><use fill="#0b096f" xlink:href="#vie6al"/></g><g><use fill="#fff" fill-opacity="0" stroke="#0b096f" stroke-miterlimit="50" stroke-width="2.1" xlink:href="#vie6am"/></g><g><use fill="#fff" fill-opacity="0" stroke="#0b096f" stroke-miterlimit="50" stroke-width="2.1" xlink:href="#vie6an"/></g><g><use fill="#285fd7" xlink:href="#vie6ao"/></g><g><use fill="#0b096f" xlink:href="#vie6ap"/></g><g><use fill="#0b096f" xlink:href="#vie6aq"/></g><g><use fill="#0b096f" xlink:href="#vie6ar"/></g><g><use fill="#0b096f" xlink:href="#vie6as"/></g><g><use fill="#ef3c86" xlink:href="#vie6at"/></g><g><use fill="#ef3c86" xlink:href="#vie6au"/></g><g><use fill="#2b2b3b" xlink:href="#vie6av"/></g><g><use fill="#2b2b3b" xlink:href="#vie6aw"/></g><g><use fill="#fff" fill-opacity="0" stroke="#f38c01" stroke-miterlimit="50" stroke-width="2.8" xlink:href="#vie6ax"/></g><g><use fill="#ff77ca" xlink:href="#vie6ay"/></g><g><use fill="#ff77ca" xlink:href="#vie6az"/></g><g><use fill="#fff" fill-opacity="0" stroke="#ef3c86" stroke-miterlimit="50" stroke-width="2.1" xlink:href="#vie6aA"/></g><g><use fill="#17161e" xlink:href="#vie6aB"/></g><g><use fill="#ff77ca" xlink:href="#vie6aC"/></g><g><use fill="#2b2b3b" xlink:href="#vie6aD"/></g><g><use fill="#474c59" xlink:href="#vie6aE"/></g><g><use fill="#fff" fill-opacity="0" stroke="#0b096f" stroke-miterlimit="50" stroke-width="2.1" xlink:href="#vie6aF"/></g><g><use fill="#fff" fill-opacity="0" stroke="#0d0d11" stroke-miterlimit="50" stroke-width="3.5" xlink:href="#vie6aG"/></g><g><use fill="#ef3c86" xlink:href="#vie6aH"/></g></g></g></g></g></svg>