<svg xmlns="http://www.w3.org/2000/svg" xmlns:xlink="http://www.w3.org/1999/xlink" width="545" height="397" viewBox="0 0 545 397"><defs><path id="57dnb" d="M1328.322 4071.348c0 .922-45.919 1.669-102.56 1.669-56.644 0-102.562-.747-102.562-1.669 0-.921 45.918-1.668 102.561-1.668 56.642 0 102.56.747 102.56 1.668"/><path id="57dnc" d="M1159.348 3987.278h128.528c7.196 0 13.227-5.447 13.963-12.613l29.029-282.456c.851-8.285-5.643-15.489-13.963-15.489h-128.524c-7.196 0-13.226 5.448-13.963 12.613l-29.033 282.456c-.851 8.285 5.643 15.489 13.963 15.489"/><path id="57dnd" d="M1314.71 3692.208l-29.03 282.457c-.738 7.167-6.768 12.613-13.965 12.613H1143.19c-8.322 0-14.818-7.204-13.965-15.488l29.036-282.457c.733-7.167 6.763-12.613 13.96-12.613h128.525c8.322 0 14.813 7.204 13.964 15.488"/><path id="57dne" d="M1149.509 3975.684h117.001a9.541 9.541 0 0 0 9.488-8.57l27.667-269.199c.579-5.63-3.834-10.525-9.488-10.525H1177.18a9.543 9.543 0 0 0-9.489 8.57l-27.67 269.198c-.579 5.63 3.834 10.526 9.488 10.526"/><path id="57dnf" d="M1333.68 3723.77l-1.864 18.133h-13.196l1.862-18.133z"/><path id="57dng" d="M1330.96 3754.46l-1.864 18.133H1315.9l1.862-18.133z"/><path id="57dnh" d="M1275.863 3678.29l-1.535 14.953c-.512 4.975-4.698 8.759-9.69 8.759h-55.785c-5.772 0-10.281-5.003-9.691-10.753l1.332-12.959z"/><path id="57dni" d="M1246.93 3692.123H1222a1.886 1.886 0 0 1-1.88-1.881c0-1.035.846-1.882 1.88-1.882h24.93c1.034 0 1.88.847 1.88 1.882a1.886 1.886 0 0 1-1.88 1.881"/><path id="57dnj" d="M1258.896 3690.246a3.135 3.135 0 0 1-3.133 3.136 3.135 3.135 0 0 1-3.133-3.136 3.135 3.135 0 0 1 3.133-3.136 3.135 3.135 0 0 1 3.133 3.136"/><path id="57dnk" d="M1288.658 3737.457l-8.445 82.164a7.377 7.377 0 0 1-7.335 6.626h-99.103c-4.372 0-7.783-3.785-7.336-8.137l8.446-82.137a7.377 7.377 0 0 1 7.332-6.625l99.104-.028c4.372-.001 7.785 3.783 7.337 8.137"/><path id="57dnl" d="M1273.978 3876.907l-8.445 82.164a7.376 7.376 0 0 1-7.335 6.626h-99.103c-4.371 0-7.783-3.785-7.336-8.138l8.446-82.135a7.376 7.376 0 0 1 7.333-6.626l99.104-.028c4.371-.001 7.784 3.783 7.336 8.137"/><path id="57dnm" d="M1210.977 3840.942l-.798 7.77a3.692 3.692 0 0 1-3.671 3.316h-10.398a3.692 3.692 0 0 1-3.67-4.073l.798-7.766a3.692 3.692 0 0 1 3.67-3.316l10.397-.003a3.693 3.693 0 0 1 3.672 4.072"/><path id="57dnn" d="M1201.957 3846.11l-.087.087v3.305c0 2.912 1.293 4.858 3.847 5.273.426.069 1.89.108 3.113.129.316.005.335-.427.032-.516-2.467-.72-3.145-2.965-3.145-4.886v-3.305l-.087-.087z"/><path id="57dno" d="M1170.97 3841.27l3.429 5.394 5.43-5.394"/><path id="57dnp" d="M1165.704 3834.817l-3.184-3.187"/><path id="57dnq" d="M1162.683 3843.19h-4.503"/><path id="57dnr" d="M1166.234 3851.57l-3.184 3.188"/><path id="57dns" d="M1182.038 3695.253a3.761 3.761 0 0 1-3.759 3.763 3.761 3.761 0 0 1-3.759-3.763 3.761 3.761 0 0 1 3.76-3.763 3.761 3.761 0 0 1 3.758 3.763"/><path id="57dnt" d="M1192.398 3695.253a3.761 3.761 0 0 1-3.758 3.763 3.761 3.761 0 0 1-3.76-3.763 3.761 3.761 0 0 1 3.76-3.763 3.761 3.761 0 0 1 3.758 3.763"/><path id="57dnu" d="M1297.258 3695.253a3.761 3.761 0 0 1-3.759 3.763 3.761 3.761 0 0 1-3.759-3.763 3.761 3.761 0 0 1 3.76-3.763 3.761 3.761 0 0 1 3.758 3.763"/><path id="57dnv" d="M1151.018 3733.43l-.278.278v10.529c0 9.276 4.121 15.475 12.256 16.797 1.358.22 6.02.344 9.919.411 1.005.018 1.065-1.36.1-1.642-7.86-2.298-10.019-9.446-10.019-15.566v-10.529l-.278-.278z"/><path id="57dnw" d="M1269.407 3921.468l-3.868 37.607a7.376 7.376 0 0 1-7.335 6.628h-34.573a31.833 31.833 0 0 1-7.261-20.288c0-17.644 14.287-31.945 31.912-31.945 8.105 0 15.495 3.023 21.125 7.998"/><path id="57dnx" d="M1212.131 3915.636c1.676 13.84-8.173 26.419-21.998 28.096-13.825 1.678-26.391-8.18-28.067-22.02-1.676-13.84 8.173-26.418 21.998-28.096 13.824-1.678 26.39 8.181 28.067 22.02"/><path id="57dny" d="M1235.48 3889.43c-9.068 5.64-11.85 17.572-6.215 26.65 5.634 9.077 17.553 11.863 26.622 6.222z"/><path id="57dnz" d="M1187.34 3899.766c5.905 4.633 14.444 3.597 19.072-2.314 4.628-5.911 3.593-14.459-2.312-19.092z"/><path id="57dnA" d="M1063.884 3753.193h104.95c5.217 0 9.445-4.232 9.445-9.453v-28.306c0-5.222-4.228-9.454-9.444-9.454h-104.951c-5.216 0-9.444 4.232-9.444 9.454v28.306c0 5.22 4.228 9.453 9.444 9.453"/><path id="57dnB" d="M1248.9 3712.752c0 9.097-7.366 16.472-16.455 16.472-9.087 0-16.455-7.375-16.455-16.472 0-9.097 7.368-16.472 16.455-16.472 9.089 0 16.455 7.375 16.455 16.472"/><path id="57dnC" d="M1246.657 3750.854c0 .194 0 .383-.005.577-.31 17.653-14.693 31.862-32.396 31.862-14.338 0-26.496-9.313-30.77-22.23a32.646 32.646 0 0 1-1.632-9.632c-.004-.194-.004-.383-.004-.577a32.319 32.319 0 0 1 9.75-23.19c5.842-5.723 13.832-9.244 22.656-9.244 17.892 0 32.4 14.523 32.4 32.434"/><path id="57dnD" d="M1103.315 3801.79l72.55-3.382 24.775-22.566-100.09 15.37s-.865-2.332-2.113-4.738c-1.248-2.405-4.197-4.732-3.867-9.865.329-5.133-3.238-.418-3.502 2.059-.263 2.476 2.413 7.09.378 8.132-2.034 1.043-7.719.948-8.98 2.324-1.261 1.376-.743 4.384.228 4.907 0 0-1.26 3.71 1.227 6.008 0 0 .208 2.637 2.632 3.669 0 0 .878 2.612 3.514 2.3 2.637-.313 8.594-2.486 13.248-4.219"/><path id="57dnE" d="M1181.85 3794.17h64.807v-42.74h-64.807z"/><path id="57dnF" d="M1274.914 3784.55l-11.702 27.834s-1.452 9.243-10.847 13.867h-27.63c-21.904-7.305-30.889-27.358-30.889-27.358l-31.166 14.955V3779.9s50.617-7.204 50.29-7.394c-.452-.259 31.092-2.012 37.333-1.31 6.243.7 24.61 13.355 24.61 13.355"/><path id="57dnG" d="M1198.453 3774.77s-2.536 1.571-4.067 4.948c-2.002 4.416-2.054 10.671-1.56 14.815.31 2.609 1.02 4.357 1.02 4.357s-28.856 13.935-31.166 14.955v-33.949c3.365-.489 35.773-5.126 35.773-5.126"/><path id="57dnH" d="M1281.755 3804.656l-1.535 14.966a7.376 7.376 0 0 1-7.335 6.628h-33.37l-5.031 3.288s.094 4.471.52 7.668c.22 1.648-1.819 2.676-1.819 2.676s-.52 1.565-1.844 1.892c-1.092.273-2.002-1.732-2.268-2.446 1.439 3.866-.866 4.86-1.562 4.768-.71-.097-.996-1.135-.996-1.135s-1.416.613-3.615-1.657c-2.199-2.275-3.098-9.281-3.015-11.704.027-.844.65-2.072 1.447-3.35.07-.111.14-.227.212-.337 1.462-2.285 3.366-4.638 3.366-5.183l38.298-8.349 8.109-19.281z"/><path id="57dnI" d="M1221.882 3764.532c-1.761 2.672-1.033 6.19-.024 8.243.341.706.72 1.241 1.043 1.509 1.254 1.038-6.787 8.708-6.787 8.708l-7.076-7.79c-4.445.25-9.065-.064-11.932-1.864-8.543-5.363-9.078-23.998-8.94-24.93l7.147-7.592s10.786-4.735 12.432-2.732c3.01 3.67 10.068 20.093 15.156 18.21 0 0-.65-5.108 3.853-5.108 3.357 0 4.27 2.547 4.27 4.02 0 4.97-6.777 5.727-9.142 9.326"/><path id="57dnJ" d="M1198.375 3759.03l-3.205 7.388 3.732-.076z"/><path id="57dnK" d="M1201.796 3758.969c.082 1.475 1 2.623 2.05 2.564 1.05-.059 1.835-1.302 1.752-2.777-.082-1.475-1-2.623-2.05-2.564-1.05.059-1.835 1.302-1.752 2.777"/><path id="57dnL" d="M1191.936 3758.749c.083 1.475 1 2.623 2.05 2.564 1.05-.059 1.835-1.302 1.752-2.777-.082-1.475-1-2.623-2.05-2.564-1.05.059-1.835 1.302-1.752 2.777"/><path id="57dnM" d="M1197.75 3740.725c0 2.04-.359 4.001-1.018 5.82-.088.226-.175.461-.277.687a17.109 17.109 0 0 1-2.508 4.195 16.893 16.893 0 0 1-11.397 6.157c-.234.023-.465.041-.7.05v-6.207h.005c-.005-.194-.005-.383-.005-.577a32.319 32.319 0 0 1 9.75-23.19 16.97 16.97 0 0 1 4.915 6.706 16.831 16.831 0 0 1 1.236 6.36"/><path id="57dnN" d="M1222.897 3740.33c0 4.434-4.237 8.171-10.026 9.317-.459.094-.925.168-1.404.225-.767.097-1.56.145-2.364.145-7.618 0-13.793-4.336-13.793-9.686 0-.515.056-1.02.169-1.51 1.033-4.636 6.738-8.181 13.624-8.181 7.547 0 13.673 4.256 13.79 9.536.004.052.004.103.004.155"/><path id="57dnO" d="M1198.9 3769.213s4.328.403 4.328-2.603"/><path id="57dnP" d="M1224.284 3773.809c2.431 2.126 2.59 5.926.355 8.488-2.235 2.563-6.542 3.036-8.528.693-2.089-2.465-2.513-5.829-.278-8.39 2.235-2.563 6.02-2.917 8.45-.791"/><path id="57dnQ" d="M1232.849 3795.954h-12.019v-28.194h25.827v14.371c0 7.634-6.182 13.823-13.808 13.823"/><path id="57dnR" d="M1209.04 3775.202s4.728-.71 7.122-1.952l-4.498 4.84z"/><path id="57dnS" d="M1162.68 3781.67v17.351l-2.2.102.913-17.255z"/><path id="57dnT" d="M1263.2 3812.381l4.186-1.09 3.923-18.191z"/><path id="57dnU" d="M1246.21 3795.96l12.572 17.389-6.584 1.435z"/><path id="57dnV" d="M1092.062 3789.2c.484 1.313-1.372 2.615-1.372 2.615s1.924-.165 2.483 1.633c.496 1.598-1.523 2.828-1.523 2.828s2.291-.331 2.894 1.48c.712 2.138-1.889 3.29-1.889 3.29s2.521-.906 3.088 1.076c.545 1.9-1.896 2.491-1.896 2.491"/><path id="57dnW" d="M1082.69 3794.029l7.996-2.219"/><path id="57dnX" d="M1083.92 3800.035l7.73-3.765"/><path id="57dnY" d="M1086.55 3803.705l6.102-2.665"/><path id="57dnZ" d="M1226.506 3842.5s-2.315-5.152-2.73-7.518c-.602-3.444-.534-6.212-.534-6.212"/><path id="57dnaa" d="M1229.747 3840.752s-1.587-4.409-2.194-6.204c-.678-2.007-.683-6.488-.683-6.488"/><path id="57dnab" d="M1231.03 3827.56s-.377 3.35-.04 5.728c.445 3.141 2.196 6.131 2.196 6.131"/><path id="57dnac" d="M1025.347 4070.429c0 .922-45.878 1.669-102.473 1.669s-102.474-.747-102.474-1.67c0-.921 45.879-1.668 102.474-1.668 56.595 0 102.473.747 102.473 1.669"/><path id="57dnad" d="M963.2 3989.6H834.78c-7.19 0-13.215-5.45-13.951-12.617l-29.004-282.559c-.85-8.288 5.638-15.494 13.95-15.494h128.416c7.19 0 13.215 5.45 13.95 12.617l29.009 282.558c.85 8.288-5.638 15.495-13.95 15.495"/><path id="57dnae" d="M979.34 3989.6H850.922c-7.19 0-13.215-5.448-13.952-12.617l-29.006-282.56c-.848-8.286 5.638-15.493 13.952-15.493h128.416c7.19 0 13.216 5.448 13.948 12.617l29.011 282.56c.852 8.287-5.638 15.493-13.953 15.493"/><path id="57dna" d="M920.508 3688c-4.065 0-7.238 3.525-6.822 7.578l.47 4.575c.435 4.237-2.881 7.92-7.13 7.92h-31.918c-4.712 0-8.664-3.573-9.148-8.272l-.492-4.788c-.409-3.984-3.757-7.013-7.754-7.013h-28.412c-5.674 0-10.101 4.917-9.52 10.573l26.914 262.176c.502 4.894 4.611 8.61 9.517 8.61h117.531c5.675 0 10.102-4.917 9.522-10.572l-26.92-262.176c-.502-4.894-4.611-8.611-9.516-8.611z"/><path id="57dnag" d="M791.75 3995.983h213.475V3672.39H791.75z"/><path id="57dnah" d="M853.93 3913.75l8.437 82.194a7.374 7.374 0 0 0 7.33 6.628h99.019c4.367 0 7.775-3.786 7.328-8.14l-8.438-82.166a7.373 7.373 0 0 0-7.326-6.628l-99.02-.028c-4.368-.001-7.777 3.785-7.33 8.14"/><path id="57dnai" d="M839.65 3773.76l8.437 82.194a7.374 7.374 0 0 0 7.33 6.628h99.018c4.368 0 7.776-3.786 7.33-8.14l-8.438-82.166a7.374 7.374 0 0 0-7.327-6.628l-99.02-.028c-4.368-.001-7.778 3.785-7.33 8.14"/><path id="57dnaj" d="M824.93 3633.63l8.437 82.194a7.374 7.374 0 0 0 7.33 6.628h99.018c4.368 0 7.776-3.786 7.33-8.14l-8.438-82.166a7.374 7.374 0 0 0-7.327-6.628l-99.02-.028c-4.368 0-7.778 3.785-7.33 8.14"/><path id="57dnak" d="M881.69 3876.704l.798 7.771a3.69 3.69 0 0 0 3.667 3.318h10.389a3.692 3.692 0 0 0 3.667-4.074l-.797-7.77a3.69 3.69 0 0 0-3.667-3.316l-10.388-.003a3.692 3.692 0 0 0-3.67 4.074"/><path id="57dnal" d="M893.117 3881.7l-.087.087v3.306c0 2.913 1.293 4.86 3.844 5.275.426.069 1.888.108 3.11.13.316.005.335-.428.032-.517-2.465-.721-3.142-2.966-3.142-4.888v-3.306a15.344 15.344 0 0 0-.088-.087z"/><path id="57dnam" d="M868.372 3877.49l-3.426 5.396-5.426-5.396"/><path id="57dnan" d="M865.62 3736.733l.798 7.772a3.69 3.69 0 0 0 3.668 3.318h10.388a3.692 3.692 0 0 0 3.667-4.074l-.797-7.77a3.69 3.69 0 0 0-3.667-3.316l-10.388-.003a3.692 3.692 0 0 0-3.67 4.073"/><path id="57dnao" d="M877.047 3741.73l-.087.087v3.306c0 2.913 1.293 4.86 3.844 5.275.426.069 1.888.108 3.11.13.316.004.335-.428.032-.517-2.465-.722-3.142-2.966-3.142-4.888v-3.306l-.088-.087z"/><path id="57dnap" d="M852.302 3737.52l-3.426 5.396-5.426-5.396"/><path id="57dnaq" d="M909.354 3946.815c-8.873 9.433-23.696 9.87-33.108.978-9.413-8.893-9.85-23.75-.977-33.183"/><path id="57dnar" d="M927.747 3976.22c-12.181-11.015-13.147-29.842-2.156-42.05 10.99-12.21 29.776-13.177 41.957-2.162"/><path id="57dnas" d="M945.31 3779.636c0 15.706-7.468 29.976-24.378 29.976-16.905 0-24.372-14.27-24.372-29.976 0-4.787.861-9.566 2.345-14.016h44.055c1.483 4.45 2.35 9.229 2.35 14.016"/><path id="57dnat" d="M920.92 3783.58v44.202"/><path id="57dnau" d="M884.231 3810.531c-14.855 2.992-23.934-8.227-26.698-22.03-.838-4.174-.926-8.495-.424-12.641.438-3.615 1.327-7.096 2.561-10.24l15.56.005 3.036 15.142z"/><path id="57dnav" d="M889.566 3852.414s-12.095-15.628-8.126-19.224c3.968-3.597 8.039 5.708 14.37 5.234 6.33-.473.624-6.808 2.18-9.744 1.554-2.935 20.68 6.62 20.68 6.62z"/><path id="57dnaw" d="M890.934 3804.998c0 16.274-13.165 29.468-29.407 29.468a29.215 29.215 0 0 1-16.14-4.833l-4.667-45.451a29.28 29.28 0 0 1 20.807-8.652c6.218 0 11.99 1.934 16.74 5.24 7.655 5.318 12.667 14.187 12.667 24.228"/><path id="57dnax" d="M862.64 3805v44.202"/><path id="57dnay" d="M907.369 3934.406c0 4.196-3.394 7.597-7.58 7.597s-7.579-3.401-7.579-7.597c0-4.195 3.393-7.596 7.58-7.596 4.185 0 7.579 3.401 7.579 7.596"/><path id="57dnaz" d="M896.12 3698.891h-10.333a2.127 2.127 0 0 1-2.117-2.125c0-1.17.953-2.126 2.117-2.126h10.334c1.163 0 2.116.956 2.116 2.126 0 1.169-.953 2.125-2.116 2.125"/><path id="57dnaA" d="M908.536 3695.203a3.535 3.535 0 0 1-3.528 3.543 3.535 3.535 0 0 1-3.528-3.543 3.535 3.535 0 0 1 3.528-3.543 3.535 3.535 0 0 1 3.528 3.543"/><path id="57dnaB" d="M880.426 3695.343a3.536 3.536 0 0 1-3.528 3.544 3.536 3.536 0 0 1-3.528-3.544 3.536 3.536 0 0 1 3.528-3.543 3.536 3.536 0 0 1 3.528 3.543"/><path id="57dnaC" d="M963.35 3973.161l-3.433 9.424s22.813 10.77 30.058 20.85l-44.565-10.06 7.605-27.275z"/><path id="57dnaD" d="M952.292 3968.15l-3.092 11.64 10.721 2.79 2.869-7.819z"/><path id="57dnaE" d="M875.8 3863.754s30.505-35.826 65.959-34.782c35.453 1.045 23.946 26.087 23.946 26.087s17.449 32.66 19.165 56.715c1.159 16.235-19.464 67.87-19.464 67.87l-16.45-4.694s16.77-48.22 12.94-68.161c-2.774-14.451-24.233-41.489-31.262-43.035z"/><path id="57dnaF" d="M1054.434 3824.562l-2.73 20.898-24.27-1.99s-10.519 7.63-26.844 11.587c-16.32 3.963-40.97 9.712-55.151 0-14.182-9.712-9.785-21.946-9.785-21.946l16.14.194 3.997-21.234c12.892-1.676 23.722-.976 32.94-.328 11.937.838 20.925 2.949 27.3 4.56.801.203 1.677.42 2.622.652 12.361 3.028 35.781 7.607 35.781 7.607"/><path id="57dnaG" d="M996.453 3834.767c-6.524-2.09-8.887-8.38-8.036-16.76.227-2.234 1.706-5.611 5.002-5.857 11.938.838 22.795 2.244 23.22 4.29 3.308 15.953-14.778 20.059-20.186 18.327"/><path id="57dnaH" d="M1000.591 3828.982l15.44-9.987s15.592 5.441 19.351 4.364c0 0 9.046-14.854 8.888-26.673l-10.908-14.869-21.906-2.827-6.437 19.118c-.449-3.578-9.877-9.88-13.87-2.88-5.15 9.028 10.158 16.83 10.158 16.83l-9.655 5.339z"/><path id="57dnaI" d="M995.06 3792.194s-8.712-7.485 6.073-17.668c14.784-10.184 24.326-1.371 24.326-1.371s5.694-12.297 14.179-10.52c12.088 2.534 10.14 21.692 10.14 21.692s5.096-9.592 8.267-7.422c3.171 2.17-.547 36.735-45.328 10.341 0 0 3.726 11.22-7.69 10.858 0 0-2.612-6.401-9.968-5.91"/><path id="57dnaJ" d="M1008.897 3763.64l-.205 8.782-3.468.871-4.624-7.17"/><path id="57dnaK" d="M1033.34 3805.07l1.566 8.626-3.886-.771z"/><path id="57dnaL" d="M1030.521 3803.798a2.003 2.003 0 0 1-2.284 1.68 2.01 2.01 0 0 1-1.673-2.293 2.003 2.003 0 0 1 2.283-1.681 2.01 2.01 0 0 1 1.674 2.294"/><path id="57dnaM" d="M1040.831 3804.318a2.004 2.004 0 0 1-2.284 1.68 2.01 2.01 0 0 1-1.673-2.293 2.003 2.003 0 0 1 2.283-1.681 2.01 2.01 0 0 1 1.674 2.294"/><path id="57dnaN" d="M1016.032 3818.927l-11.292-5.477 6.532 8.619z"/><path id="57dnaO" d="M1025.57 3798.884a3.269 3.269 0 0 1 3.079-1.508 3.275 3.275 0 0 1 2.73 2.077"/><path id="57dnaP" d="M1035.88 3799.884a3.27 3.27 0 0 1 3.079-1.508 3.275 3.275 0 0 1 2.73 2.077"/><path id="57dnaQ" d="M1138.34 3843.765l-5.544 5.057-9.076-3.632 3.12-5.84z"/><path id="57dnaR" d="M1051.99 3843.314l64.38 3.871s5.601 2.773 8.58 3.38c2.977.608 8.154-.318 11.202 1.107 3.05 1.424 2.482-2.35-.283-2.991s-8.864-3.49-8.864-3.49l3.546-2.421s12.054 2.635 14.181 2.279c2.127-.357 5.035-1.994 5.035-3.134 0 0-13.756-.997-18.507-4.344-4.75-3.347-15.103.499-15.103.499l-61.801-12.89z"/><path id="57dnaS" d="M955.652 3812.88s-26.094 1.389-32.144 3.424c-6.052 2.036-33.658 47.33-33.658 47.33l8.65.57s-3.545 5.697-6.239 6.552c-2.694.854.567 2.278.567 2.278s-.421 1.692 2.836 1.852c5.818.285 14.466-3.561 18.153-9.543 0 0 1.985-3.48-.851-4.945-2.836-1.465-8.51-1.75-8.51-1.75l22.923-25.638 24.416.3z"/><path id="57dnaT" d="M1032.14 3817.21c-.685 1.297-2.987 1.418-5.143.27-2.156-1.148-3.102-3.618-2.417-4.915.683-1.296 2.76.755 4.915 1.902 2.156 1.148 3.328 1.448 2.644 2.744"/><path id="57dnaU" d="M935.657 3833.12l16.141.194-.429 2.063 16.598-1.054-32.684 6.433s-.5-2.42-.17-4.953c.19-1.443.544-2.683.544-2.683"/><path id="57dnaV" d="M893.07 3872.752s2.741-.556 5.277-2.617c4.467-3.632 5.229-7.175 5.229-7.175"/><path id="57dnaW" d="M895.83 3874.51s2.365-.346 5.53-2.688c4.982-3.686 6.356-7.862 6.356-7.862"/><clipPath id="57dnaf"><use xlink:href="#57dna"/></clipPath></defs><g><g transform="translate(-791 -3676)"><g><g><use fill="#afb4c8" xlink:href="#57dnb"/></g><g><use fill="#1f2430" xlink:href="#57dnc"/></g><g><use fill="#5b6a76" xlink:href="#57dnd"/></g><g><use fill="#fff" xlink:href="#57dne"/></g><g><use fill="#fff" fill-opacity="0" stroke="#5b6a76" stroke-miterlimit="50" stroke-width="3.5" xlink:href="#57dnf"/></g><g><use fill="#fff" fill-opacity="0" stroke="#5b6a76" stroke-miterlimit="50" stroke-width="3.5" xlink:href="#57dng"/></g><g><use fill="#5b6a76" xlink:href="#57dnh"/></g><g><use xlink:href="#57dni"/></g><g><use xlink:href="#57dnj"/></g><g><use fill="#e8f6ff" xlink:href="#57dnk"/></g><g><use fill="#e8f6ff" xlink:href="#57dnl"/></g><g><use fill="#dce0e3" xlink:href="#57dnm"/></g><g><use fill="#dce0e3" xlink:href="#57dnn"/></g><g><use fill="#fff" fill-opacity="0" stroke="#ef3c86" stroke-linecap="round" stroke-miterlimit="50" stroke-width="15.4" xlink:href="#57dno"/></g><g><use fill="#fff" fill-opacity="0" stroke="#1a1a30" stroke-miterlimit="50" stroke-width="2.8" xlink:href="#57dnp"/></g><g><use fill="#fff" fill-opacity="0" stroke="#1a1a30" stroke-miterlimit="50" stroke-width="2.8" xlink:href="#57dnq"/></g><g><use fill="#fff" fill-opacity="0" stroke="#1a1a30" stroke-miterlimit="50" stroke-width="2.8" xlink:href="#57dnr"/></g><g><use fill="#d6e1e6" xlink:href="#57dns"/></g><g><use fill="#d6e1e6" xlink:href="#57dnt"/></g><g><use fill="#d6e1e6" xlink:href="#57dnu"/></g><g><use fill="#49adff" xlink:href="#57dnv"/></g><g><use fill="#d0e1e9" xlink:href="#57dnw"/></g><g><use fill="#d0e1e9" xlink:href="#57dnx"/></g><g><use fill="#bcced4" xlink:href="#57dny"/></g><g><use fill="#bcced4" xlink:href="#57dnz"/></g><g><use fill="#49adff" xlink:href="#57dnA"/></g><g><use fill="#25003f" xlink:href="#57dnB"/></g><g><use fill="#25003f" xlink:href="#57dnC"/></g><g><use fill="#ff77ca" xlink:href="#57dnD"/></g><g><use fill="#25003f" xlink:href="#57dnE"/></g><g><use fill="#49a2ff" xlink:href="#57dnF"/></g><g><use fill="#285fd7" xlink:href="#57dnG"/></g><g><use fill="#ff77ca" xlink:href="#57dnH"/></g><g><use fill="#ff77ca" xlink:href="#57dnI"/></g><g><use fill="#285fd7" xlink:href="#57dnJ"/></g><g><use fill="#0b096f" xlink:href="#57dnK"/></g><g><use fill="#0b096f" xlink:href="#57dnL"/></g><g><use fill="#25003f" xlink:href="#57dnM"/></g><g><use fill="#25003f" xlink:href="#57dnN"/></g><g><use fill="#fff" xlink:href="#57dnO"/></g><g><use fill="#ff77ca" xlink:href="#57dnP"/></g><g><use fill="#25003f" xlink:href="#57dnQ"/></g><g><use fill="#ef3c86" xlink:href="#57dnR"/></g><g><use fill="#ef3c86" xlink:href="#57dnS"/></g><g><use fill="#ef3c86" xlink:href="#57dnT"/></g><g><use fill="#285fd7" xlink:href="#57dnU"/></g><g><use fill="#fff" fill-opacity="0" stroke="#de479d" stroke-linecap="round" stroke-miterlimit="50" stroke-width="1.4" xlink:href="#57dnV"/></g><g><use fill="#fff" fill-opacity="0" stroke="#de479d" stroke-miterlimit="50" stroke-width="1.4" xlink:href="#57dnW"/></g><g><use fill="#fff" fill-opacity="0" stroke="#de479d" stroke-miterlimit="50" stroke-width="1.4" xlink:href="#57dnX"/></g><g><use fill="#fff" fill-opacity="0" stroke="#de479d" stroke-miterlimit="50" stroke-width="1.4" xlink:href="#57dnY"/></g><g><use fill="#fff" fill-opacity="0" stroke="#de479d" stroke-linecap="round" stroke-miterlimit="50" stroke-width="1.4" xlink:href="#57dnZ"/></g><g><use fill="#fff" fill-opacity="0" stroke="#de479d" stroke-linecap="round" stroke-miterlimit="50" stroke-width="1.4" xlink:href="#57dnaa"/></g><g><use fill="#fff" fill-opacity="0" stroke="#de479d" stroke-linecap="round" stroke-miterlimit="50" stroke-width="1.4" xlink:href="#57dnab"/></g></g><g><g><g><use fill="#afb4c8" xlink:href="#57dnac"/></g><g><use fill="#1f2430" xlink:href="#57dnad"/></g><g><use fill="#5b6a76" xlink:href="#57dnae"/></g></g><g><g/><g clip-path="url(#57dnaf)"><use fill="#fff" xlink:href="#57dnag"/></g><g clip-path="url(#57dnaf)"><use fill="#e8f6ff" xlink:href="#57dnah"/></g><g clip-path="url(#57dnaf)"><use fill="#e8f6ff" xlink:href="#57dnai"/></g><g clip-path="url(#57dnaf)"><use fill="#e8f6ff" xlink:href="#57dnaj"/></g><g clip-path="url(#57dnaf)"><use fill="#dce0e3" xlink:href="#57dnak"/></g><g clip-path="url(#57dnaf)"><use fill="#dce0e3" xlink:href="#57dnal"/></g><g clip-path="url(#57dnaf)"><use fill="#fff" fill-opacity="0" stroke="#ef3c86" stroke-linecap="round" stroke-miterlimit="50" stroke-width="15.4" xlink:href="#57dnam"/></g><g clip-path="url(#57dnaf)"><use fill="#dce0e3" xlink:href="#57dnan"/></g><g clip-path="url(#57dnaf)"><use fill="#dce0e3" xlink:href="#57dnao"/></g><g clip-path="url(#57dnaf)"><use fill="#fff" fill-opacity="0" stroke="#ced2e1" stroke-linecap="round" stroke-miterlimit="50" stroke-width="15.4" xlink:href="#57dnap"/></g><g clip-path="url(#57dnaf)"><use fill="#d8e9f0" xlink:href="#57dnaq"/></g><g clip-path="url(#57dnaf)"><use fill="#d8e9f0" xlink:href="#57dnar"/></g><g clip-path="url(#57dnaf)"><use fill="#d8e9f0" xlink:href="#57dnas"/></g><g clip-path="url(#57dnaf)"><use fill="#fff" fill-opacity="0" stroke="#cdd9e3" stroke-miterlimit="50" stroke-width="3.5" xlink:href="#57dnat"/></g><g clip-path="url(#57dnaf)"><use fill="#cedde1" xlink:href="#57dnau"/></g><g clip-path="url(#57dnaf)"><use fill="#d8e9f0" xlink:href="#57dnav"/></g><g clip-path="url(#57dnaf)"><use fill="#d8e9f0" xlink:href="#57dnaw"/></g><g clip-path="url(#57dnaf)"><use fill="#fff" fill-opacity="0" stroke="#cdd9e3" stroke-miterlimit="50" stroke-width="3.5" xlink:href="#57dnax"/></g><g clip-path="url(#57dnaf)"><use fill="#cedde1" xlink:href="#57dnay"/></g></g></g><g><g><use xlink:href="#57dnaz"/></g><g><use xlink:href="#57dnaA"/></g><g><use xlink:href="#57dnaB"/></g><g><use fill="#0b096f" xlink:href="#57dnaC"/></g><g><use fill="#ef3c86" xlink:href="#57dnaD"/></g><g><use fill="#25003f" xlink:href="#57dnaE"/></g><g><use fill="#ffc100" xlink:href="#57dnaF"/></g><g><use fill="#ff77ca" xlink:href="#57dnaG"/></g><g><use fill="#ff77ca" xlink:href="#57dnaH"/></g><g><use fill="#0b096f" xlink:href="#57dnaI"/></g><g><use fill="#fff" fill-opacity="0" stroke="#001f68" stroke-miterlimit="50" stroke-width="6.3" xlink:href="#57dnaJ"/></g><g><use fill="#285fd7" xlink:href="#57dnaK"/></g><g><use fill="#0b096f" xlink:href="#57dnaL"/></g><g><use fill="#0b096f" xlink:href="#57dnaM"/></g><g><use fill="#ef3c86" xlink:href="#57dnaN"/></g><g><use fill="#fff" fill-opacity="0" stroke="#0d1a88" stroke-miterlimit="50" stroke-width="2.1" xlink:href="#57dnaO"/></g><g><use fill="#fff" fill-opacity="0" stroke="#0d1a88" stroke-miterlimit="50" stroke-width="2.1" xlink:href="#57dnaP"/></g><g><use fill="#ef3c86" xlink:href="#57dnaQ"/></g><g><use fill="#ff77ca" xlink:href="#57dnaR"/></g><g><use fill="#ff77ca" xlink:href="#57dnaS"/></g><g><use fill="#fff" xlink:href="#57dnaT"/></g><g><use fill="#e0660c" xlink:href="#57dnaU"/></g><g><use fill="#fff" fill-opacity="0" stroke="#de479d" stroke-linecap="round" stroke-miterlimit="50" stroke-width="1.4" xlink:href="#57dnaV"/></g><g><use fill="#fff" fill-opacity="0" stroke="#de479d" stroke-linecap="round" stroke-miterlimit="50" stroke-width="1.4" xlink:href="#57dnaW"/></g></g></g></g></svg>