<svg xmlns="http://www.w3.org/2000/svg" xmlns:xlink="http://www.w3.org/1999/xlink" width="504" height="488" viewBox="0 0 504 488"><defs><path id="ls1ta" d="M341.104 3183.815l-42.4-33.885-42.404 33.885v51.329h84.804z"/><path id="ls1tb" d="M224.63 3134.62v-54.38h74.47v54.38z"/><path id="ls1tc" d="M232.82 3090.005h58.425"/><path id="ls1td" d="M232.82 3098.655h58.425"/><path id="ls1te" d="M232.82 3107.295h58.425"/><path id="ls1tf" d="M232.82 3115.935h58.425"/><path id="ls1tg" d="M243.36 3134.63v-18.7h56.32v18.7z"/><path id="ls1th" d="M261.89 3115.93h56.894c4.654 0 9.117 1.846 12.407 5.133a17.512 17.512 0 0 1 5.14 12.39v82.963H261.89z"/><path id="ls1ti" d="M242.214 3115.93h2.239c9.72 0 17.6 7.87 17.6 17.577v1.115H224.63v-1.115c0-9.701 7.87-17.568 17.584-17.577z"/><path id="ls1tj" d="M270.4 3132.435h58.43"/><path id="ls1tk" d="M270.4 3141.905h58.43"/><path id="ls1tl" d="M270.4 3151.375h58.43"/><path id="ls1tm" d="M270.4 3160.845h58.43"/><path id="ls1tn" d="M270.4 3170.315h58.43"/><path id="ls1to" d="M270.4 3179.775h58.43"/><path id="ls1tp" d="M270.4 3189.245h58.43"/><path id="ls1tq" d="M270.4 3198.715h58.43"/><path id="ls1tr" d="M403.473 3290.88v27.438H386.99a12.913 12.913 0 0 0-9.13 3.775 12.88 12.88 0 0 0-3.78 9.118c0 7.118-5.778 12.888-12.905 12.888s-12.905-5.77-12.905-12.888v-40.331z"/><path id="ls1ts" d="M354.87 3299.415h41.974"/><path id="ls1tt" d="M354.87 3308.055h41.974"/><path id="ls1tu" d="M354.87 3316.695h41.974"/><path id="ls1tv" d="M354.87 3325.335h41.974"/><path id="ls1tw" d="M455.105 3334.648v76.856h-38.646a16.59 16.59 0 0 1-11.726-4.848 16.546 16.546 0 0 1-4.858-11.71v-63.723a12.88 12.88 0 0 0-3.778-9.116 12.913 12.913 0 0 0-9.127-3.777h51.779c9.027 0 16.347 7.303 16.356 16.318z"/><path id="ls1tx" d="M399.87 3331.215v12.888h-38.72c7.127 0 12.905-5.77 12.905-12.888a12.89 12.89 0 0 1 6.377-11.384 12.925 12.925 0 0 1 13.06 0 12.89 12.89 0 0 1 6.378 11.384z"/><path id="ls1ty" d="M431.32 3288.75v-48.47h80.95v48.47z"/><path id="ls1tz" d="M480.61 3263.72l27.224 18.097"/><path id="ls1tA" d="M507.84 3245.63l-36.04 23.955-36.03-23.955"/><path id="ls1tB" d="M535.69 3302.41v-48.47h80.95v48.47z"/><path id="ls1tC" d="M540.13 3295.493l27.219-18.103"/><path id="ls1tD" d="M584.98 3277.39l27.224 18.103"/><path id="ls1tE" d="M612.2 3259.29l-36.035 23.955-36.035-23.955"/><path id="ls1tF" d="M381.31 3158.001c0-9.008 7.303-16.311 16.311-16.311H561.08c9.008 0 16.311 7.303 16.311 16.311v33.927c0 9.01-7.303 16.312-16.311 16.312H397.622c-9.01 0-16.312-7.303-16.312-16.311z"/><path id="ls1tG" d="M395.91 3158.095h105.254"/><path id="ls1tH" d="M395.91 3173.255h158.58"/><path id="ls1tI" d="M395.91 3183.355h167.912"/><path id="ls1tJ" d="M395.91 3193.455h111.252"/><path id="ls1tK" d="M341.104 3235.149H256.3v-51.329l42.405 28.24 42.399-28.24z"/><path id="ls1tL" d="M261.26 3227.973l37.444-22.133 37.438 22.133"/><path id="ls1tM" d="M229.04 3228.785a4.338 4.338 0 0 1 4.34-4.335c2.397 0 4.34 1.94 4.34 4.335a4.338 4.338 0 0 1-4.34 4.335 4.338 4.338 0 0 1-4.34-4.335z"/><path id="ls1tN" d="M206.07 3228.785a4.338 4.338 0 0 1 4.34-4.335c2.397 0 4.34 1.94 4.34 4.335a4.338 4.338 0 0 1-4.34 4.335 4.338 4.338 0 0 1-4.34-4.335z"/><path id="ls1tO" d="M206.07 3205.845a4.338 4.338 0 0 1 4.34-4.335c2.397 0 4.34 1.94 4.34 4.335a4.338 4.338 0 0 1-4.34 4.335 4.338 4.338 0 0 1-4.34-4.335z"/><path id="ls1tP" d="M229.04 3205.845a4.338 4.338 0 0 1 4.34-4.335c2.397 0 4.34 1.94 4.34 4.335a4.338 4.338 0 0 1-4.34 4.335 4.338 4.338 0 0 1-4.34-4.335z"/><path id="ls1tQ" d="M317.79 3374.065a4.338 4.338 0 0 1 4.34-4.335c2.397 0 4.34 1.94 4.34 4.335a4.338 4.338 0 0 1-4.34 4.335 4.338 4.338 0 0 1-4.34-4.335z"/><path id="ls1tR" d="M294.81 3374.065a4.338 4.338 0 0 1 4.34-4.335c2.397 0 4.34 1.94 4.34 4.335a4.338 4.338 0 0 1-4.34 4.335 4.338 4.338 0 0 1-4.34-4.335z"/><path id="ls1tS" d="M294.81 3351.125a4.338 4.338 0 0 1 4.34-4.335c2.397 0 4.34 1.94 4.34 4.335a4.338 4.338 0 0 1-4.34 4.335 4.338 4.338 0 0 1-4.34-4.335z"/><path id="ls1tT" d="M317.79 3351.125a4.338 4.338 0 0 1 4.34-4.335c2.397 0 4.34 1.94 4.34 4.335a4.338 4.338 0 0 1-4.34 4.335 4.338 4.338 0 0 1-4.34-4.335z"/><path id="ls1tU" d="M271.84 3374.065a4.338 4.338 0 0 1 4.34-4.335c2.397 0 4.34 1.94 4.34 4.335a4.338 4.338 0 0 1-4.34 4.335 4.338 4.338 0 0 1-4.34-4.335z"/><path id="ls1tV" d="M271.84 3351.125a4.338 4.338 0 0 1 4.34-4.335c2.397 0 4.34 1.94 4.34 4.335a4.338 4.338 0 0 1-4.34 4.335 4.338 4.338 0 0 1-4.34-4.335z"/><path id="ls1tW" d="M146.18 3268.271c0-9.008 7.303-16.311 16.311-16.311h146.597c9.01 0 16.312 7.303 16.312 16.311v33.927c0 9.01-7.303 16.312-16.311 16.312H162.492c-9.01 0-16.312-7.303-16.312-16.312z"/><path id="ls1tX" d="M363.27 3105.67c0-6.24 5.06-11.3 11.3-11.3H482.6c6.24 0 11.3 5.06 11.3 11.3 0 6.24-5.06 11.3-11.3 11.3H374.57c-6.24 0-11.3-5.06-11.3-11.3z"/><path id="ls1tY" d="M159.52 3268.355h96.204"/><path id="ls1tZ" d="M388.46 3105.685h68.73"/><path id="ls1taa" d="M159.52 3283.515h144.942"/><path id="ls1tab" d="M159.52 3293.625h153.476"/><path id="ls1tac" d="M159.52 3303.725h101.686"/><path id="ls1tad" d="M548.911 3355.46a22.94 22.94 0 0 1-14.18 21.195 22.992 22.992 0 0 1-25.034-4.975 22.918 22.918 0 0 1-4.976-25.002 22.97 22.97 0 0 1 21.225-14.158 22.927 22.927 0 0 1 16.257 6.704 22.867 22.867 0 0 1 6.708 16.236z"/><path id="ls1tae" d="M517.13 3351.905c0-4.863 3.947-8.805 8.815-8.805 4.868 0 8.815 3.942 8.815 8.805 0 4.863-3.947 8.805-8.815 8.805-4.868 0-8.815-3.942-8.815-8.805z"/><path id="ls1taf" d="M542.145 3371.71c-8.964 8.928-23.471 8.928-32.435 0a17.435 17.435 0 0 1 16.217-11.02c7.159 0 13.59 4.37 16.218 11.02z"/><path id="ls1tag" d="M547.57 3288.75v-48.47h80.95v48.47z"/><path id="ls1tah" d="M552.01 3281.817l27.224-18.097"/><path id="ls1tai" d="M596.85 3263.72l27.23 18.097"/><path id="ls1taj" d="M624.085 3245.63l-36.04 23.955-36.035-23.955"/><path id="ls1tak" d="M369.55 3105.68a6.345 6.345 0 0 1 6.35-6.34 6.345 6.345 0 0 1 6.35 6.34 6.345 6.345 0 0 1-6.35 6.34 6.345 6.345 0 0 1-6.35-6.34z"/><path id="ls1tal" d="M138.06 3565.595c0-1.13 112.793-2.045 251.93-2.045s251.93.916 251.93 2.045c0 1.13-112.793 2.045-251.93 2.045s-251.93-.916-251.93-2.045z"/><path id="ls1tam" d="M435.77 3281.817l27.219-18.097"/><path id="ls1tan" d="M460.99 3332.122l-9.04-3.425 7.094-48.297-13.974-27.236 18.775-11.444s10.177 26.275 10.688 34.941c.888 15.182-13.543 55.46-13.543 55.46z"/><path id="ls1tao" d="M469.537 3247.095l-25.161 9.351-8.396-29.679 19.753-6.627z"/><path id="ls1tap" d="M327.75 3222.68l2.877 26.397"/><path id="ls1taq" d="M327.03 3216.77l.93 7.785"/><path id="ls1tar" d="M312.48 3199.755c0-8.734 5.782-15.815 12.915-15.815 7.133 0 12.915 7.08 12.915 15.815 0 8.734-5.782 15.815-12.915 15.815-7.133 0-12.915-7.08-12.915-15.815z"/><path id="ls1tas" d="M314.94 3192.615h12.038"/><path id="ls1tat" d="M315.27 3208.185h11.703"/><path id="ls1tau" d="M430.62 3565.59h54.842l-1.962-32.26-15.798 5.31 1.744 11.439s-25.969 6.18-38.826 15.51z"/><path id="ls1tav" d="M483.848 3535.82l.638 13.844-15.048.409-1.478-9.5z"/><path id="ls1taw" d="M393.34 3565.59h51.71l-1.962-32.26-15.803 5.31 1.75 11.439s-22.838 6.18-35.695 15.51z"/><path id="ls1tax" d="M443.443 3535.82l.638 13.844-15.047.409-1.484-9.5z"/><path id="ls1tay" d="M488.29 3542.095l-25.368-1.944-14.197-117.83-12.155-131.401 29.68-2.39s12.028 11.683 14.32 42.445c1.909 25.627 2.728 88.336 2.728 88.336z"/><path id="ls1taz" d="M403.361 3256.52s-25.49 27.453-37.502 23.896c-15.717-4.636-36.949-39.424-36.949-39.424l10.252-5.002 28.85 24.841 26.587-24.283z"/><path id="ls1taA" d="M448.446 3540.609l-25.22 2.066-15.08-127.531s-2.711-43.162 1.144-88.644c2.127-24.836 6.652-33.848 6.652-33.848l34.46-3.032-5.577 126.384z"/><path id="ls1taB" d="M374.52 3248.012l12.761 28.086 15.42-14.55s.649 4.073 4.344 10.673a127.36 127.36 0 0 1 8.917 20.434l50.29-4.136s-3.817-15.4-4.471-26.552c-.74-12.543 1.1-44.951-13.166-49.815-12.336-4.206-15.702.106-32.87 3.451-16.17 3.16-41.225 32.409-41.225 32.409z"/><path id="ls1taC" d="M419.49 3537.03l32.765.018.005 9.319-32.765-.018z"/><path id="ls1taD" d="M459.65 3536.06l32.765.018.005 9.319-32.765-.018z"/><path id="ls1taE" d="M454.768 3177.666c.16 16.355-14.09 29.737-31.828 29.88-16.484.138-30.207-11.22-32.17-25.967-.15-1.12-.229-2.247-.239-3.377-.085-8.619 3.829-16.409 10.15-21.868a33.524 33.524 0 0 1 21.684-8.013c17.733-.143 32.25 12.994 32.403 29.345z"/><path id="ls1taF" d="M424.33 3141.89c0-9.82 7.97-17.78 17.8-17.78 9.83 0 17.8 7.96 17.8 17.78s-7.97 17.78-17.8 17.78c-9.83 0-17.8-7.96-17.8-17.78z"/><path id="ls1taG" d="M395.02 3189.93l-5.71 11.438 5.923.345z"/><path id="ls1taH" d="M415.117 3215.166s-15.058-1.38-18.238-5.618c-8.943-11.938 2.802-43.948 2.802-43.948l34.716 20.822s5.573 28.818 5.477 28.845l-22.258 6.271z"/><path id="ls1taI" d="M393.71 3190.425c0-1.069 1.146-1.935 2.56-1.935 1.414 0 2.56.866 2.56 1.935s-1.146 1.935-2.56 1.935c-1.414 0-2.56-.866-2.56-1.935z"/><path id="ls1taJ" d="M436.75 3189.28c-6.072 7.55-16.957 9.967-26.405 6.531a21.708 21.708 0 0 1-2.218-.924 23.818 23.818 0 0 1-3.419-1.954c-10.363-7.09-12.83-20.216-5.498-29.329a20.19 20.19 0 0 1 2.297-2.41c7.758-6.93 20.381-7.658 29.777-1.248 10.267 7.02 12.761 19.966 5.7 29.068-.09.09-.165.175-.234.266z"/><path id="ls1taK" d="M444.108 3243.063l-33.53 2.273-4.648-67.058 48.69-3.308 3.525 50.904c.622 8.943-5.668 16.621-14.037 17.19z"/><path id="ls1taL" d="M452.544 3329.05l-3.51 95.887-2.344-30.55z"/><path id="ls1taM" d="M405.306 3196.084s-2.76-5.874 1.872-7.228c3.45-1.009 5.434 1.742 6.035 3.494 2.03 5.905-4.632 8.842-5.589 13.834"/><path id="ls1taN" d="M394.99 3205.923s1.648-.064 2.712-2.613"/><path id="ls1taO" d="M341.105 3237.877l-1.548-3.064s-2.658-5.448-4.253-7.525c-2.58-3.377-5.85-.934-5.85-.934s-6.236-3.394-7.789-2.687c-4.286 1.954-3.536 17.747.532 19.239 3.147 1.152 5.099 2.618 9.161 3.659 1.723.44 3.95-.399 5.243-.32"/><path id="ls1taP" d="M385.646 3272.501l-8.906-19.621 4.87 22.468z"/></defs><g><g transform="translate(-138 -3080)"><g><g><use fill="#405fd3" xlink:href="#ls1ta"/></g><g><use fill="#ffc000" xlink:href="#ls1tb"/></g><g><use fill="#fff" fill-opacity="0" stroke="#fff" stroke-miterlimit="50" stroke-width="5.7" xlink:href="#ls1tc"/></g><g><use fill="#fff" fill-opacity="0" stroke="#fff" stroke-miterlimit="50" stroke-width="5.7" xlink:href="#ls1td"/></g><g><use fill="#fff" fill-opacity="0" stroke="#fff" stroke-miterlimit="50" stroke-width="5.7" xlink:href="#ls1te"/></g><g><use fill="#fff" fill-opacity="0" stroke="#fff" stroke-miterlimit="50" stroke-width="5.7" xlink:href="#ls1tf"/></g><g><use fill="#ffc000" xlink:href="#ls1tg"/></g><g><use fill="#ffc000" xlink:href="#ls1th"/></g><g><use fill="#cf3e83" xlink:href="#ls1ti"/></g><g><use fill="#fff" fill-opacity="0" stroke="#fff" stroke-miterlimit="50" stroke-width="5.7" xlink:href="#ls1tj"/></g><g><use fill="#fff" fill-opacity="0" stroke="#fff" stroke-miterlimit="50" stroke-width="5.7" xlink:href="#ls1tk"/></g><g><use fill="#fff" fill-opacity="0" stroke="#fff" stroke-miterlimit="50" stroke-width="5.7" xlink:href="#ls1tl"/></g><g><use fill="#fff" fill-opacity="0" stroke="#fff" stroke-miterlimit="50" stroke-width="5.7" xlink:href="#ls1tm"/></g><g><use fill="#fff" fill-opacity="0" stroke="#fff" stroke-miterlimit="50" stroke-width="5.7" xlink:href="#ls1tn"/></g><g><use fill="#fff" fill-opacity="0" stroke="#fff" stroke-miterlimit="50" stroke-width="5.7" xlink:href="#ls1to"/></g><g><use fill="#fff" fill-opacity="0" stroke="#fff" stroke-miterlimit="50" stroke-width="5.7" xlink:href="#ls1tp"/></g><g><use fill="#fff" fill-opacity="0" stroke="#fff" stroke-miterlimit="50" stroke-width="5.7" xlink:href="#ls1tq"/></g><g><use fill="#6ca1ff" xlink:href="#ls1tr"/></g><g><use fill="#fff" fill-opacity="0" stroke="#fff" stroke-miterlimit="50" stroke-width="5.7" xlink:href="#ls1ts"/></g><g><use fill="#fff" fill-opacity="0" stroke="#fff" stroke-miterlimit="50" stroke-width="5.7" xlink:href="#ls1tt"/></g><g><use fill="#fff" fill-opacity="0" stroke="#fff" stroke-miterlimit="50" stroke-width="5.7" xlink:href="#ls1tu"/></g><g><use fill="#fff" fill-opacity="0" stroke="#fff" stroke-miterlimit="50" stroke-width="5.7" xlink:href="#ls1tv"/></g><g><use fill="#6ca1ff" xlink:href="#ls1tw"/></g><g><use fill="#405fd3" xlink:href="#ls1tx"/></g><g><use fill="#6ca1ff" xlink:href="#ls1ty"/></g><g><use fill="#fff" fill-opacity="0" stroke="#fff" stroke-miterlimit="50" stroke-width="3.8" xlink:href="#ls1tz"/></g><g><use fill="#fff" fill-opacity="0" stroke="#fff" stroke-miterlimit="50" stroke-width="3.8" xlink:href="#ls1tA"/></g><g><use fill="#cf3e83" xlink:href="#ls1tB"/></g><g><use fill="#fff" fill-opacity="0" stroke="#fff" stroke-miterlimit="50" stroke-width="3.8" xlink:href="#ls1tC"/></g><g><use fill="#fff" fill-opacity="0" stroke="#fff" stroke-miterlimit="50" stroke-width="3.8" xlink:href="#ls1tD"/></g><g><use fill="#fff" fill-opacity="0" stroke="#fff" stroke-miterlimit="50" stroke-width="3.8" xlink:href="#ls1tE"/></g><g><use fill="#6ca1ff" xlink:href="#ls1tF"/></g><g><use fill="#fff" fill-opacity="0" stroke="#fff" stroke-miterlimit="50" stroke-width="14.25" xlink:href="#ls1tG"/></g><g><use fill="#fff" fill-opacity="0" stroke="#fff" stroke-miterlimit="50" stroke-width="5.7" xlink:href="#ls1tH"/></g><g><use fill="#fff" fill-opacity="0" stroke="#fff" stroke-miterlimit="50" stroke-width="5.7" xlink:href="#ls1tI"/></g><g><use fill="#fff" fill-opacity="0" stroke="#fff" stroke-miterlimit="50" stroke-width="5.7" xlink:href="#ls1tJ"/></g><g><use fill="#6ca1ff" xlink:href="#ls1tK"/></g><g><use fill="#6ca1ff" xlink:href="#ls1tL"/><use fill="#fff" fill-opacity="0" stroke="#fff" stroke-miterlimit="50" stroke-width="4.75" xlink:href="#ls1tL"/></g><g><use fill="#405fd3" xlink:href="#ls1tM"/></g><g><use fill="#405fd3" xlink:href="#ls1tN"/></g><g><use fill="#405fd3" xlink:href="#ls1tO"/></g><g><use fill="#405fd3" xlink:href="#ls1tP"/></g><g><use fill="#405fd3" xlink:href="#ls1tQ"/></g><g><use fill="#405fd3" xlink:href="#ls1tR"/></g><g><use fill="#405fd3" xlink:href="#ls1tS"/></g><g><use fill="#405fd3" xlink:href="#ls1tT"/></g><g><use fill="#405fd3" xlink:href="#ls1tU"/></g><g><use fill="#405fd3" xlink:href="#ls1tV"/></g><g><use fill="#ffc000" xlink:href="#ls1tW"/></g><g><use fill="#6ca1ff" xlink:href="#ls1tX"/></g><g><use fill="#fff" fill-opacity="0" stroke="#fff" stroke-miterlimit="50" stroke-width="14.25" xlink:href="#ls1tY"/></g><g><use fill="#fff" fill-opacity="0" stroke="#fff" stroke-miterlimit="50" stroke-width="12.35" xlink:href="#ls1tZ"/></g><g><use fill="#fff" fill-opacity="0" stroke="#fff" stroke-miterlimit="50" stroke-width="5.7" xlink:href="#ls1taa"/></g><g><use fill="#fff" fill-opacity="0" stroke="#fff" stroke-miterlimit="50" stroke-width="5.7" xlink:href="#ls1tab"/></g><g><use fill="#fff" fill-opacity="0" stroke="#fff" stroke-miterlimit="50" stroke-width="5.7" xlink:href="#ls1tac"/></g><g><use fill="#405fd3" xlink:href="#ls1tad"/></g><g><use fill="#ffc000" xlink:href="#ls1tae"/></g><g><use fill="#ffc000" xlink:href="#ls1taf"/></g><g><use fill="#ffc000" xlink:href="#ls1tag"/></g><g><use fill="#fff" fill-opacity="0" stroke="#fff" stroke-miterlimit="50" stroke-width="3.8" xlink:href="#ls1tah"/></g><g><use fill="#fff" fill-opacity="0" stroke="#fff" stroke-miterlimit="50" stroke-width="3.8" xlink:href="#ls1tai"/></g><g><use fill="#fff" fill-opacity="0" stroke="#fff" stroke-miterlimit="50" stroke-width="3.8" xlink:href="#ls1taj"/></g><g><use fill="#fff" xlink:href="#ls1tak"/></g><g><use fill="#afb3c6" xlink:href="#ls1tal"/></g><g><use fill="#fff" fill-opacity="0" stroke="#515256" stroke-linecap="round" stroke-miterlimit="50" stroke-width="2.85" xlink:href="#ls1tam"/></g><g><use fill="#e576c6" xlink:href="#ls1tan"/></g><g><use fill="#ff9100" xlink:href="#ls1tao"/></g><g><use fill="#fff" fill-opacity="0" stroke="#1d294f" stroke-linecap="round" stroke-miterlimit="50" stroke-width="7.6" xlink:href="#ls1tap"/></g><g><use fill="#fff" fill-opacity="0" stroke="#1d294f" stroke-linecap="round" stroke-miterlimit="50" stroke-width="4.75" xlink:href="#ls1taq"/></g><g transform="rotate(-3.18 325.5 3200)"><use fill="#ffc000" xlink:href="#ls1tar"/></g><g><use fill="#fff" fill-opacity="0" stroke="#fff" stroke-miterlimit="50" stroke-width="14.25" xlink:href="#ls1tas"/></g><g><use fill="#fff" fill-opacity="0" stroke="#fff" stroke-miterlimit="50" stroke-width="14.25" xlink:href="#ls1tat"/></g><g transform="rotate(-3.18 325.5 3200)"><use fill="#fff" fill-opacity="0" stroke="#1d294f" stroke-linecap="round" stroke-miterlimit="50" stroke-width="7.6" xlink:href="#ls1tar"/></g><g><use fill="#0d0b6d" xlink:href="#ls1tau"/></g><g><use fill="#cf3e83" xlink:href="#ls1tav"/></g><g><use fill="#0d0b6d" xlink:href="#ls1taw"/></g><g><use fill="#cf3e83" xlink:href="#ls1tax"/></g><g><use fill="#2b2a38" xlink:href="#ls1tay"/></g><g><use fill="#e576c6" xlink:href="#ls1taz"/></g><g><use fill="#2b2a38" xlink:href="#ls1taA"/></g><g><use fill="#ffc000" xlink:href="#ls1taB"/></g><g transform="rotate(-1.51 436 3541.5)"><use fill="#2b2a38" xlink:href="#ls1taC"/></g><g transform="rotate(-1.51 476 3540.5)"><use fill="#2b2a38" xlink:href="#ls1taD"/></g><g><use fill="#240040" xlink:href="#ls1taE"/></g><g><use fill="#240040" xlink:href="#ls1taF"/></g><g><use fill="#405fd3" xlink:href="#ls1taG"/></g><g><use fill="#e576c6" xlink:href="#ls1taH"/></g><g transform="rotate(-78.44 396 3190)"><use fill="#0d0b6d" xlink:href="#ls1taI"/></g><g><use fill="#240040" xlink:href="#ls1taJ"/></g><g><use fill="#240040" xlink:href="#ls1taK"/></g><g><use fill="#101016" xlink:href="#ls1taL"/></g><g><use fill="#e576c6" xlink:href="#ls1taM"/></g><g><use fill="#fff" fill-opacity="0" stroke="#1c295e" stroke-miterlimit="50" stroke-width="2.85" xlink:href="#ls1taN"/></g><g><use fill="#e576c6" xlink:href="#ls1taO"/></g><g><use fill="#bc3579" xlink:href="#ls1taP"/></g></g></g></g></svg>