<svg xmlns="http://www.w3.org/2000/svg" xmlns:xlink="http://www.w3.org/1999/xlink" width="228" height="415" viewBox="0 0 228 415"><defs><path id="gq0wa" d="M473 2550.5c0 .828-42.533 1.5-95 1.5s-95-.672-95-1.5c0-.829 42.533-1.5 95-1.5s95 .671 95 1.5"/><path id="gq0wb" d="M399.435 2363.461l-136.341-65.417a5.442 5.442 0 0 1-2.554-7.269l54.744-113.687a5.46 5.46 0 0 1 7.281-2.55l136.341 65.418a5.442 5.442 0 0 1 2.554 7.269l-54.743 113.687a5.46 5.46 0 0 1-7.282 2.55"/><path id="gq0wc" d="M404.288 2347.463L274.1 2285.32c-2.721-1.299-3.867-4.542-2.56-7.245l18.876-38.997c1.308-2.702 4.575-3.84 7.296-2.54L427.9 2298.68c2.722 1.299 3.867 4.542 2.56 7.245l-18.877 38.997c-1.308 2.702-4.574 3.84-7.295 2.54"/><path id="gq0wd" d="M298.183 2288.846l-3.301-1.587a1.555 1.555 0 0 1-.728-2.076l1.587-3.301a1.556 1.556 0 0 1 2.076-.728l3.301 1.587c.774.372 1.1 1.301.728 2.075l-1.587 3.302a1.556 1.556 0 0 1-2.076.728z"/><path id="gq0we" d="M296 2284.05l.968 1.95 6.032-2"/><path id="gq0wf" d="M281 2274l7 3"/><path id="gq0wg" d="M280 2276l7 3"/><path id="gq0wh" d="M280 2279l3 1"/><path id="gq0wi" d="M402.095 2311L287 2256.008l2.905-6.008L405 2304.992z"/><path id="gq0wj" d="M327.067 2288L281 2266.05l2.933-6.05L330 2281.95z"/><path id="gq0wk" d="M344.086 2199L320 2187.186l2.914-6.186L347 2192.815z"/><path id="gq0wl" d="M313.067 2318L267 2296.05l2.933-6.05L316 2311.95z"/><path id="gq0wm" d="M312.315 2255.75l-18.938-9.493c-1.209-.606-1.718-2.12-1.137-3.382l.203-.439c.58-1.26 2.033-1.791 3.242-1.185l18.937 9.492c1.21.606 1.719 2.12 1.138 3.381l-.203.44c-.581 1.26-2.033 1.792-3.242 1.185"/><path id="gq0wn" d="M430.418 2292.46l-130.315-62.537a5.46 5.46 0 0 1-2.562-7.291l13.738-28.534a5.476 5.476 0 0 1 7.303-2.557l130.315 62.536a5.46 5.46 0 0 1 2.562 7.29l-13.739 28.535a5.476 5.476 0 0 1-7.302 2.557"/><path id="gq0wo" d="M324.183 2235.846l-3.301-1.587a1.556 1.556 0 0 1-.728-2.075l1.587-3.302a1.556 1.556 0 0 1 2.075-.728l3.302 1.587c.774.372 1.1 1.301.728 2.075l-1.587 3.302a1.556 1.556 0 0 1-2.076.728z"/><path id="gq0wp" d="M322 2232.05l.968 1.95 6.032-2"/><path id="gq0wq" d="M307 2220l7 3"/><path id="gq0wr" d="M305 2223l7 3"/><path id="gq0ws" d="M304 2226l3 1"/><path id="gq0wt" d="M423.095 2267L308 2212.008l2.905-6.008L426 2260.992z"/><path id="gq0wu" d="M333.315 2212.75l-18.937-9.493c-1.21-.606-1.719-2.12-1.138-3.382l.203-.439c.581-1.26 2.033-1.791 3.242-1.185l18.937 9.492c1.21.607 1.72 2.12 1.138 3.381l-.203.44c-.581 1.26-2.033 1.792-3.242 1.185"/><path id="gq0wv" d="M307.548 2353.827l-15.81-5.794s-12.795 8.153-16.368 7.964c0 0-11.099-11.515-13.37-22.207l6.696-15.68 18.961-7.11 9.642 15.903c-.33-3.32 6.794-10.966 11.784-5.483 6.434 7.07-3.518 15.578-3.518 15.578l8.435 1.95z"/><path id="gq0ww" d="M304.734 2319.724s6.254-8.396-9.039-14.383c-15.293-5.987-22.017 3.751-22.017 3.751s-7.602-9.71-14.82-6.407c-10.284 4.706-4.628 21.247-4.628 21.247s-6.514-7.441-8.904-4.875c-2.39 2.566 7.999 32.367 42.619-.106 0 0-1.037 10.68 9.09 8.032 0 0 1.026-6.193 7.699-7.26"/><path id="gq0wx" d="M287 2296l1.998 7.936 3.31.064 2.692-7.484"/><path id="gq0wy" d="M272 2340l.395 8 3.605-1.485z"/><path id="gq0wz" d="M273.142 2337.74a2 2 0 1 0 3.716-1.48 2 2 0 0 0-3.716 1.48"/><path id="gq0wA" d="M266.142 2340.74a2 2 0 1 0 3.716-1.48 2 2 0 0 0-3.716 1.48"/><path id="gq0wB" d="M292 2347.184l9-7.184-4.089 9z"/><path id="gq0wC" d="M329 2550c9.656-6.843 31.441-11.49 31.441-11.49l-1.13-7.51h11.161l2.528 19z"/><path id="gq0wD" d="M369.076 2529l.924 10.569-9.971.431-1.029-7.245z"/><path id="gq0wE" d="M393 2550c8.883-7.142 26.716-11.677 26.716-11.677l-3.13-7.323h12.191l8.223 19z"/><path id="gq0wF" d="M427.91 2528l5.09 11.3-12.358.7-3.642-7.996z"/><path id="gq0wG" d="M370.05 2392.912l-27.786 56.332a12.292 12.292 0 0 0-1.19 6.776l10.578 76.98 23.15-.05-6.234-74.04 36.998-56.396s10.836-26.128-13.22-41.514"/><path id="gq0wH" d="M375 2388.271l.335 63.959c.018 3.821.96 7.58 2.74 10.942L412.902 2534l20.098-7.803-29.427-68.567 6.805-52.421s6.23-36.448-15.728-45.209"/><path id="gq0wI" d="M310.962 2338.13c-3.716.158-5.717 3.28-6.923 6.773-3.55 10.288 1.876 19.48 18.199 30.037 15.732 10.175 48.636 19.06 48.636 19.06L394 2361.09s-40.983-18.39-58.594-21.628c-8.833-1.623-18.5-1.584-24.444-1.332"/><path id="gq0wJ" d="M407 2348.727L405.496 2359l-47.94-9.748-29.059 7.462L314 2334.57s29.666-4.168 37.533-4.565c7.866-.393 55.467 18.72 55.467 18.72"/><path id="gq0wK" d="M410.85 2360s-.152-.024-4.05-.89c-4.825-1.073 1.579-10.455 1.579-10.455l4.033 1.187s5.11-6.338 6.012-9.622c.904-3.285 1.576 1.104 1.576 1.104s-1.764 13.878-9.15 18.676"/><path id="gq0wL" d="M279 2349s.44-3.213 2-4"/><path id="gq0wM" d="M305 2342.145s6.784-13.375 33.07-12.053l.93 29.49-15.379 4.418z"/><path id="gq0wN" d="M339 2360l-16 2"/><path id="gq0wO" d="M292 2205.979L269.898 2229l-1.898-1.978L290.102 2204z"/><path id="gq0wP" d="M270 2228.793l-3.748 2.176c-.168.098-.319-.053-.221-.221l2.177-3.748z"/><path id="gq0wQ" d="M267 2230.42l-.73.535c-.179.13-.355-.046-.225-.224l.534-.731z"/><path id="gq0wR" d="M289.218 2209l5.782-5.059-2.217-1.941-5.783 5.058z"/><path id="gq0wS" d="M293.057 2204l.943-.942-2.057-2.058-.943.942z"/><path id="gq0wT" d="M281.618 2213L292 2202.618l-.618-.618L281 2212.382z"/><path id="gq0wU" d="M294.032 2204l1.968-1.968-1.032-1.032-1.968 1.968z"/><path id="gq0wV" d="M368.751 2154.38c1.727 2.763-5.83 3.376-13.47 1.67-7.723-1.723-15.281-.068-15.281-1.67 0-1.603 8.054-12.336 13.364-6.814 5.308 5.519 13.984 4.57 15.387 6.814"/><path id="gq0wW" d="M371.952 2158.962c-.175.777-.778 1.212-1.346.972-.568-.24-1.764-1.433-1.589-2.209.176-.776 1.656-.842 2.224-.602.568.24.886 1.063.71 1.84"/><path id="gq0wX" d="M362 2158.164c-8.779 6.597-17.503 11.704-24.886 14.836L325 2156.787c5.073-6.224 12.408-13.19 21.187-19.787"/><path id="gq0wY" d="M358.188 2161c1.988 3.796.2 8.374-3.995 10.225-4.194 1.85-9.205.274-11.193-3.522"/><path id="gq0wZ" d="M376.709 2180l30.291 6.7-.71 3.3-30.29-6.7z"/><path id="gq0waa" d="M406.809 2187l5.191 2.487-6 .513z"/><path id="gq0wab" d="M411.244 2189l2.756 1-3-.058z"/><path id="gq0wac" d="M376 2180.622l-2.385-.622-.615 3.378 2.385.622z"/><path id="gq0wad" d="M373 2179.622l-2.385-.622-.615 3.378 2.385.622z"/><path id="gq0wae" d="M393.418 2173.439l-3.84 1.561-1.578-3.335 6.48-2.635c.294-.12.601.14.5.423l-1.36 3.78a.354.354 0 0 1-.202.206"/><path id="gq0waf" d="M386.582 2172.561l3.84-1.561 1.578 3.335-6.48 2.635c-.294.12-.601-.14-.5-.422l1.36-3.78a.353.353 0 0 1 .202-.207"/></defs><g><g transform="translate(-245 -2137)"><g><use fill="#afb4c8" xlink:href="#gq0wa"/></g><g><use fill="#d7d8d9" xlink:href="#gq0wb"/></g><g><use fill="#fff" xlink:href="#gq0wc"/></g><g><use fill="#fff" fill-opacity="0" stroke="#afbabd" stroke-miterlimit="50" stroke-width="1.4" xlink:href="#gq0wd"/></g><g><use fill="#fff" fill-opacity="0" stroke="#afbabd" stroke-linejoin="round" stroke-miterlimit="50" stroke-width="2.1" xlink:href="#gq0we"/></g><g><use fill="#fff" fill-opacity="0" stroke="#afbabd" stroke-miterlimit="50" stroke-width="2.8" xlink:href="#gq0wf"/></g><g><use fill="#fff" fill-opacity="0" stroke="#afbabd" stroke-miterlimit="50" stroke-width="2.8" xlink:href="#gq0wg"/></g><g><use fill="#fff" fill-opacity="0" stroke="#afbabd" stroke-miterlimit="50" stroke-width="2.8" xlink:href="#gq0wh"/></g><g><use fill="#7b858a" xlink:href="#gq0wi"/></g><g><use fill="#7b858a" xlink:href="#gq0wj"/></g><g><use fill="#7b858a" xlink:href="#gq0wk"/></g><g><use fill="#b7c0c6" xlink:href="#gq0wl"/></g><g><use fill="#49a2ff" xlink:href="#gq0wm"/></g><g><use fill="#fff" xlink:href="#gq0wn"/></g><g><use fill="#fff" fill-opacity="0" stroke="#afbabd" stroke-miterlimit="50" stroke-width="1.4" xlink:href="#gq0wo"/></g><g><use fill="#fff" fill-opacity="0" stroke="#afbabd" stroke-linejoin="round" stroke-miterlimit="50" stroke-width="2.1" xlink:href="#gq0wp"/></g><g><use fill="#fff" fill-opacity="0" stroke="#afbabd" stroke-miterlimit="50" stroke-width="2.8" xlink:href="#gq0wq"/></g><g><use fill="#fff" fill-opacity="0" stroke="#afbabd" stroke-miterlimit="50" stroke-width="2.8" xlink:href="#gq0wr"/></g><g><use fill="#fff" fill-opacity="0" stroke="#afbabd" stroke-miterlimit="50" stroke-width="2.8" xlink:href="#gq0ws"/></g><g><use fill="#7b858a" xlink:href="#gq0wt"/></g><g><use fill="#49a2ff" xlink:href="#gq0wu"/></g><g><use fill="#ff77ca" xlink:href="#gq0wv"/></g><g><use fill="#0b096f" xlink:href="#gq0ww"/></g><g><use fill="#fff" fill-opacity="0" stroke="#001f68" stroke-miterlimit="50" stroke-width="6.3" xlink:href="#gq0wx"/></g><g><use fill="#285fd7" xlink:href="#gq0wy"/></g><g><use fill="#0b096f" xlink:href="#gq0wz"/></g><g><use fill="#0b096f" xlink:href="#gq0wA"/></g><g><use fill="#ef3c86" xlink:href="#gq0wB"/></g><g><use fill="#0b096f" xlink:href="#gq0wC"/></g><g><use fill="#ef3c86" xlink:href="#gq0wD"/></g><g><use fill="#0b096f" xlink:href="#gq0wE"/></g><g><use fill="#ef3c86" xlink:href="#gq0wF"/></g><g><use fill="#0f0f12" xlink:href="#gq0wG"/></g><g><use fill="#32323b" xlink:href="#gq0wH"/></g><g><use fill="#ffc100" xlink:href="#gq0wI"/></g><g><use fill="#ff77ca" xlink:href="#gq0wJ"/></g><g><use fill="#ff77ca" xlink:href="#gq0wK"/></g><g><use fill="#fff" fill-opacity="0" stroke="#101049" stroke-miterlimit="50" stroke-width="2.1" xlink:href="#gq0wL"/></g><g><use fill="#ffc100" xlink:href="#gq0wM"/></g><g><use fill="#fff" fill-opacity="0" stroke="#f38c01" stroke-miterlimit="50" stroke-width="3.5" xlink:href="#gq0wN"/></g><g><use fill="#49a2ff" xlink:href="#gq0wO"/></g><g><use fill="#49a2ff" xlink:href="#gq0wP"/></g><g><use fill="#2f373b" xlink:href="#gq0wQ"/></g><g><use fill="#285fd7" xlink:href="#gq0wR"/></g><g><use fill="#285fd7" xlink:href="#gq0wS"/></g><g><use fill="#49a2ff" xlink:href="#gq0wT"/></g><g><use fill="#2f373b" xlink:href="#gq0wU"/></g><g><use fill="#2f373b" xlink:href="#gq0wV"/></g><g><use fill="#2f373b" xlink:href="#gq0wW"/></g><g><use fill="#ff77ca" xlink:href="#gq0wX"/></g><g><use fill="#fff" fill-opacity="0" stroke="#ff77ca" stroke-miterlimit="50" stroke-width="4.9" xlink:href="#gq0wY"/></g><g><use fill="#ffc100" xlink:href="#gq0wZ"/></g><g><use fill="#e0c5a7" xlink:href="#gq0waa"/></g><g><use fill="#2f373b" xlink:href="#gq0wab"/></g><g><use fill="#7b858a" xlink:href="#gq0wac"/></g><g><use fill="#ff77ca" xlink:href="#gq0wad"/></g><g><use fill="#ff77ca" xlink:href="#gq0wae"/></g><g><use fill="#49a2ff" xlink:href="#gq0waf"/></g></g></g></svg>