<svg xmlns="http://www.w3.org/2000/svg" xmlns:xlink="http://www.w3.org/1999/xlink" width="538" height="467" viewBox="0 0 538 467"><defs><path id="y64ha" d="M490.369 1267.175c-34.064 2.05-17.661 56.117-49.751 71.079-32.095 14.962-44.052 7.403-60.027 34.861-17.5 30.075 29.561 51.696 21.829 79.205-1.087 3.865-1.696 7.253-1.946 10.302v.006c-1.574 18.644 9.906 24.414 4.324 46.73-2.096 8.376-11.491 16.3-20.339 26.426-8.43 9.652-18.19 21.335-17.012 37.272 1.079 14.582 14.13 25.46 36.458 37.294v.006c8.57 4.543 18.282 8.803 28.72 12.546 60.238 21.621 144.595 26.086 173.132-30.652 47.118-93.678-74.656-88.013-66.68-134.548 3.254-18.967 47.71-24.094 48.565-41.522 1.812-37.1-44.674-40.842-46.935-69.012-2.211-27.466-3.504-80.102-46.915-80.098-1.111 0-2.256.035-3.423.105z"/><path id="y64hd" d="M348.81 1647.391h300.401V1222.39H348.81z"/><path id="y64he" d="M418.615 1465.165l41.446-266.015c18.824 3.111 33.43 45.456 26.607 75.875-3.975 17.724-12.22 17.135-14.113 23.802-2.943 10.36 13.886 14.591 10.361 28.304-4.4 17.12-25.86 11.325-28.913 27.413-3.054 16.089 28.312 41.212 16.114 62.214-8.855 15.248-26.844 2.882-42.548 12.6-15.703 9.72.483 31.342-19.003 31.385-4.927.011 14.245 6.307 10.049 4.422"/><path id="y64hf" d="M620.207 1385.611l-46.459 83.858c-30.622-10.752-50.854-24.558-48.42-31.896 5.939-17.932 33.315-7.937 38.218-16.57 7.782-13.69-35.925-27.606-30.803-44.54 5.128-16.932 34.828-5.739 43.793-20.097 8.964-14.359 37.132 25.692 43.671 29.245"/><path id="y64hg" d="M427.924 1490.53c-21.265 19.245-49.38 1.72-61.654-11.545l149.388-167.975c6.814 13.192 9.21 36.16-3.113 52.263-7.87 10.284-29.44 7.03-35.55 21.203-6.107 14.173 19.127 25.773 9.13 43.515-6.64 11.787-50.027 19.243-53.798 22.683-14.399 13.125 13.265 23.867-4.403 39.856"/><path id="y64hh" d="M697.61 1582.934l-198.228.86c-11.315-11.875-37.662-41.612-27.055-50.398 6.976-5.779 27.89 12.822 33.535 7.24 5.646-5.578-31.432-40.348-22.018-45.25 16.593-8.635 69.98 53.343 76.87 48.355 7.246-5.246-26.8-41.691-14.805-45.552 13.968-4.494 50.95 51.24 61.633 45.552 5.598-2.982-5.269-21.154 2.809-24.259 14.06-5.411 37.52 47.071 47.495 42.396 4.716-2.215-.59-9.799 6.483-11.686 8.644-2.302 26.055 21.974 33.28 32.742"/><path id="y64hi" d="M520.25 1605.41l10.191 14.056"/><path id="y64hj" d="M513.23 1615.53l7.504 3.934"/><path id="y64hk" d="M534.61 1607.69l3.753 11.777"/><path id="y64hl" d="M547.002 1612.28l-.682 7.188"/><path id="y64hm" d="M435.64 1503.89l4.585 9.087"/><path id="y64hn" d="M447.12 1494.22l1.676 18.763"/><path id="y64ho" d="M458.632 1500.76l-2.502 12.217"/><path id="y64hb" d="M204.923 1408.39c-76.826 3.19-41.487 60.54-55.824 80.533-15.01 20.93-96.48 23.977-60.952 84.516 27.66 47.124 102.1 36.059 117.802 52.245 15.698 16.187-6.746 39.442 26.329 59.48 12.29 7.447 26.196 6.97 41.133 2.136 9.299-3.007 18.992-7.702 28.947-13.223a415.827 415.827 0 0 0 8.5-4.855c36.97-21.675 40.528-72.37 32.526-89.123-3.75-7.852-8.595-13.934-13.96-18.945-14.67-13.695-33.226-19.399-43.945-31.474-6.187-6.957-9.766-16.041-8.496-29.998 4.903-53.8-35.717-91.335-70.13-91.332-.644 0-1.29.013-1.93.04z"/><path id="y64hq" d="M29.08 1711.568h353.905V1386.14H29.08z"/><path id="y64hr" d="M331.104 1584.913c0 6.286-5.097 11.382-11.382 11.382-6.286 0-11.382-5.096-11.382-11.382 0-6.287 5.096-11.383 11.382-11.383 6.285 0 11.382 5.096 11.382 11.383"/><path id="y64hs" d="M324.38 1648.563c0-43.052 34.898-77.953 77.947-77.953 43.05 0 77.947 34.9 77.947 77.953 0 43.052-34.898 77.952-77.947 77.952s-77.947-34.9-77.947-77.952"/><path id="y64ht" d="M225.486 1441.467c-2.913 0-5.274 5.796-5.274 12.947 0-7.15-2.36-12.947-5.272-12.947 2.912 0 5.272-5.797 5.272-12.947 0 7.15 2.36 12.947 5.274 12.947"/><path id="y64hu" d="M182.248 1495.647c-4.402 0-7.97 8.76-7.97 19.566 0-10.806-3.567-19.566-7.968-19.566 4.4 0 7.968-8.76 7.968-19.567 0 10.806 3.568 19.567 7.97 19.567"/><path id="y64hv" d="M240.098 1634.468c-2.767 0-5.01 5.507-5.01 12.3 0-6.793-2.242-12.3-5.008-12.3 2.766 0 5.008-5.506 5.008-12.298 0 6.792 2.243 12.298 5.01 12.298"/><path id="y64hw" d="M271.509 1555.185c-3.78 0-6.845 7.524-6.845 16.805 0-9.28-3.064-16.805-6.844-16.805 3.78 0 6.844-7.524 6.844-16.805 0 9.28 3.064 16.805 6.845 16.805"/><path id="y64hx" d="M152.13 1553.15a55.101 55.101 0 0 1 4.739 9.214 54.145 54.145 0 0 1 2.418 7.623c25.996 2.787 43.113 7.538 43.113 12.931 0 5.394-17.117 10.146-43.113 12.932-15.392 1.65-33.894 2.613-53.798 2.613-19.904 0-38.407-.963-53.793-2.613-25.995-2.786-43.114-7.538-43.114-12.932 0-5.393 17.119-10.144 43.114-12.93a54.145 54.145 0 0 1 2.418-7.624 55.104 55.104 0 0 1 4.74-9.214c-50.13 4.529-85.794 16.145-85.794 29.768 0 13.619 35.663 25.24 85.794 29.77 14.504 1.308 30.22 2.028 46.635 2.028 16.414 0 32.136-.72 46.64-2.029 50.13-4.528 85.794-16.15 85.794-29.769 0-13.618-35.663-25.24-85.793-29.768"/><path id="y64hy" d="M156.865 1562.36a54.161 54.161 0 0 1 2.419 7.623c25.995 2.787 43.113 7.537 43.113 12.932 0 5.394-17.118 10.144-43.113 12.931-15.392 1.65-33.894 2.613-53.799 2.613-19.903 0-38.406-.963-53.792-2.613-25.996-2.787-43.114-7.537-43.114-12.931 0-5.395 17.118-10.145 43.114-12.932a54.16 54.16 0 0 1 2.418-7.623c-38.947 3.717-65.771 11.525-65.771 20.555 0 9.025 26.824 16.832 65.771 20.549 15.511 1.476 32.948 2.31 51.374 2.31 18.427 0 35.864-.834 51.38-2.31 38.948-3.717 65.771-11.524 65.771-20.55 0-9.03-26.823-16.837-65.77-20.554"/><path id="y64hz" d="M160.812 1582.918c0 4.452-.525 8.786-1.525 12.931-15.392 1.65-33.894 2.613-53.799 2.613-19.904 0-38.406-.963-53.792-2.613a55.02 55.02 0 0 1-1.526-12.931c0-4.453.524-8.787 1.526-12.932a54.087 54.087 0 0 1 2.418-7.623 55.08 55.08 0 0 1 4.74-9.214c9.824-15.371 27.039-25.559 46.634-25.559 19.596 0 36.816 10.188 46.641 25.56a55.08 55.08 0 0 1 4.74 9.213 54.087 54.087 0 0 1 2.418 7.623 55.049 55.049 0 0 1 1.525 12.932"/><path id="y64hA" d="M261.979 1404.08s-9.231 22.123-10.948 34.894c-.026 16.877.644 56.562.644 56.562l14.262-8.21 5.514-47.111 13.497-30.565z"/><path id="y64hB" d="M235.176 1497.23l-9.056 9.815 3.019 14.07 10.682 2.329"/><path id="y64hC" d="M427.81 1622.092c-9.852-3.747-19.621-8.402-27.71-12.95l-6.54-54.768-11.469-17.579-31.678-48.56-20.73 73.048-12.543 44.179-12.783 67.89c-9.386 5.532-18.728 10.176-27.497 13.189 1.083-19.435 3.62-64.073 4.646-84.954 1.45-29.54 4.14-53.69 6.734-71.835 3.538-24.728 6.913-38.314 6.787-39.237 0 0 85.013-48.348 90.805-45.613 1.7.8 6.018 8.166 11.376 18.662v.006c12.919 25.338 31.897 68.956 34.78 82.82 3.365 16.2-2.09 60.203-4.177 75.702"/><path id="y64hD" d="M386.032 1452.718l-6.933 3.53-1.256.64-23.562 12.002-1.267.645-108.668 55.353c-4.003 2.04-8.655-.962-8.801-5.67l-.712-23.1c-.078-2.584 1.288-4.98 3.485-6.098l9.419-4.797 122.77-62.53c2.867-1.462 6.31-.355 7.938 2.546l10.214 18.262c.434.784.701 1.618.81 2.463.346 2.707-.952 5.492-3.437 6.754"/><path id="y64hE" d="M288.57 1249.039c0 13.48 10.875 24.408 24.29 24.408 13.414 0 24.288-10.928 24.288-24.408s-10.874-24.409-24.289-24.409c-13.414 0-24.289 10.928-24.289 24.409"/><path id="y64hF" d="M296.75 1304.383c0 .288 0 .568.007.855.43 26.157 20.513 47.214 45.23 47.214 20.019 0 36.993-13.8 42.96-32.942a51.092 51.092 0 0 0 2.279-14.272c.006-.287.006-.567.006-.855 0-11.352.168-24.248-10.235-35.133-7.084-7.412-16.404-10.712-25.815-8.742-8.532 1.787-7.834 1.273-10.481-.694-21.611-16.058-43.951 18.029-43.951 44.57"/><path id="y64hG" d="M296.75 1368.562h90.482v-63.332H296.75z"/><path id="y64hH" d="M258.5 1412.99l16.544 19.074 3.486-7.896-18.224-15.928z"/><path id="y64hI" d="M420.941 1381.578l-25.118 37-13.526-20.513s-.727 11.862-3.003 19.1c-4.51 14.328-15.09 17.313-17.67 30.535-2.983 15.307-28.047 6.503-58.055 18.412 0 0 5.797-9.06 1.209-30.793-2.435-11.528-8.425-21.889-8.2-23.064l-8.409 21.952-34.189-28.439s25.394-42.761 38.265-48.402c13.165-5.772 25.74-9.613 45.016-9.555 18.146.058 27.35.27 34.414 2.825 17.388 6.297 49.266 30.942 49.266 30.942"/><path id="y64hJ" d="M345.368 1382.244c-3.066 0-8.962-.617-14.007-4.751-4.77-3.909-7.363-9.743-7.707-17.339-.35-7.783 3.205-11.776 3.356-11.942l.301-.33.445-.029s7.21-.456 11.72-.752c3.305-.216 7.005-.261 9.525-.261 1.728 0 2.864.022 2.864.022l.328.005.273.186c.205.14 5.05 3.533 5.973 11.87.872 7.887-.867 15.134-4.653 19.384-2.294 2.576-5.204 3.937-8.418 3.937"/><path id="y64hK" d="M348.998 1347.954c1.715 0 2.843.02 2.843.02s4.617 3.15 5.494 11.073c1.369 12.373-3.813 22.087-11.97 22.087-8.735 0-19.885-4.993-20.61-21.029-.334-7.41 3.067-11.14 3.067-11.14s7.212-.456 11.722-.753c3.289-.214 6.981-.258 9.454-.258m0-2.224c-2.538 0-6.263.046-9.597.263-4.51.297-11.718.753-11.718.753l-.89.056-.603.66c-.164.18-4.017 4.506-3.645 12.744.353 7.815 3.16 14.09 8.113 18.15 3.936 3.225 9.158 5.001 14.706 5.001 3.537 0 6.733-1.489 9.242-4.306 4.052-4.55 5.848-11.93 4.928-20.25-.978-8.84-6.228-12.515-6.45-12.666l-.545-.371-.657-.012c-.047-.001-1.168-.022-2.884-.022"/><path id="y64hL" d="M331.344 1324.644c2.458 3.96 1.442 9.17.032 12.213-.476 1.047-3.574 9.816-4.025 10.213-1.75 1.538 19.642 10.947 19.642 10.947l1.45-17.709c6.204.37 13.489.05 17.492-2.616 11.928-7.947 12.674-35.561 12.481-36.942l-9.977-11.25s-15.06-7.016-17.357-4.048c-4.204 5.437-14.057 29.774-21.16 26.985 0 0 .907-7.57-5.382-7.57-4.686 0-5.96 3.774-5.96 5.956 0 7.365 9.462 8.487 12.764 13.82"/><path id="y64hM" d="M364.165 1315.94l4.474 10.947-5.209-.113z"/><path id="y64hN" d="M359.387 1316.408c-.115 2.185-1.396 3.887-2.863 3.8-1.465-.088-2.56-1.93-2.446-4.116.115-2.185 1.397-3.886 2.863-3.799 1.466.087 2.56 1.93 2.446 4.115"/><path id="y64hO" d="M373.157 1316.078c-.115 2.185-1.396 3.887-2.862 3.8-1.466-.087-2.562-1.93-2.447-4.115.115-2.186 1.398-3.887 2.863-3.8 1.466.087 2.56 1.93 2.446 4.115"/><path id="y64hP" d="M365.03 1289.37c0 3.022.502 5.93 1.422 8.623.123.335.245.684.387 1.02a25.7 25.7 0 0 0 3.502 6.216c3.854 5.026 9.506 8.432 15.91 9.123.329.034.65.06.98.075v-9.198h-.007c.006-.288.006-.568.006-.855 0-11.352-3.701-21.788-9.9-30.014a46.58 46.58 0 0 0-3.714-4.35c-2.999 2.633-5.374 6.038-6.861 9.936a26.293 26.293 0 0 0-1.725 9.424"/><path id="y64hQ" d="M329.92 1288.79c0 6.57 5.916 12.107 14 13.805.64.138 1.29.25 1.958.332a24.56 24.56 0 0 0 3.3.216c10.637 0 19.26-6.425 19.26-14.353 0-.763-.08-1.511-.237-2.239-1.442-6.868-9.407-12.121-19.022-12.121-10.536 0-19.09 6.307-19.253 14.13-.006.078-.006.154-.006.23"/><path id="y64hR" d="M363.522 1330.84s-3.396 1.096-6.792-2.71"/><path id="y64hS" d="M313.319 1375.852h19.49v-46.412H296.75v29.762c0 9.196 7.418 16.65 16.569 16.65"/><path id="y64hT" d="M348.45 1340.31s-7.848.221-11.19-1.62l10.764 6.814z"/><path id="y64hU" d="M389.473 1445.964l-23.572 12.008-108.67 55.353c-4.002 2.04-8.653-.962-8.8-5.67l-.691-22.432 122.771-62.53c2.867-1.462 6.31-.355 7.937 2.546l10.214 18.262c.434.784.702 1.618.811 2.463"/><path id="y64hV" d="M411.378 1473.655l-5.566 5.915c-1.903 2.018-4.984 2.018-6.881 0l-9.748-10.357-.808-.856-16.402-17.434c-1.897-2.018-1.897-5.287 0-7.305l5.565-5.915c1.903-2.017 4.98-2.017 6.877 0l17.127 18.19 1.006 1.067 7.341 7.8 1.489 1.584c1.897 2.018 1.897 5.293 0 7.31"/><path id="y64hW" d="M230.806 1516.064c0 6.298-5.081 11.403-11.348 11.403s-11.348-5.105-11.348-11.403 5.08-11.404 11.348-11.404c6.267 0 11.348 5.106 11.348 11.404"/><path id="y64hX" d="M258.77 1524.413c-1.705 0-3.1-1.401-3.1-3.115v-9.444c0-1.713 1.395-3.114 3.1-3.114s3.1 1.401 3.1 3.114v9.444c0 1.714-1.395 3.115-3.1 3.115"/><path id="y64hY" d="M266.378 1520.377c-1.594 0-2.898-1.31-2.898-2.913v-16.592c0-1.601 1.304-2.912 2.898-2.912s2.898 1.31 2.898 2.912v16.592c0 1.603-1.304 2.913-2.898 2.913"/><path id="y64hZ" d="M272.168 1517.477c-1.594 0-2.898-1.31-2.898-2.913v-17.512c0-1.602 1.304-2.912 2.898-2.912 1.593 0 2.898 1.31 2.898 2.912v17.512c0 1.603-1.305 2.913-2.898 2.913"/><path id="y64haa" d="M277.653 1513.853a2.597 2.597 0 0 1-2.583-2.595v-11.702a2.597 2.597 0 0 1 2.583-2.596 2.597 2.597 0 0 1 2.582 2.596v11.702a2.597 2.597 0 0 1-2.582 2.595"/><path id="y64hab" d="M379.101 1456.242l-1.256.64-23.562 12.002a11.98 11.98 0 0 1-.873-4.486c0-3.597 1.668-6.888 4.62-8.395l9.277-4.72c4.16-2.118 9.335.095 11.794 4.96"/><path id="y64hac" d="M375.857 1467.45l-8.192 4.173c-3.803 1.936-8.363.228-10.18-3.816-1.812-4.033-.207-8.864 3.586-10.796l8.193-4.173c3.799-1.935 8.355-.23 10.174 3.807 1.82 4.034.216 8.87-3.581 10.805"/><path id="y64had" d="M370.42 1465.98l-3.894 1.984c-2.08 1.059-4.575.124-5.568-2.087-.992-2.207-.114-4.85 1.96-5.907l3.896-1.983c2.078-1.059 4.57-.127 5.566 2.081.995 2.207.118 4.854-1.96 5.912"/><path id="y64hae" d="M437.167 1420.305l-26.079 33.588-8.345 15.533s-11.026 6.838-13.27 5.07c-1.612-1.262-1.272-2.68-1.272-2.68s-1.774.912-3.25-.256c-1.218-.967-.868-2.99-.868-2.99s-2.098.956-3.48-.8c-.884-1.13-.564-2.475-.292-3.22 1.025-2.807 5.31-8.728 5.31-8.728l-14.865 9.963s-.644-4.409 0-5.882c1.58-3.586 10.413-9.895 11.46-10.752 1.046-.856 17.36-3.39 17.36-3.39l17.263-32.216-10.979-9.79 12.42-18.255 20.53 17.555c3.485 4.191 3.49 11.057-1.643 17.25"/><path id="y64haf" d="M416.839 1413.545l-10.979-9.79 12.42-18.255z"/><path id="y64hag" d="M384.08 1468.57l6.478-7.87"/><path id="y64hah" d="M388.2 1471.812l8.424-6.042"/><path id="y64hai" d="M275.294 1499.7l.067 11.922"/><path id="y64haj" d="M269.397 1501.04v13.359"/><path id="y64hak" d="M383.939 1400.562l-1.646-2.497s-.194-7.068-2.543-12.565l1.526.818c2.164 4.743 2.508 12.554 2.663 14.244"/><path id="y64hal" d="M347.82 1347.951s.969-.063 4.13.024c3.13.086 3.765.136 3.765.136l-2.155-5.631-5.381 1.079z"/><path id="y64ham" d="M296.57 1412.255l2.828-8.175.935 17.406z"/><clipPath id="y64hc"><use xlink:href="#y64ha"/></clipPath><clipPath id="y64hp"><use xlink:href="#y64hb"/></clipPath></defs><g><g transform="translate(-79 -1224)"><g><g/><g clip-path="url(#y64hc)"><use fill="#006b59" xlink:href="#y64hd"/></g><g clip-path="url(#y64hc)"><use fill="#cc5140" xlink:href="#y64he"/></g><g clip-path="url(#y64hc)"><use fill="#cc5140" xlink:href="#y64hf"/></g><g clip-path="url(#y64hc)"><use fill="#00dec3" xlink:href="#y64hg"/></g><g clip-path="url(#y64hc)"><use fill="#ffae1b" xlink:href="#y64hh"/></g><g clip-path="url(#y64hc)"><use fill="#fff" fill-opacity="0" stroke="#00dec3" stroke-miterlimit="50" stroke-width="4.9" xlink:href="#y64hi"/></g><g clip-path="url(#y64hc)"><use fill="#fff" fill-opacity="0" stroke="#00dec3" stroke-miterlimit="50" stroke-width="4.9" xlink:href="#y64hj"/></g><g clip-path="url(#y64hc)"><use fill="#fff" fill-opacity="0" stroke="#00dec3" stroke-miterlimit="50" stroke-width="4.9" xlink:href="#y64hk"/></g><g clip-path="url(#y64hc)"><use fill="#fff" fill-opacity="0" stroke="#00dec3" stroke-miterlimit="50" stroke-width="4.9" xlink:href="#y64hl"/></g><g clip-path="url(#y64hc)"><use fill="#fff" fill-opacity="0" stroke="#cc5140" stroke-miterlimit="50" stroke-width="4.9" xlink:href="#y64hm"/></g><g clip-path="url(#y64hc)"><use fill="#fff" fill-opacity="0" stroke="#cc5140" stroke-miterlimit="50" stroke-width="4.9" xlink:href="#y64hn"/></g><g clip-path="url(#y64hc)"><use fill="#fff" fill-opacity="0" stroke="#cc5140" stroke-miterlimit="50" stroke-width="4.9" xlink:href="#y64ho"/></g></g><g><g/><g clip-path="url(#y64hp)"><use fill="#005796" xlink:href="#y64hq"/></g><g clip-path="url(#y64hp)"><use fill="#0080e7" xlink:href="#y64hr"/></g><g clip-path="url(#y64hp)"><use fill="#0080e7" xlink:href="#y64hs"/></g><g clip-path="url(#y64hp)"><use fill="#efcbe1" xlink:href="#y64ht"/></g><g clip-path="url(#y64hp)"><use fill="#efcbe1" xlink:href="#y64hu"/></g><g clip-path="url(#y64hp)"><use fill="#efcbe1" xlink:href="#y64hv"/></g><g clip-path="url(#y64hp)"><use fill="#efcbe1" xlink:href="#y64hw"/></g><g clip-path="url(#y64hp)"><use fill="#f38c01" xlink:href="#y64hx"/></g><g clip-path="url(#y64hp)"><use fill="#ffc100" xlink:href="#y64hy"/></g><g clip-path="url(#y64hp)"><use fill="#0080e7" xlink:href="#y64hz"/></g></g><g><g><use fill="#ff77ca" xlink:href="#y64hA"/></g><g><use fill="#6b6973" xlink:href="#y64hB"/></g><g><use fill="#272636" xlink:href="#y64hC"/></g><g><use fill="#dbdbe1" xlink:href="#y64hD"/></g><g><use fill="#25003f" xlink:href="#y64hE"/></g><g><use fill="#25003f" xlink:href="#y64hF"/></g><g><use fill="#25003f" xlink:href="#y64hG"/></g><g><use fill="#da327c" xlink:href="#y64hH"/></g><g><use fill="#49a2ff" xlink:href="#y64hI"/></g><g><use fill="#ff77ca" xlink:href="#y64hJ"/></g><g><use fill="#2850e0" xlink:href="#y64hK"/></g><g><use fill="#ff77ca" xlink:href="#y64hL"/></g><g><use fill="#285fd7" xlink:href="#y64hM"/></g><g><use fill="#0b096f" xlink:href="#y64hN"/></g><g><use fill="#0b096f" xlink:href="#y64hO"/></g><g><use fill="#25003f" xlink:href="#y64hP"/></g><g><use fill="#25003f" xlink:href="#y64hQ"/></g><g><use fill="#fff" fill-opacity="0" stroke="#0c245f" stroke-miterlimit="50" stroke-width="2.1" xlink:href="#y64hR"/></g><g><use fill="#25003f" xlink:href="#y64hS"/></g><g><use fill="#ef3c86" xlink:href="#y64hT"/></g><g><use fill="#c9c9cf" xlink:href="#y64hU"/></g><g><use fill="#c9c9cf" xlink:href="#y64hV"/></g><g><use fill="#ff00c8" xlink:href="#y64hW"/></g><g><use fill="#ff77ca" xlink:href="#y64hX"/></g><g><use fill="#ff77ca" xlink:href="#y64hY"/></g><g><use fill="#ff77ca" xlink:href="#y64hZ"/></g><g><use fill="#ff77ca" xlink:href="#y64haa"/></g><g><use fill="#a7a7af" xlink:href="#y64hab"/></g><g><use fill="#565460" xlink:href="#y64hac"/></g><g><use fill="#272636" xlink:href="#y64had"/></g><g><use fill="#ff77ca" xlink:href="#y64hae"/></g><g><use fill="#da327c" xlink:href="#y64haf"/></g><g><g><use fill="#d4d2dc" xlink:href="#y64hag"/></g><g><use fill="#fff" fill-opacity="0" stroke="#db1a89" stroke-linecap="round" stroke-miterlimit="50" stroke-width="1.4" xlink:href="#y64hag"/></g></g><g><g><use fill="#d4d2dc" xlink:href="#y64hah"/></g><g><use fill="#fff" fill-opacity="0" stroke="#db1a89" stroke-linecap="round" stroke-miterlimit="50" stroke-width="1.4" xlink:href="#y64hah"/></g></g><g><g><use fill="#d4d2dc" xlink:href="#y64hai"/></g><g><use fill="#fff" fill-opacity="0" stroke="#db1a89" stroke-linecap="round" stroke-miterlimit="50" stroke-width="1.4" xlink:href="#y64hai"/></g></g><g><g><use fill="#d4d2dc" xlink:href="#y64haj"/></g><g><use fill="#fff" fill-opacity="0" stroke="#db1a89" stroke-linecap="round" stroke-miterlimit="50" stroke-width="1.4" xlink:href="#y64haj"/></g></g><g><use fill="#285fd7" xlink:href="#y64hak"/></g><g><use fill="#25003f" xlink:href="#y64hal"/></g><g><use fill="#285fd7" xlink:href="#y64ham"/></g></g></g></g></svg>