<svg xmlns="http://www.w3.org/2000/svg" xmlns:xlink="http://www.w3.org/1999/xlink" width="714" height="399" viewBox="0 0 714 399"><defs><path id="lc5fa" d="M793.02 2121.365c0 1.14 159.949 2.065 357.255 2.065 197.307 0 357.255-.925 357.255-2.065s-159.948-2.065-357.255-2.065c-197.306 0-357.255.924-357.255 2.065"/><path id="lc5fb" d="M937.22 2120.82h10.36V1946h-10.36z"/><path id="lc5fc" d="M926.86 2120.82h10.36V1946h-10.36z"/><path id="lc5fd" d="M1018.58 2120.82h10.36v-190.29h-10.36z"/><path id="lc5fe" d="M1008.22 2120.82h10.36v-190.29h-10.36z"/><path id="lc5ff" d="M936.9 1972.763h81.674v-42.183H936.9z"/><path id="lc5fg" d="M926.54 1947.45h102.392v-16.92H926.54z"/><path id="lc5fh" d="M942.707 1996.99h-7.188l-30.769 123.84h7.188z"/><path id="lc5fi" d="M925.92 1800.474l1.25 70.67 81.06-1.456-1.25-70.668z"/><path id="lc5fj" d="M1095.372 1858.56h69.476l-16.301 53.753h-69.477z"/><path id="lc5fk" d="M1159.96 1862.02l-13.917 45.896h-62.173l13.917-45.896z"/><path id="lc5fl" d="M1151.428 1867.21l-.663 2.195h-51.035l.663-2.195z"/><path id="lc5fm" d="M1144.638 1871.68l-.662 2.194h-45.466l.663-2.194z"/><path id="lc5fn" d="M1148.608 1876.15l-.663 2.194h-51.035l.663-2.194z"/><path id="lc5fo" d="M1145.357 1880.62l-.663 2.195h-49.364l.663-2.195z"/><path id="lc5fp" d="M1129.894 1885.09l-.663 2.195h-35.441l.663-2.195z"/><path id="lc5fq" d="M1028.27 1916.74h69.476v-4.42h-69.476z"/><path id="lc5fr" d="M1097.75 1916.74h50.778v-4.42h-50.778z"/><path id="lc5fs" d="M1164.792 1858.56h4.269l-16.302 53.753h-4.269z"/><path id="lc5ft" d="M1010.303 1796.942c.414 23.473-18.14 42.84-41.443 43.258-23.303.417-42.53-18.273-42.943-41.746-.415-23.473 18.14-42.84 41.442-43.257 23.303-.418 42.529 18.273 42.944 41.745"/><path id="lc5fu" d="M958.79 1826.42l-2.977 16.822-1.283.488s5.542 17.098 17.852 13.984c8.693-2.199 4.741-7.46 4.741-7.46l-2.192-1.889 1.668-16.906"/><path id="lc5fv" d="M917.414 1749.038c.222 12.602 10.544 22.637 23.055 22.413 12.512-.224 22.473-10.622 22.25-23.225-.222-12.602-10.544-22.636-23.055-22.412-12.511.224-22.473 10.622-22.25 23.224"/><path id="lc5fw" d="M958.563 1819c2.359 3.661 1.496 8.55.232 11.418-.427.986-3.171 9.236-3.585 9.615-1.608 1.468 18.5 9.906 18.5 9.906l1.058-16.58c5.794.242 12.581-.178 16.272-2.738 10.992-7.628 11.233-33.456 11.03-34.744l-9.49-10.35s-14.161-6.307-16.256-3.494c-3.83 5.152-12.618 28.07-19.288 25.58 0 0 .72-7.092-5.144-6.988-4.37.079-5.497 3.63-5.461 5.669.121 6.885 8.965 7.776 12.132 12.707"/><path id="lc5fx" d="M1000.765 1810.5l1.63 10.942-4.695-1.267z"/><path id="lc5fy" d="M997.082 1810.627c-.536 1.975-2.041 3.28-3.361 2.915-1.321-.365-1.957-2.261-1.421-4.236.536-1.974 2.04-3.28 3.36-2.915 1.321.365 1.958 2.261 1.422 4.236"/><path id="lc5fz" d="M987.703 1782.706c.04 2.298.547 4.5 1.442 6.534.119.252.237.516.374.768a18.973 18.973 0 0 0 3.35 4.668c3.663 3.758 8.979 6.253 14.961 6.672.307.02.608.036.914.04l-.124-6.994h-.005c.002-.218-.002-.431-.006-.65-.153-8.633-3.745-16.506-9.636-22.659a38.686 38.686 0 0 0-3.522-3.245c-2.762 2.052-4.931 4.681-6.266 7.67a16.78 16.78 0 0 0-1.482 7.196"/><path id="lc5fA" d="M956.641 1785.5c.109 6.142 5.717 11.22 13.284 12.672.599.118 1.208.211 1.833.278 1.001.117 2.034.164 3.081.145 9.92-.177 17.855-6.327 17.724-13.739a9.909 9.909 0 0 0-.257-2.089c-1.458-6.396-8.974-11.174-17.941-11.013-9.826.176-17.7 6.214-17.723 13.531a3.356 3.356 0 0 0 0 .214"/><path id="lc5fB" d="M993.684 1823.75s-3.185.498-3.133-4.37"/><path id="lc5fC" d="M976.392 1833.926s-10.546-.636-13.602-2.466l13.037 7.305z"/><path id="lc5fD" d="M1042.463 1913.699l-.163-11.599-49.474-4.699-21.102-33.461-18.444 17.82s21.516 28.742 30.11 32.272c15.041 6.179 59.073-.333 59.073-.333"/><path id="lc5fE" d="M1070.933 1913.699l-.163-11.599-49.474-4.699-21.102-33.461-18.444 17.82s21.516 28.742 30.11 32.272c15.041 6.179 59.073-.333 59.073-.333"/><path id="lc5fF" d="M1028.238 2086.196l-2.723 17.907s11.02 4.449 25.883 16.72h-45.518l5.388-38.373z"/><path id="lc5fG" d="M1006.26 2081.81l2.004 21.006 18.96 1.138-1.608-15.932z"/><path id="lc5fH" d="M987.67 1983.182l14.791 112.101h29.716l-2.329-144.823"/><path id="lc5fI" d="M971.83 2058.321l17.021-60.081"/><path id="lc5fJ" d="M958.51 1998.24l44.351 59.914"/><path id="lc5fK" d="M958.514 1998.24l-63.604 59.244"/><path id="lc5fL" d="M985.1 1996.91h7.085l30.326 123.914h-7.085z"/><path id="lc5fM" d="M908.82 1998.24l63.007 59.244"/><path id="lc5fN" d="M912.358 1996.99h-7.188l-30.77 123.84h7.189z"/><path id="lc5fO" d="M954.8 1996.99h7.188l30.77 123.84h-7.189z"/><path id="lc5fP" d="M973.233 2053.575c.403 1.68.06 3.302-.768 3.623-.826.321-1.823-.78-2.226-2.46-.403-1.678-.06-3.3.767-3.622.827-.321 1.824.78 2.227 2.46"/><path id="lc5fQ" d="M960.803 2002.125c.403 1.68.06 3.302-.768 3.623-.826.321-1.823-.78-2.226-2.46-.403-1.679-.06-3.3.767-3.622.827-.321 1.824.78 2.227 2.459"/><path id="lc5fR" d="M1003.976 2050.192c.404 1.68.529 3.12.28 3.216-.247.096-.775-1.187-1.178-2.867-.403-1.68-.529-3.12-.28-3.216.247-.096.775 1.188 1.178 2.867"/><path id="lc5fS" d="M992.516 2002.442c.403 1.68.528 3.12.28 3.216-.247.096-.776-1.187-1.178-2.867-.403-1.68-.529-3.12-.28-3.216.248-.096.775 1.188 1.178 2.867"/><path id="lc5fT" d="M894.178 2052.585c-.37 1.692-.869 2.992-1.114 2.906-.245-.087-.144-1.53.226-3.222.37-1.691.87-2.992 1.115-2.905.245.088.144 1.529-.227 3.22"/><path id="lc5fU" d="M905.999 2002.425c-.37 1.691-.87 2.992-1.115 2.905-.245-.087-.144-1.528.226-3.22.37-1.692.87-2.993 1.115-2.906.245.088.144 1.529-.226 3.22"/><path id="lc5fV" d="M943.36 1930.538h210.025v-13.798H943.36z"/><path id="lc5fW" d="M903.7 1998.454h103.344c7.91 0 14.322-6.414 14.322-14.325v-.949H903.7z"/><path id="lc5fX" d="M1080.578 2086.046l-2.723 17.907s25.87 4.596 40.733 16.868l-60.368-.148 5.388-38.373z"/><path id="lc5fY" d="M1058.6 2081.81l2.004 21.006 18.96 1.138-1.609-15.932z"/><path id="lc5fZ" d="M1040.589 1983.178l14.79 112.101h29.716l-4.932-130.856c-.145-9.007-7.409-17.125-17.067-18.302L935.51 1932.5v50.678z"/><path id="lc5faa" d="M919.03 1938.573l59.874-.721s-.264-10.343 5.74-29.431c2.393-7.61 1.921-12.116 1.921-12.116l9.781 13.326 20.987-29.975c-17.164-22.456-23.277-27.904-35.582-34.408-6.612-3.495-15.1-7.701-30.117-4.82-7.784 1.494-25.057 12.218-25.76 35.513-.544 18.033-6.844 62.632-6.844 62.632"/><path id="lc5fab" d="M944.685 1872.9l16.143-.29-.828-46.87-33.63.602.516 29.255c.172 9.73 8.141 17.475 17.799 17.302"/><path id="lc5fac" d="M893.75 1900.173c0 7.609 6.169 13.779 13.776 13.779.377 0 .754-.018 1.12-.046.291-.023.577-.057.862-.103 6.666-.954 11.79-6.695 11.79-13.63 0-6.93-5.124-12.67-11.79-13.624-.285-.046-.57-.08-.862-.103a14.433 14.433 0 0 0-1.12-.046c-7.607 0-13.776 6.17-13.776 13.773"/><path id="lc5fad" d="M897.73 1900.174c0 6.93 5.118 12.665 11.777 13.63 6.666-.953 11.79-6.695 11.79-13.63 0-6.929-5.124-12.67-11.79-13.624-6.66.965-11.777 6.7-11.777 13.624"/><path id="lc5fae" d="M1134.41 1930.538h102.392v-13.798H1134.41z"/><path id="lc5faf" d="M1200.96 2120.82h10.36v-190.29h-10.36z"/><path id="lc5fag" d="M1190.6 2120.82h10.36v-190.29h-10.36z"/><path id="lc5fah" d="M1119.29 2120.82h10.36v-190.29h-10.36z"/><path id="lc5fai" d="M1119.29 1972.763h81.674v-42.183h-81.674z"/><path id="lc5faj" d="M1108.93 2120.82h10.36v-190.29h-10.36z"/><path id="lc5fak" d="M1108.93 1947.45h102.392v-16.92H1108.93z"/><path id="lc5fal" d="M1069.736 1913.758l23.67-4.893c1.406-.29 6.005-.21 6.005-.21 1.371-.146 4.236-.31 4.615-1.864.094-.385-.352-.82-.352-.82s1.794-.064 2.091-1.641c.117-.62-3.792-1.369-3.792-1.369s2.384.116 2.065-1.872c-.052-.326-11.226-2.564-11.226-2.564l2.158.157 2.954.337s1.499-.347 1.704-1.454c.08-.439-2.349-1.2-5.113-1.65-4.3-.7-7.497-.302-10.663.422-3.826.874-5.123.835-9.771 3.033-1.918.907-4.798 2.731-6.021 3.662"/><path id="lc5fam" d="M894.888 1998.458h33.782c17.302 0 30.614-15.887 28.23-33.692l-12.662-99.181c-1.099-8.212-7.857-14.325-15.838-14.325h-33.243c-7.98 0-14.739 6.113-15.838 14.325l-12.662 99.18c-2.383 17.806 10.928 33.693 28.231 33.693"/><path id="lc5fan" d="M1134.022 1861.171l-8.684 1.052-.695-1.092.458-.996-.661-.794 8.113-1.051 1.225.732-1.026 1.025z"/><path id="lc5fao" d="M957.18 1966.88s2.344 16.305 24.113 16.305 6.587 10.149 6.587 10.149-52.285-5.274-51.786-5.449c.496-.176 9.373-18.984 9.373-18.984z"/></defs><g><g transform="translate(-793 -1725)"><g><g><use fill="#afb3c1" xlink:href="#lc5fa"/></g><g><use fill="#5e5e6c" xlink:href="#lc5fb"/></g><g><use fill="#353543" xlink:href="#lc5fc"/></g><g><use fill="#353543" xlink:href="#lc5fd"/></g><g><use fill="#353543" xlink:href="#lc5fe"/></g><g><use fill="#353543" xlink:href="#lc5ff"/></g><g><use fill="#353543" xlink:href="#lc5fg"/></g><g><use fill="#f38c01" xlink:href="#lc5fh"/></g><g><use fill="#25003f" xlink:href="#lc5fi"/></g><g><use fill="#8f8f9d" xlink:href="#lc5fj"/></g><g><use fill="#fff" xlink:href="#lc5fk"/></g><g><use fill="#3f3f51" xlink:href="#lc5fl"/></g><g><use fill="#3f3f51" xlink:href="#lc5fm"/></g><g><use fill="#3f3f51" xlink:href="#lc5fn"/></g><g><use fill="#3f3f51" xlink:href="#lc5fo"/></g><g><use fill="#3f3f51" xlink:href="#lc5fp"/></g><g><use fill="#8f8f9d" xlink:href="#lc5fq"/></g><g><use fill="#bfbfd0" xlink:href="#lc5fr"/></g><g><use fill="#bfbfd0" xlink:href="#lc5fs"/></g><g><use fill="#25003f" xlink:href="#lc5ft"/></g><g><use fill="#ff77ca" xlink:href="#lc5fu"/></g><g><use fill="#25003f" xlink:href="#lc5fv"/></g><g><use fill="#ff77ca" xlink:href="#lc5fw"/></g><g><use fill="#285fd7" xlink:href="#lc5fx"/></g><g><use fill="#0b096f" xlink:href="#lc5fy"/></g><g><use fill="#25003f" xlink:href="#lc5fz"/></g><g><use fill="#25003f" xlink:href="#lc5fA"/></g><g><use fill="#fff" fill-opacity="0" stroke="#0c245f" stroke-miterlimit="50" stroke-width="2.1" xlink:href="#lc5fB"/></g><g><use fill="#ef3c86" xlink:href="#lc5fC"/></g><g><use fill="#ef3c86" xlink:href="#lc5fD"/></g><g><use fill="#ff77ca" xlink:href="#lc5fE"/></g><g><use fill="#0b096f" xlink:href="#lc5fF"/></g><g><use fill="#ef3c86" xlink:href="#lc5fG"/></g><g><use fill="#07070a" xlink:href="#lc5fH"/></g><g><use fill="#fff" fill-opacity="0" stroke="#000" stroke-miterlimit="50" stroke-width="4.9" xlink:href="#lc5fI"/></g><g><use fill="#fff" fill-opacity="0" stroke="#000" stroke-miterlimit="50" stroke-width="4.9" xlink:href="#lc5fJ"/></g><g><g><use fill="#fff" xlink:href="#lc5fK"/></g><g><use fill="#fff" fill-opacity="0" stroke="#000" stroke-miterlimit="50" stroke-width="4.9" xlink:href="#lc5fK"/></g></g><g><use fill="#f38c01" xlink:href="#lc5fL"/></g><g><use fill="#fff" fill-opacity="0" stroke="#000" stroke-miterlimit="50" stroke-width="4.9" xlink:href="#lc5fM"/></g><g><use fill="#ffc100" xlink:href="#lc5fN"/></g><g><use fill="#ffc100" xlink:href="#lc5fO"/></g><g><use fill="#121216" xlink:href="#lc5fP"/></g><g><use fill="#121216" xlink:href="#lc5fQ"/></g><g><use fill="#121216" xlink:href="#lc5fR"/></g><g><use fill="#121216" xlink:href="#lc5fS"/></g><g><use fill="#121216" xlink:href="#lc5fT"/></g><g><use fill="#121216" xlink:href="#lc5fU"/></g><g><use fill="#353543" xlink:href="#lc5fV"/></g><g><use fill="#525260" xlink:href="#lc5fW"/></g><g><use fill="#0b096f" xlink:href="#lc5fX"/></g><g><use fill="#ef3c86" xlink:href="#lc5fY"/></g><g><use fill="#13131e" xlink:href="#lc5fZ"/></g><g><use fill="#ffc100" xlink:href="#lc5faa"/></g><g><use fill="#25003f" xlink:href="#lc5fab"/></g><g><use fill="#f38c01" xlink:href="#lc5fac"/></g><g><use fill="#fff" xlink:href="#lc5fad"/></g><g><use fill="#5e5e6c" xlink:href="#lc5fae"/></g><g><use fill="#5e5e6c" xlink:href="#lc5faf"/></g><g><use fill="#353543" xlink:href="#lc5fag"/></g><g><use fill="#5e5e6c" xlink:href="#lc5fah"/></g><g><use fill="#5e5e6c" xlink:href="#lc5fai"/></g><g><use fill="#353543" xlink:href="#lc5faj"/></g><g><use fill="#353543" xlink:href="#lc5fak"/></g><g><use fill="#ff77ca" xlink:href="#lc5fal"/></g><g><use fill="#525260" xlink:href="#lc5fam"/></g><g><use fill="#0050d7" xlink:href="#lc5fan"/></g><g><use fill="#525260" xlink:href="#lc5fao"/></g></g></g></g></svg>