<svg xmlns="http://www.w3.org/2000/svg" xmlns:xlink="http://www.w3.org/1999/xlink" width="542" height="481" viewBox="0 0 542 481"><defs><path id="j059a" d="M1347.685 3040.354c0 1.145-121.472 2.074-271.317 2.074-149.845 0-271.318-.929-271.318-2.074 0-1.146 121.473-2.074 271.318-2.074 149.845 0 271.317.928 271.317 2.074"/><path id="j059b" d="M1140.79 3040.351h14.247V2846.66h-14.247z"/><path id="j059c" d="M1155.04 3040.351h14.246V2846.66h-14.246z"/><path id="j059d" d="M1241.06 3040.351h14.246V2846.66h-14.246z"/><path id="j059e" d="M1255.31 3040.351h14.247V2846.66h-14.247z"/><path id="j059f" d="M1063.03 2834.464h44.282v-74.324h-44.282z"/><path id="j059g" d="M1211.406 2832.842h-121.373l-50.152-61.537c-.782-.96-1.05-2.336-.7-3.591l1.664-5.948 110.984-2.026z"/><path id="j059h" d="M1212.102 2832.842h-114.157c-.723 0-1.414-.345-1.909-.953l-54.625-67.025c-1.58-1.938-.393-5.124 1.909-5.124h112.505c1.777 0 3.475.848 4.694 2.344l53.491 65.635c1.58 1.938.394 5.123-1.908 5.123"/><path id="j059i" d="M1204.866 2828.488h-105.053a.394.394 0 0 1-.305-.152l-50.65-62.147c-.763-.938-.19-2.479.924-2.479h103.964c1.361 0 2.661.65 3.594 1.795l48.72 59.779c.988 1.211.245 3.204-1.194 3.204"/><path id="j059j" d="M968.23 2846.657h342.978V2832.8H968.23z"/><path id="j059k" d="M889.82 3040.351h14.246V2846.66H889.82z"/><path id="j059l" d="M904.07 3040.351h14.246V2846.66H904.07z"/><path id="j059m" d="M990.66 3040.351h14.247V2846.66H990.66z"/><path id="j059n" d="M892.59 2929.632h112.324v-82.972H892.59z"/><path id="j059o" d="M1004.91 3040.351h14.246V2846.66h-14.246z"/><path id="j059p" d="M1015.35 2929.632h75.097v-82.972h-75.097z"/><path id="j059q" d="M844.08 2846.657h124.157V2832.8H844.08z"/><path id="j059r" d="M897.77 2855.541h192.682v-8.881H897.77z"/><path id="j059s" d="M1019.16 2929.636h4.443v-77.096h-4.443z"/><path id="j059t" d="M1063.413 2903.774a5.915 5.915 0 0 1-5.916 5.914 5.916 5.916 0 0 1-5.917-5.914 5.916 5.916 0 0 1 5.917-5.914 5.916 5.916 0 0 1 5.916 5.914"/><path id="j059u" d="M1063.413 2873.184a5.915 5.915 0 0 1-5.916 5.914 5.916 5.916 0 0 1-5.917-5.914 5.916 5.916 0 0 1 5.917-5.914 5.916 5.916 0 0 1 5.916 5.914"/><path id="j059v" d="M1067.101 2767.956c2.723 1.793 3.994 4.669 2.837 6.423-1.156 1.754-4.3 1.722-7.024-.07-2.722-1.794-3.993-4.67-2.837-6.424 1.156-1.754 4.301-1.722 7.024.07"/><path id="j059w" d="M1080.891 2767.936c2.723 1.793 3.994 4.669 2.837 6.423-1.156 1.754-4.3 1.723-7.024-.07-2.722-1.794-3.993-4.67-2.837-6.424 1.156-1.754 4.301-1.722 7.024.07"/><path id="j059x" d="M1094.681 2767.916c2.723 1.793 3.994 4.669 2.837 6.423-1.156 1.754-4.3 1.722-7.024-.07-2.722-1.794-3.993-4.67-2.837-6.424 1.156-1.754 4.301-1.722 7.024.07"/><path id="j059y" d="M1108.481 2767.886c2.723 1.793 3.994 4.669 2.837 6.423-1.156 1.754-4.3 1.723-7.024-.07-2.722-1.794-3.993-4.67-2.837-6.424 1.156-1.754 4.301-1.722 7.024.07"/><path id="j059z" d="M971.457 2649.938c-6.419-10.15 4.255-52.883 30.674-63.368 26.42-10.484 59.034 13.42 51.081 38.457-5.927 18.658-20.949-2.073-43.852 8.334-22.902 10.407-30.308 28.59-37.903 16.577"/><path id="j059A" d="M1135.119 2567.04c-7.613 12.347-27.17.299-34.784 12.646-7.612 12.348 11.946 24.395 4.333 36.743-7.612 12.347-27.17.299-34.783 12.646-7.614 12.349 11.944 24.397 4.33 36.746-7.613 12.348-27.171.3-34.785 12.65"/><path id="j059B" d="M1185.017 2609.278c-11.335 9.052-25.676-8.889-37.011.165-11.336 9.053 3.003 26.993-8.333 36.047-11.336 9.053-25.676-8.888-37.013.165-11.337 9.055 3.003 26.995-8.335 36.05-11.337 9.054-25.677-8.887-37.015.167"/><path id="j059C" d="M997.109 2746.156c-.5 10.526-33.14 30.222-67.56 17.34-24.78-9.273-42.695-41.24-23.65-53.857 11.737-7.776 19.068 14.69 41.387 20.15 22.318 5.459 50.413 3.91 49.823 16.367"/><path id="j059D" d="M1113.999 2702.394c4.847-1.042 18.658 10.683 17.963 27.064-.5 11.794-12.315 23.335-20.883 16.628-5.28-4.132 3.81-9.976 2.948-20.252-.862-10.277-5.765-22.207-.028-23.44"/><path id="j059E" d="M937.554 2658.778c8.672-4.613 19.443-1.326 24.057 7.342 4.615 8.668.875 14.455-7.796 19.067-8.672 4.612-18.992 6.305-23.607-2.363-4.614-8.668-1.325-19.434 7.346-24.046"/><path id="j059F" d="M930.07 2617.02l7.927 27.672s14.65-20.262 14.482-20.256c-.168.006-22.409-7.416-22.409-7.416"/><path id="j059G" d="M876.01 2680.454l34.397-12.248s-27.413-8.849-27.388-8.704c.026.145-7.009 20.952-7.009 20.952"/><path id="j059H" d="M878.65 2631.51l42.479 23.467s-14.059-36.168-14.191-36.006c-.134.162-28.288 12.538-28.288 12.538"/><path id="j059I" d="M1121.029 2789.606s-40.648-19.332-21.398-45.635c19.25-26.304-23.136-101.77-71.586-100.238-33.589 1.061-37.736 40.838-87.717 54.607-33.438 9.213 50.334 44.133 97.607 18.83 48.26-25.83 28.258 23.538 50.393 55.314 12.563 18.034 32.701 17.122 32.701 17.122"/><path id="j059J" d="M1213.696 3030.344c0 5.525-4.481 10.004-10.008 10.004-5.527 0-10.008-4.48-10.008-10.004 0-5.525 4.481-10.004 10.008-10.004 5.527 0 10.008 4.48 10.008 10.004"/><path id="j059K" d="M1143.13 2776.558c2.3-3.49 4.978-4.349 3.357-5.416l-13.772-9.957c-1.62-1.067-4.333 3.661-5.036 5.341-1.065 2.55-2.798 9.689-1.287 11.117l9.608 3.323c1.62 1.067 4.83-.917 7.13-4.408"/><path id="j059L" d="M1168.893 2687.84s-14.81 22.479 7.799 26.528"/><path id="j059M" d="M1172.745 2720.06l-4.195 11.58 5.589-.156z"/><path id="j059N" d="M1227.18 2711.49c1.277-4.902 2.817 21.371 2.817 21.371l4.17 21.995-28.332 9.281-1.997-24.098s-23.268 3.509-28.335 1.325c0 0-5.362-22.55-3.004-38.984l17.96-18.73 31.172.04z"/><path id="j059O" d="M1204.99 2728.594s12.29-3.104 16.524-11.854"/><path id="j059P" d="M1227.636 2726.192c7.344-.011 17.077-27.372 5.478-42.09-15.657-19.868-32.278-9.929-32.278-9.929s-5.744-18.163-17.942-17.228c-17.378 1.332-18.12 28.372-18.12 28.372s-5.395-14.287-10.226-11.84c-4.831 2.448-3.593 45.767 34.32 26.238 0 0-.533 13.456 8.83 13.013 4.037-.191 5.388-5.923 5.388-5.923s9.286 8.13 15.833 11.874c0 0 5.322 7.518 8.717 7.513"/><path id="j059Q" d="M1225.743 2663.93l-2.903 13.82 4.036 1.62 7.77-9.147"/><path id="j059R" d="M1203.84 2740.032l10.709-2.182-10.125 9.223z"/><path id="j059S" d="M1175.75 2733.852s3.605.257 3.656-3.262"/><path id="j059T" d="M1179.193 2720.411a2.728 2.728 0 1 1-5.45-.251 2.728 2.728 0 0 1 5.45.251"/><path id="j059U" d="M1258.713 2985.578l16.784 24.223-9.375 19.438-21.532 11.117h33.242l22.603-26.801-28.535-42.535z"/><path id="j059V" d="M1273.89 2967.99l16.682 30.855-15.078 10.74-16.784-24.089z"/><path id="j059W" d="M1158.698 3002l2.163 19.454s-31.164 5.566-46.101 18.899l76.739-.16-14.025-42.263z"/><path id="j059X" d="M1288.556 3030.344c0 5.525-4.481 10.004-10.008 10.004-5.527 0-10.008-4.48-10.008-10.004 0-5.525 4.481-10.004 10.008-10.004 5.527 0 10.008 4.48 10.008 10.004"/><path id="j059Y" d="M1179.055 2997.97l6.021 22.82-24.219.663-1.827-16.735z"/><path id="j059Z" d="M1239.366 2883.83l53.832 106.998-28.08 15.24-68.268-108.996z"/><path id="j059aa" d="M1161.007 2885.85l29.332 126.751h-35.601l-44.992-137.029c-4.68-14.252 5.943-28.912 20.95-28.912h130.743v39.19z"/><path id="j059ab" d="M1139.015 2839.156l-43.215-16.579 5.094-13.86 40.384 8.464 22.396-37.041 23.137 19.213-27.195 38.473c-4.033 5.03-11.586 5.332-20.601 1.33"/><path id="j059ac" d="M1142.63 2782.153l55.335 23.964 11.431-15.173-64.4-20.194z"/><path id="j059ad" d="M1191.38 2907.922h99.814v-3.442h-99.814z"/><path id="j059ae" d="M1266.34 2904.474h-73.323a6.695 6.695 0 0 1-6.697-6.693v-5.237a6.695 6.695 0 0 1 6.697-6.694h73.322a6.696 6.696 0 0 1 6.697 6.694v5.237a6.696 6.696 0 0 1-6.697 6.693"/><path id="j059af" d="M1271.152 2806.366l-4.064 40.401-70.13-.2-8.848-38.03-7.574 11.18-34.296-19.654s12.403-21.91 19.897-29.61c16.667-17.125 31.51-21.762 47.613-21.734 16.09.027 11.862-2.18 26.792 1.582 10.427 2.627 19.669 9.865 24.968 27.872 5.499 18.689 5.642 28.193 5.642 28.193"/><path id="j059ag" d="M1304.363 2907.92h-46.483l-8.61-55.652v-42.942c0-20.912 16.96-37.866 37.883-37.866 20.922 0 37.883 16.954 37.883 37.866v42.942l4.58 26.662c2.13 15.321-9.777 28.99-25.253 28.99"/><path id="j059ah" d="M1257.419 2904.482h-29.279c15.383 0 27.247-13.512 25.29-28.722z"/><path id="j059ai" d="M1302.823 2808.713c0 7.642-6.2 13.838-13.844 13.838-.38 0-.758-.017-1.126-.046-.293-.023-.58-.057-.867-.103-6.698-.958-11.846-6.724-11.846-13.69 0-6.959 5.148-12.725 11.846-13.683.287-.046.574-.08.867-.103.368-.029.747-.046 1.126-.046 7.645 0 13.844 6.196 13.844 13.833"/><path id="j059aj" d="M1298.823 2808.714c0 6.959-5.143 12.72-11.836 13.689-6.698-.958-11.847-6.724-11.847-13.69 0-6.959 5.149-12.725 11.847-13.683 6.693.97 11.836 6.73 11.836 13.684"/><path id="j059ak" d="M1305.02 3032.35h-98.902c-3.788 0-6.888-3.098-6.888-6.885s3.1-6.885 6.888-6.885h98.902c3.788 0 6.888 3.098 6.888 6.885s-3.1 6.885-6.888 6.885"/><path id="j059al" d="M1252.43 3029.08h6.27v-121.16h-6.27z"/><path id="j059am" d="M1290.346 2907.92l-34.778 15.831-34.778-15.831z"/><path id="j059an" d="M1251.342 3032.35h-12.834c-3.788 0-6.888-3.098-6.888-6.885s3.1-6.885 6.888-6.885h12.834c3.788 0 6.887 3.098 6.887 6.885s-3.1 6.885-6.887 6.885"/><path id="j059ao" d="M1237.83 2749.629c.681 2.203-1.543 5.295-10.033 5.469-10.433.213-21.992-1.83-23.937-5.77 13.156-2.112 21.99-2.725 33.97.301"/><path id="j059ap" d="M1106.858 2811.433l-9.49-8.98s-2.29-1.484-5.05-2.753c-2.762-1.268-4.003-1.492-7.924-5.382-2.733-2.71-3.291 1.728-2.186 4.178 1.106 2.451 9.01 6.225 7.32 8.68-1.692 2.455-7.765 5.693-14.208 2.827-.865-.385-3.855 2.997 2.021 10.986 2.896 3.938 9.416 7.576 12.39 6.709 0 0 8.433-2.186 11.833-3.24 3.365-1.044 1.057-8.003 5.294-13.025"/><path id="j059aq" d="M1242.926 3030.344c0 5.525-4.481 10.004-10.008 10.004-5.527 0-10.008-4.48-10.008-10.004 0-5.525 4.481-10.004 10.008-10.004 5.527 0 10.008 4.48 10.008 10.004"/><path id="j059ar" d="M1318.116 3030.344c0 5.525-4.481 10.004-10.008 10.004-5.527 0-10.008-4.48-10.008-10.004 0-5.525 4.481-10.004 10.008-10.004 5.527 0 10.008 4.48 10.008 10.004"/><path id="j059as" d="M1188.11 2808.53l2.806-4.24 1.702 23.614z"/><path id="j059at" d="M1133.813 2762.394c-.946-1.07-2.583-1.185-3.637-.254l-7.287 6.66c-1.053.93.361 2.163.95 2.46.894.448 2.52.6 3.714-.29l6.066-4.938c1.053-.93 1.14-2.568.194-3.638"/><path id="j059au" d="M1125.713 2785.783l-4.683 3.853 1.35-5.91 24.549-39.726 3.333 2.058z"/><path id="j059av" d="M1151.554 2781.388l-9.136 2.636s-2.275.2-5.436-.595c-3.162-.795-4.393-1.419-10.031-.934-3.929.337-1.99-3.45.344-4.633 2.334-1.183 11.464.982 11.304-2.002-.162-2.983 11.932-1.075 12.955 5.528"/><path id="j059aw" d="M1124.788 2767.857c-1.484.103-2.619 1.329-2.522 2.725l.85 9.794c.098 1.396 2.012 1.021 2.63.734.938-.437 2.097-1.633 2.124-3.115l-.21-7.785c-.096-1.397-1.389-2.456-2.872-2.353"/><path id="j059ax" d="M1221.45 2715.595c-3.187 9.427-19.01 12.97-19.01 12.97l.141-4.68.51-17.087c1.373-4.827 14.793-9.748 18.325 1.719.823 2.659.73 5.009.034 7.078"/><path id="j059ay" d="M1206.508 2720.283s3.62-.615 2.85-3.703c-.745-2.989-3.708-2.908-3.708-2.908s.345-7.845 7.523-7.114"/><path id="j059az" d="M1149.92 2802.12l24.947 14.246-5.38 7.61z"/><path id="j059aA" d="M1141.849 2817.18l-4.259 7.087"/></defs><g><g transform="translate(-805 -2562)"><g><g><use fill="#afb3c1" xlink:href="#j059a"/></g><g><use fill="#444554" xlink:href="#j059b"/></g><g><use fill="#444554" xlink:href="#j059c"/></g><g><use fill="#444554" xlink:href="#j059d"/></g><g><use fill="#767886" xlink:href="#j059e"/></g><g><use fill="#272636" xlink:href="#j059f"/></g><g><use fill="#555369" xlink:href="#j059g"/></g><g><use fill="#99a2aa" xlink:href="#j059h"/></g><g><use fill="#fff" xlink:href="#j059i"/></g><g><use fill="#767886" xlink:href="#j059j"/></g><g><use fill="#444554" xlink:href="#j059k"/></g><g><use fill="#767886" xlink:href="#j059l"/></g><g><use fill="#444554" xlink:href="#j059m"/></g><g><use fill="#444554" xlink:href="#j059n"/></g><g><use fill="#767886" xlink:href="#j059o"/></g><g><use fill="#767886" xlink:href="#j059p"/></g><g><use fill="#444554" xlink:href="#j059q"/></g><g><use fill="#444554" xlink:href="#j059r"/></g><g><use fill="#444554" xlink:href="#j059s"/></g><g><use fill="#444554" xlink:href="#j059t"/></g><g><use fill="#444554" xlink:href="#j059u"/></g><g><use fill="#ffc100" xlink:href="#j059v"/></g><g><use fill="#285fd7" xlink:href="#j059w"/></g><g><use fill="#272636" xlink:href="#j059x"/></g><g><use fill="#ef3c86" xlink:href="#j059y"/></g><g><use fill="#ffc100" xlink:href="#j059z"/></g><g><use fill="#fff" fill-opacity="0" stroke="#ef3c86" stroke-linecap="round" stroke-miterlimit="50" stroke-width="9.8" xlink:href="#j059A"/></g><g><use fill="#fff" fill-opacity="0" stroke="#ef3c86" stroke-linecap="round" stroke-miterlimit="50" stroke-width="9.8" xlink:href="#j059B"/></g><g><use fill="#ffc100" xlink:href="#j059C"/></g><g><use fill="#ef3c86" xlink:href="#j059D"/></g><g><use fill="#ef3c86" xlink:href="#j059E"/></g><g><use fill="#285fd7" xlink:href="#j059F"/></g><g><use fill="#285fd7" xlink:href="#j059G"/></g><g><use fill="#285fd7" xlink:href="#j059H"/></g><g><use fill="#285fd7" xlink:href="#j059I"/></g><g><use fill="#272636" xlink:href="#j059J"/></g><g><use fill="#ff77ca" xlink:href="#j059K"/></g><g><use fill="#0b096f" xlink:href="#j059L"/></g><g><use fill="#285fd7" xlink:href="#j059M"/></g><g><use fill="#ff77ca" xlink:href="#j059N"/></g><g><use fill="#fff" fill-opacity="0" stroke="#e84595" stroke-miterlimit="50" stroke-width="2.1" xlink:href="#j059O"/></g><g><use fill="#0b096f" xlink:href="#j059P"/></g><g><use fill="#fff" fill-opacity="0" stroke="#0b096f" stroke-miterlimit="50" stroke-width="6.3" xlink:href="#j059Q"/></g><g><use fill="#ef3c86" xlink:href="#j059R"/></g><g><use fill="#fff" fill-opacity="0" stroke="#0d1a88" stroke-miterlimit="50" stroke-width="2.1" xlink:href="#j059S"/></g><g><use fill="#0b096f" xlink:href="#j059T"/></g><g><use fill="#0b096f" xlink:href="#j059U"/></g><g><use fill="#ef3c86" xlink:href="#j059V"/></g><g><use fill="#0b096f" xlink:href="#j059W"/></g><g><use fill="#272636" xlink:href="#j059X"/></g><g><use fill="#ef3c86" xlink:href="#j059Y"/></g><g><use fill="#08060c" xlink:href="#j059Z"/></g><g><use fill="#242237" xlink:href="#j059aa"/></g><g><use fill="#ff77ca" xlink:href="#j059ab"/></g><g><use fill="#ff77ca" xlink:href="#j059ac"/></g><g><use fill="#ffc100" xlink:href="#j059ad"/></g><g><use fill="#555369" xlink:href="#j059ae"/></g><g><use fill="#49a2ff" xlink:href="#j059af"/></g><g><use fill="#ffc100" xlink:href="#j059ag"/></g><g><use fill="#ffc100" xlink:href="#j059ah"/></g><g><use fill="#f38c01" xlink:href="#j059ai"/></g><g><use fill="#fff" xlink:href="#j059aj"/></g><g><use fill="#727b80" xlink:href="#j059ak"/></g><g><use fill="#727b80" xlink:href="#j059al"/></g><g><use fill="#727b80" xlink:href="#j059am"/></g><g><use fill="#555369" xlink:href="#j059an"/></g><g><use fill="#ff77ca" xlink:href="#j059ao"/></g><g><use fill="#ff77ca" xlink:href="#j059ap"/></g><g><use fill="#272636" xlink:href="#j059aq"/></g><g><use fill="#272636" xlink:href="#j059ar"/></g><g><use fill="#285fd7" xlink:href="#j059as"/></g><g><use fill="#ff77ca" xlink:href="#j059at"/></g><g><use fill="#0b096f" xlink:href="#j059au"/></g><g><use fill="#ff77ca" xlink:href="#j059av"/></g><g><use fill="#ff77ca" xlink:href="#j059aw"/></g><g><use fill="#ff77ca" xlink:href="#j059ax"/></g><g><use fill="#fff" fill-opacity="0" stroke="#e84595" stroke-miterlimit="50" stroke-width="2.1" xlink:href="#j059ay"/></g><g><use fill="#ef3c86" xlink:href="#j059az"/></g><g><use fill="#fff" fill-opacity="0" stroke="#ef3c86" stroke-miterlimit="50" stroke-width="2.1" xlink:href="#j059aA"/></g></g></g></g></svg>