<svg xmlns="http://www.w3.org/2000/svg" xmlns:xlink="http://www.w3.org/1999/xlink" width="633" height="372" viewBox="0 0 633 372"><defs><path id="xbi7c" d="M107.02 2471.791c0 1.011 141.829 1.831 316.783 1.831s316.783-.82 316.783-1.83c0-1.012-141.829-1.832-316.783-1.832s-316.783.82-316.783 1.831"/><path id="xbi7d" d="M571.58 2471.316h-11.636L531.66 2219.59h11.635z"/><path id="xbi7e" d="M459.57 2471.316h11.635l28.285-251.726h-11.635z"/><path id="xbi7f" d="M466.17 2471.316h11.635l28.285-251.726h-11.635z"/><path id="xbi7g" d="M557.243 2321.946l-68.123-.32 1.8-16.016 66.323.127z"/><path id="xbi7h" d="M578.18 2471.316h-11.636L538.26 2219.59h11.635z"/><path id="xbi7i" d="M502.014 2255.86l-1.07 9.487H482.71l1.07-9.487z"/><path id="xbi7j" d="M555.044 2265.347H536.81l-1.07-9.487h18.234z"/><path id="xbi7k" d="M422.04 2255.852h186.232V2102.38H422.04z"/><path id="xbi7l" d="M429.28 2248.97h171.74v-139.71H429.28z"/><path id="xbi7m" d="M608.27 2255.852h7.449V2102.38h-7.449z"/><path id="xbi7n" d="M429.28 2248.97h3.767v-139.71h-3.767z"/><path id="xbi7o" d="M580.675 2248.975v-4.705h-18.207l-4.558 2.352 4.558 2.353z"/><path id="xbi7p" d="M506.46 2248.976h29.284v-10.046H506.46z"/><path id="xbi7q" d="M535.74 2248.976h7.532v-10.046h-7.532z"/><path id="xbi7r" d="M542.133 2162.104l-19.247 12.665-19.246-12.665 19.246-12.664z"/><path id="xbi7s" d="M542.133 2197.144l-19.247 12.665-19.246-12.665 19.246-12.664z"/><path id="xbi7t" d="M503.643 2162.11v35.035"/><path id="xbi7u" d="M542.133 2162.11v35.035"/><path id="xbi7v" d="M522.883 2174.77v35.035"/><path id="xbi7w" d="M444.95 2123.303h43.77"/><path id="xbi7x" d="M444.95 2131.413h43.77"/><path id="xbi7y" d="M444.95 2139.513h30.887"/><path id="xbi7z" d="M548.89 2141.343h33.329"/><path id="xbi7A" d="M548.89 2149.443h23.519"/><path id="xbi7B" d="M460.39 2209.813h33.329"/><path id="xbi7C" d="M460.39 2217.913h23.52"/><path id="xbi7D" d="M444.95 2148.44h40.712l9.213 8.26"/><path id="xbi7E" d="M234.88 2471.315h9.186V2316.3h-9.186z"/><path id="xbi7F" d="M225.69 2471.315h9.186V2316.3h-9.186z"/><path id="xbi7G" d="M307.02 2471.313h9.186V2302.58h-9.186z"/><path id="xbi7H" d="M297.84 2471.313h9.186V2302.58h-9.186z"/><path id="xbi7I" d="M234.6 2340.024h72.421v-37.404H234.6z"/><path id="xbi7J" d="M225.42 2317.583h90.793v-15.003H225.42z"/><path id="xbi7K" d="M239.747 2361.5h-6.374l-27.283 109.81h6.374z"/><path id="xbi7L" d="M224.86 2187.26l1.108 62.662 71.877-1.29-1.108-62.662z"/><path id="xbi7M" d="M375.115 2238.76h61.606l-14.455 47.663H360.66z"/><path id="xbi7N" d="M432.39 2241.83l-12.34 40.697h-55.13l12.34-40.697z"/><path id="xbi7O" d="M424.831 2246.43l-.588 1.946H378.99l.587-1.946z"/><path id="xbi7P" d="M418.803 2250.39l-.588 1.946H377.9l.587-1.946z"/><path id="xbi7Q" d="M422.321 2254.36l-.588 1.946H376.48l.587-1.946z"/><path id="xbi7R" d="M419.44 2258.32l-.588 1.946H375.08l.587-1.946z"/><path id="xbi7S" d="M405.724 2262.28l-.588 1.946H373.71l.588-1.946z"/><path id="xbi7T" d="M315.62 2290.35h61.606v-3.92H315.62z"/><path id="xbi7U" d="M377.22 2290.35h45.025v-3.92H377.22z"/><path id="xbi7V" d="M436.675 2238.76h3.786l-14.455 47.663h-3.786z"/><path id="xbi7W" d="M299.692 2184.122c.368 20.814-16.085 37.987-36.747 38.357-20.663.37-37.712-16.203-38.079-37.016-.368-20.814 16.085-37.987 36.748-38.357 20.663-.37 37.71 16.203 38.078 37.016"/><path id="xbi7X" d="M254.007 2210.26l-2.64 14.917-1.137.432s4.914 15.161 15.83 12.4c7.708-1.95 4.204-6.615 4.204-6.615l-1.944-1.675 1.479-14.99"/><path id="xbi7Y" d="M217.323 2141.647c.198 11.174 9.35 20.072 20.444 19.873 11.094-.198 19.926-9.418 19.73-20.593-.198-11.175-9.35-20.072-20.444-19.874-11.094.199-19.927 9.419-19.73 20.594"/><path id="xbi7Z" d="M253.809 2203.68c2.091 3.247 1.326 7.582.206 10.125-.38.874-2.813 8.19-3.18 8.525-1.425 1.302 16.404 8.784 16.404 8.784l.94-14.701c5.136.214 11.155-.158 14.427-2.428 9.747-6.765 9.96-29.666 9.78-30.808l-8.415-9.178s-12.556-5.592-14.413-3.098c-3.397 4.569-11.189 24.89-17.104 22.682 0 0 .64-6.289-4.561-6.196-3.875.07-4.874 3.218-4.842 5.026.108 6.106 7.95 6.895 10.758 11.268"/><path id="xbi7aa" d="M291.228 2196.15l1.445 9.702-4.163-1.123z"/><path id="xbi7ab" d="M287.969 2196.26c-.475 1.751-1.81 2.908-2.98 2.585-1.172-.324-1.736-2.005-1.26-3.756.475-1.75 1.81-2.908 2.98-2.585 1.17.324 1.735 2.005 1.26 3.756"/><path id="xbi7ac" d="M279.642 2171.502c.036 2.037.486 3.99 1.28 5.793.104.224.21.458.33.682a16.824 16.824 0 0 0 2.97 4.14c3.25 3.331 7.963 5.544 13.268 5.915.272.018.538.032.81.036l-.11-6.202h-.005c.002-.194-.001-.383-.005-.577-.135-7.654-3.32-14.636-8.544-20.091a34.305 34.305 0 0 0-3.123-2.878c-2.45 1.82-4.373 4.151-5.556 6.802a14.879 14.879 0 0 0-1.315 6.38"/><path id="xbi7ad" d="M252.101 2173.982c.096 5.446 5.07 9.949 11.779 11.236a18.42 18.42 0 0 0 1.625.247c.888.104 1.804.146 2.732.13 8.796-.158 15.833-5.612 15.717-12.184a8.787 8.787 0 0 0-.228-1.852c-1.294-5.672-7.958-9.908-15.91-9.765-8.712.156-15.694 5.51-15.714 11.998-.003.063-.002.127-.001.19"/><path id="xbi7ae" d="M284.949 2207.896s-2.824.44-2.778-3.876"/><path id="xbi7af" d="M269.62 2216.916s-9.35-.563-12.06-2.186l11.56 6.478z"/><path id="xbi7ag" d="M328.2 2287.651l-.145-10.284-43.869-4.167-18.711-29.67-16.355 15.8c0 .001 19.079 25.487 26.7 28.617 13.336 5.479 52.38-.296 52.38-.296"/><path id="xbi7ah" d="M353.44 2287.651l-.145-10.284-43.869-4.167-18.711-29.67-16.355 15.8c0 .001 19.078 25.487 26.7 28.617 13.336 5.479 52.38-.296 52.38-.296"/><path id="xbi7ai" d="M315.585 2440.611l-2.415 15.88s9.772 3.944 22.952 14.825H295.76l4.778-34.026z"/><path id="xbi7aj" d="M296.1 2436.72l1.777 18.626 16.812 1.01-1.426-14.128z"/><path id="xbi7ak" d="M279.62 2349.265l13.116 99.402h26.349l-2.065-128.417"/><path id="xbi7al" d="M265.57 2415.895l15.093-53.275"/><path id="xbi7am" d="M253.76 2362.62l39.327 53.126"/><path id="xbi7an" d="M253.758 2362.62l-56.398 52.533"/><path id="xbi7ao" d="M277.34 2361.44h6.282l26.891 109.876h-6.283z"/><path id="xbi7ap" d="M209.7 2362.62l55.869 52.533"/><path id="xbi7aq" d="M212.828 2361.5h-6.374l-27.284 109.81h6.374z"/><path id="xbi7ar" d="M250.47 2361.5h6.374l27.284 109.81h-6.375z"/><path id="xbi7as" d="M266.815 2411.69c.357 1.49.052 2.928-.681 3.213-.733.285-1.617-.691-1.974-2.181-.358-1.489-.053-2.927.68-3.213.733-.284 1.617.692 1.975 2.181"/><path id="xbi7at" d="M255.795 2366.06c.357 1.49.052 2.928-.681 3.213-.733.285-1.617-.691-1.974-2.181-.358-1.49-.053-2.928.68-3.213.733-.284 1.617.692 1.975 2.181"/><path id="xbi7au" d="M294.078 2408.677c.358 1.489.469 2.765.25 2.851-.22.086-.69-1.053-1.046-2.542-.358-1.489-.47-2.766-.249-2.852.22-.085.688 1.054 1.045 2.543"/><path id="xbi7av" d="M283.918 2366.336c.358 1.49.469 2.767.249 2.852-.22.086-.689-1.052-1.046-2.542-.357-1.489-.468-2.766-.248-2.851.22-.086.688 1.053 1.045 2.541"/><path id="xbi7aw" d="M196.717 2410.8c-.328 1.5-.77 2.653-.988 2.576-.218-.077-.128-1.356.2-2.856.329-1.5.771-2.653.989-2.576.217.077.127 1.355-.201 2.855"/><path id="xbi7ax" d="M207.197 2366.33c-.328 1.5-.77 2.653-.988 2.576-.218-.077-.128-1.356.2-2.856.329-1.5.771-2.653.989-2.576.218.077.127 1.355-.2 2.855"/><path id="xbi7ay" d="M240.33 2302.585h186.232v-12.235H240.33z"/><path id="xbi7az" d="M205.16 2362.804h91.636c7.014 0 12.7-5.688 12.7-12.702v-.842H205.16z"/><path id="xbi7aA" d="M361.995 2440.481l-2.414 15.88s22.939 4.074 36.119 14.956l-53.53-.13 4.778-34.027z"/><path id="xbi7aB" d="M342.51 2436.72l1.777 18.626 16.812 1.01-1.427-14.128z"/><path id="xbi7aC" d="M326.535 2349.267l13.115 99.402H366l-4.374-116.033c-.129-7.986-6.57-15.184-15.134-16.228L233.36 2304.33v44.937z"/><path id="xbi7aD" d="M218.75 2309.706l53.09-.64s-.233-9.171 5.09-26.096c2.122-6.748 1.705-10.744 1.705-10.744l8.672 11.816 18.61-26.578c-15.22-19.912-20.64-24.743-31.552-30.51-5.862-3.1-13.388-6.83-26.704-4.274-6.902 1.324-22.219 10.834-22.842 31.49-.482 15.99-6.069 55.536-6.069 55.536"/><path id="xbi7aE" d="M241.5 2251.477l14.314-.257-.734-41.56-29.82.534.458 25.94c.152 8.628 7.218 15.496 15.782 15.343"/><path id="xbi7aF" d="M196.34 2275.663c0 6.747 5.47 12.217 12.216 12.217.334 0 .668-.015.992-.04.259-.02.512-.05.765-.091 5.91-.846 10.453-5.937 10.453-12.086 0-6.145-4.542-11.235-10.453-12.081a9.548 9.548 0 0 0-.765-.091 12.8 12.8 0 0 0-.992-.041c-6.746 0-12.216 5.47-12.216 12.213"/><path id="xbi7aG" d="M199.87 2275.66c0 6.145 4.538 11.23 10.443 12.087 5.91-.846 10.453-5.937 10.453-12.086 0-6.144-4.542-11.235-10.453-12.081-5.905.856-10.443 5.942-10.443 12.08"/><path id="xbi7aH" d="M409.73 2302.585h90.793v-12.235H409.73z"/><path id="xbi7aI" d="M468.74 2471.313h9.186V2302.58h-9.186z"/><path id="xbi7aJ" d="M459.56 2471.313h9.186V2302.58h-9.186z"/><path id="xbi7aK" d="M396.32 2471.313h9.186V2302.58h-9.186z"/><path id="xbi7aL" d="M396.32 2340.024h72.421v-37.404H396.32z"/><path id="xbi7aM" d="M387.14 2471.313h9.186V2302.58h-9.186z"/><path id="xbi7aN" d="M387.14 2317.583h90.793v-15.003H387.14z"/><path id="xbi7aO" d="M352.386 2287.705l20.99-4.338c1.245-.258 5.323-.186 5.323-.186 1.216-.13 3.757-.276 4.093-1.654.083-.341-.313-.727-.313-.727s1.591-.056 1.855-1.455c.103-.55-3.363-1.213-3.363-1.213s2.114.103 1.831-1.66c-.046-.29-9.954-2.274-9.954-2.274l1.914.14 2.62.298s1.328-.308 1.51-1.289c.071-.39-2.083-1.064-4.534-1.463-3.814-.62-6.648-.268-9.455.373-3.392.776-4.543.742-8.664 2.69-1.7.804-4.255 2.422-5.339 3.248"/><path id="xbi7aP" d="M197.349 2362.812h29.954c15.342 0 27.146-14.087 25.033-29.875l-11.228-87.945c-.974-7.282-6.967-12.702-14.044-12.702h-29.477c-7.076 0-13.07 5.42-14.043 12.702l-11.229 87.945c-2.113 15.788 9.69 29.875 25.034 29.875"/><path id="xbi7aQ" d="M409.387 2241.085l-7.7.932-.617-.968.406-.883-.586-.704 7.194-.932 1.086.649-.91.91z"/><path id="xbi7aR" d="M252.58 2334.81s2.079 14.458 21.382 14.458 5.841 8.999 5.841 8.999-46.362-4.676-45.92-4.832c.44-.156 8.312-16.833 8.312-16.833z"/><path id="xbi7aS" d="M708.385 2343.11c.989 3.742 1.465 9.386 1.614 12.886.07 1.668-1.442 7.418-2.917 10.55-.834 1.775-2.26 3.395-2.26 3.395s-1.951 3.25-2.523 3.516c-1.63.759-1.988-.855-1.988-.855s-1.875 4.725-2.805 4.222c-.572-.315-1.326-1.234-1.128-2.421 1.24-7.541 1.283-15.467-.945-16.92-2.23-1.449-3.709 6.493-5.339 8.497-1.576 1.935-6.61 3.175-4.766-.246 2.645-4.911 2.97-6.868 3.633-10.09.663-3.217 1.566-5.96 1.566-5.96l5.087-10.405-.283-19.92-29.625 134.656-42.29-192.237-11.917 10.213-2.105-5.339-8.048 4.5c-5.124 2.384-11.879.294-16.49-6.964l-27.59-43.45c-1.555-.813-3.185-1.588-5.012-3.063-4.323-3.485-5.84-6.425-8.935-9.525-3.992-3.992-9.062-7.23-10.698-9.165a1.351 1.351 0 0 1 .134-1.887l.31-.283a1.366 1.366 0 0 1 1.8.005l11.158 7.846.374-.588-12.856-12.09a1.351 1.351 0 0 1 .191-1.907l.663-.545a1.363 1.363 0 0 1 1.865.15l13.61 12.025.439-.423c.208-.117-10.704-12.04-13.61-15.793a1.338 1.338 0 0 1 .299-1.934l.876-.61c.561-.39 1.33-.3 1.785.214l14.62 15.419.331-.4c.203-.108-7.326-10.572-9.757-14.142a1.35 1.35 0 0 1 .475-1.95l.668-.365a1.354 1.354 0 0 1 1.737.385l12.45 16.151s.738.786 1.845 1.39c1.309-1.78.742-6.649 1.81-8.963 1.278-2.774 7.055-6.809 4.64-.967-2.416 5.841-.135 9.753.261 13.062.395 3.308.4 6.376.4 6.376l-.25 4.409 28.556 33.537s1.165-1.058 3.132-2.806l-1.85-4.682s18.971-20.715 29.738-25.568c6.824-3.073 12.083-4.757 16.08-5.366.62-.096 1.202-.166 1.763-.208.054-.14.09-.214.09-.214l2.512-.679v-.005l1.283-14.815s-21.856 1.694-26.414-.674c0 0-2.185-13.452-1.432-26.562.15-2.678.427-5.344.865-7.872.492.123 1 .235 1.513.331 9.223 1.812 22.08.834 39.82-5.227-.138.326-5.348 12.522 9.25 15.029 0 0 .006-.006.006-.022.952-2.725 6.44-5.857 11.323-5.611h.011c3.12.155 5.996 1.683 7.284 5.59 4.27 12.934-20.344 19.727-20.344 19.727l1.165 21.036 1.983.288 1.17.172c2.683.421 5.002.93 6.578 1.555 17.185 6.793 24.613 21.453 27.739 31.148l.006.016 2.126 9.353 3.596 15.777-3.195.79c1.208 5.26 2.255 10.567 2.496 14.057.56 8.417-6.146 53.45-7.354 61.446"/><path id="xbi7a" d="M645.17 2209.107a20.86 20.86 0 0 1 1.934-.275c.059-.183.1-.281.1-.281l2.755-.894v-.007c-1.547.437-3.282.978-4.789 1.457"/><path id="xbi7b" d="M713.44 2250.908h.028s-.513-4.037-2.828-9.718z"/><path id="xbi7aY" d="M685.855 2161.274h-.01c-4.887-.246-10.378 2.884-11.33 5.608 0 .016-.005.021-.005.021-14.607-2.505-9.394-14.692-9.255-15.018-17.751 6.056-30.615 7.034-39.843 5.223a26.027 26.027 0 0 1-1.513-.331c-.439 2.526-.716 5.191-.866 7.867-5.32-2.585-6.764-6.607-6.502-10.607-15.157-8.09-14.013-26.111-11.115-27.323 4.656-1.95 12.843 11.685 12.843 11.685s2.507-25.07 18.75-25.139c11.399-.053 15.52 17.208 15.52 17.208s14.608-8.791 30.995 8.15c16.12 16.658 2.775 22.464 2.331 22.656"/><path id="xbi7aZ" d="M685.839 2161.274c-8.442.288-11.148 5.26-11.329 5.608.952-2.724 6.442-5.854 11.329-5.608"/><path id="xbi7ba" d="M679.666 2125.24l-2.036 11.312 4.242 2.028 7.838-7.977"/><path id="xbi7bb" d="M635.441 2182.946c.34 2.168 3.32 3.499 6.946 2.932 3.626-.567 6.09-4.853 3.581-6.579-1.809-1.244-3.619-.405-6.568.476-2.491.745-4.299 1.003-3.959 3.17"/><path id="xbi7bc" d="M650.887 2191.86l14.555-3.08-15.052 9.66z"/><path id="xbi7bd" d="M638.809 2165.583a3.009 3.009 0 0 0 2.427 3.495 3.007 3.007 0 1 0 1.072-5.92 3.012 3.012 0 0 0-3.5 2.425"/><path id="xbi7be" d="M623.179 2165.583a3.009 3.009 0 0 0 2.427 3.495 3.007 3.007 0 1 0 1.072-5.92 3.012 3.012 0 0 0-3.5 2.425"/><path id="xbi7bf" d="M633.768 2166.512a6.496 6.496 0 0 1-6.5 6.493 6.496 6.496 0 0 1-6.498-6.493 6.496 6.496 0 0 1 6.499-6.492c3.59 0 6.5 2.907 6.5 6.492z"/><path id="xbi7bg" d="M649.638 2166.512a6.496 6.496 0 0 1-6.499 6.493c-3.59 0-6.499-2.907-6.499-6.493a6.496 6.496 0 0 1 6.5-6.492 6.496 6.496 0 0 1 6.498 6.492z"/><path id="xbi7bh" d="M635.29 2166.54l-4.97 12.14 5.957.075z"/><path id="xbi7bi" d="M649.87 2165.473h25.505"/><path id="xbi7bj" d="M636.28 2165.473h-2.42"/><path id="xbi7bk" d="M620.4 2165.473h2.58"/><path id="xbi7bl" d="M713.975 2266.65l-20.525 5.127 21.71.34z"/><path id="xbi7bm" d="M725.224 2461.816c0 4.904-3.98 8.879-8.889 8.878l-99.637-.007c-4.91 0-8.889-3.975-8.888-8.879 0-4.903 3.98-8.879 8.889-8.878l99.638.007c4.908 0 8.887 3.976 8.887 8.88"/><path id="xbi7bn" d="M726.323 2461.813c0 4.903-3.98 8.878-8.889 8.878l-47.706-.003c-4.909-.001-8.888-3.976-8.888-8.88 0-4.903 3.98-8.878 8.89-8.878l47.705.004c4.909 0 8.888 3.975 8.888 8.879"/><path id="xbi7bo" d="M679.794 2457.11c.944 0 1.709.76 1.71 1.702.003 1.7.003 4.298.004 5.999 0 .943-.766 1.704-1.71 1.704h-.008c-.944 0-1.71-.761-1.71-1.705 0-1.7.002-4.298.004-5.998a1.706 1.706 0 0 1 1.71-1.702"/><path id="xbi7bp" d="M673.804 2457.11c.947 0 1.714.767 1.714 1.712v5.981a1.713 1.713 0 0 1-3.428 0v-5.981c0-.945.768-1.712 1.714-1.712"/><path id="xbi7bq" d="M719.493 2461.82a2.388 2.388 0 0 1-2.39 2.386l-26.784-.002a2.388 2.388 0 1 1 0-4.774l26.785.002c1.32 0 2.39 1.07 2.389 2.387"/><path id="xbi7br" d="M601.24 2243.36l4.606 24.694 4.218-2.356z"/><linearGradient id="xbi7aT" x1="624.37" x2="624.37" y1="2152.76" y2="2454.02" gradientUnits="userSpaceOnUse"><stop offset="0" stop-color="#008fff"/><stop offset="1" stop-color="#008bff" stop-opacity=".52"/></linearGradient><linearGradient id="xbi7aV" x1="647.57" x2="647.56" y1="2209.1" y2="2208.14" gradientUnits="userSpaceOnUse"><stop offset="0" stop-color="#ea98c9"/><stop offset="1" stop-color="#008aff"/></linearGradient><linearGradient id="xbi7aX" x1="712.14" x2="712.03" y1="2251.09" y2="2244.39" gradientUnits="userSpaceOnUse"><stop offset="0" stop-color="#ea98c9"/><stop offset="1" stop-color="#008aff"/></linearGradient><clipPath id="xbi7aU"><use xlink:href="#xbi7a"/></clipPath><clipPath id="xbi7aW"><use xlink:href="#xbi7b"/></clipPath></defs><g><g transform="translate(-107 -2102)"><g><g><use fill="#afb3c1" xlink:href="#xbi7c"/></g><g><use fill="#ffc100" xlink:href="#xbi7d"/></g><g><use fill="#ffc100" xlink:href="#xbi7e"/></g><g><use fill="#ff9a00" xlink:href="#xbi7f"/></g><g><use fill="#ffc100" xlink:href="#xbi7g"/></g><g><use fill="#ff9a00" xlink:href="#xbi7h"/></g><g><use fill="#ff9a00" xlink:href="#xbi7i"/></g><g><use fill="#ff9a00" xlink:href="#xbi7j"/></g><g><use fill="#ffc100" xlink:href="#xbi7k"/></g><g><use fill="#353543" xlink:href="#xbi7l"/></g><g><use fill="#ff9a00" xlink:href="#xbi7m"/></g><g><use fill="#ff9a00" xlink:href="#xbi7n"/></g><g><use fill="#fff" xlink:href="#xbi7o"/></g><g><use fill="#5e5e6c" xlink:href="#xbi7p"/></g><g><use fill="#4c4c5b" xlink:href="#xbi7q"/></g><g><use fill="#fff" fill-opacity="0" stroke="#fff" stroke-linejoin="round" stroke-miterlimit="50" stroke-width="4.9" xlink:href="#xbi7r"/></g><g><use fill="#fff" fill-opacity="0" stroke="#fff" stroke-linejoin="round" stroke-miterlimit="50" stroke-width="4.9" xlink:href="#xbi7s"/></g><g><use fill="#fff" fill-opacity="0" stroke="#fff" stroke-linejoin="round" stroke-miterlimit="50" stroke-width="4.9" xlink:href="#xbi7t"/></g><g><use fill="#fff" fill-opacity="0" stroke="#fff" stroke-linejoin="round" stroke-miterlimit="50" stroke-width="4.9" xlink:href="#xbi7u"/></g><g><use fill="#fff" fill-opacity="0" stroke="#fff" stroke-linejoin="round" stroke-miterlimit="50" stroke-width="4.9" xlink:href="#xbi7v"/></g><g><use fill="#fff" fill-opacity="0" stroke="#fff" stroke-linejoin="round" stroke-miterlimit="50" stroke-width="4.9" xlink:href="#xbi7w"/></g><g><use fill="#fff" fill-opacity="0" stroke="#fff" stroke-linejoin="round" stroke-miterlimit="50" stroke-width="4.9" xlink:href="#xbi7x"/></g><g><use fill="#fff" fill-opacity="0" stroke="#fff" stroke-linejoin="round" stroke-miterlimit="50" stroke-width="4.9" xlink:href="#xbi7y"/></g><g><use fill="#fff" fill-opacity="0" stroke="#fff" stroke-linejoin="round" stroke-miterlimit="50" stroke-width="4.9" xlink:href="#xbi7z"/></g><g><use fill="#fff" fill-opacity="0" stroke="#fff" stroke-linejoin="round" stroke-miterlimit="50" stroke-width="4.9" xlink:href="#xbi7A"/></g><g><use fill="#fff" fill-opacity="0" stroke="#fff" stroke-linejoin="round" stroke-miterlimit="50" stroke-width="4.9" xlink:href="#xbi7B"/></g><g><use fill="#fff" fill-opacity="0" stroke="#fff" stroke-linejoin="round" stroke-miterlimit="50" stroke-width="4.9" xlink:href="#xbi7C"/></g><g><use fill="#fff" fill-opacity="0" stroke="#fff" stroke-miterlimit="50" stroke-width="4.9" xlink:href="#xbi7D"/></g><g><use fill="#5e5e6c" xlink:href="#xbi7E"/></g><g><use fill="#353543" xlink:href="#xbi7F"/></g><g><use fill="#353543" xlink:href="#xbi7G"/></g><g><use fill="#353543" xlink:href="#xbi7H"/></g><g><use fill="#353543" xlink:href="#xbi7I"/></g><g><use fill="#353543" xlink:href="#xbi7J"/></g><g><use fill="#f38c01" xlink:href="#xbi7K"/></g><g><use fill="#25003f" xlink:href="#xbi7L"/></g><g><use fill="#8f8f9d" xlink:href="#xbi7M"/></g><g><use fill="#fff" xlink:href="#xbi7N"/></g><g><use fill="#3f3f51" xlink:href="#xbi7O"/></g><g><use fill="#3f3f51" xlink:href="#xbi7P"/></g><g><use fill="#3f3f51" xlink:href="#xbi7Q"/></g><g><use fill="#3f3f51" xlink:href="#xbi7R"/></g><g><use fill="#3f3f51" xlink:href="#xbi7S"/></g><g><use fill="#8f8f9d" xlink:href="#xbi7T"/></g><g><use fill="#bfbfd0" xlink:href="#xbi7U"/></g><g><use fill="#bfbfd0" xlink:href="#xbi7V"/></g><g><use fill="#25003f" xlink:href="#xbi7W"/></g><g><use fill="#ff77ca" xlink:href="#xbi7X"/></g><g><use fill="#25003f" xlink:href="#xbi7Y"/></g><g><use fill="#ff77ca" xlink:href="#xbi7Z"/></g><g><use fill="#285fd7" xlink:href="#xbi7aa"/></g><g><use fill="#0b096f" xlink:href="#xbi7ab"/></g><g><use fill="#25003f" xlink:href="#xbi7ac"/></g><g><use fill="#25003f" xlink:href="#xbi7ad"/></g><g><use fill="#fff" fill-opacity="0" stroke="#0c245f" stroke-miterlimit="50" stroke-width="2.1" xlink:href="#xbi7ae"/></g><g><use fill="#ef3c86" xlink:href="#xbi7af"/></g><g><use fill="#ef3c86" xlink:href="#xbi7ag"/></g><g><use fill="#ff77ca" xlink:href="#xbi7ah"/></g><g><use fill="#0b096f" xlink:href="#xbi7ai"/></g><g><use fill="#ef3c86" xlink:href="#xbi7aj"/></g><g><use fill="#07070a" xlink:href="#xbi7ak"/></g><g><use fill="#fff" fill-opacity="0" stroke="#000" stroke-miterlimit="50" stroke-width="4.9" xlink:href="#xbi7al"/></g><g><use fill="#fff" fill-opacity="0" stroke="#000" stroke-miterlimit="50" stroke-width="4.9" xlink:href="#xbi7am"/></g><g><g><use fill="#fff" xlink:href="#xbi7an"/></g><g><use fill="#fff" fill-opacity="0" stroke="#000" stroke-miterlimit="50" stroke-width="4.9" xlink:href="#xbi7an"/></g></g><g><use fill="#f38c01" xlink:href="#xbi7ao"/></g><g><use fill="#fff" fill-opacity="0" stroke="#000" stroke-miterlimit="50" stroke-width="4.9" xlink:href="#xbi7ap"/></g><g><use fill="#ffc100" xlink:href="#xbi7aq"/></g><g><use fill="#ffc100" xlink:href="#xbi7ar"/></g><g><use fill="#121216" xlink:href="#xbi7as"/></g><g><use fill="#121216" xlink:href="#xbi7at"/></g><g><use fill="#121216" xlink:href="#xbi7au"/></g><g><use fill="#121216" xlink:href="#xbi7av"/></g><g><use fill="#121216" xlink:href="#xbi7aw"/></g><g><use fill="#121216" xlink:href="#xbi7ax"/></g><g><use fill="#353543" xlink:href="#xbi7ay"/></g><g><use fill="#525260" xlink:href="#xbi7az"/></g><g><use fill="#0b096f" xlink:href="#xbi7aA"/></g><g><use fill="#ef3c86" xlink:href="#xbi7aB"/></g><g><use fill="#13131e" xlink:href="#xbi7aC"/></g><g><use fill="#ffc100" xlink:href="#xbi7aD"/></g><g><use fill="#25003f" xlink:href="#xbi7aE"/></g><g><use fill="#f38c01" xlink:href="#xbi7aF"/></g><g><use fill="#fff" xlink:href="#xbi7aG"/></g><g><use fill="#5e5e6c" xlink:href="#xbi7aH"/></g><g><use fill="#5e5e6c" xlink:href="#xbi7aI"/></g><g><use fill="#353543" xlink:href="#xbi7aJ"/></g><g><use fill="#5e5e6c" xlink:href="#xbi7aK"/></g><g><use fill="#5e5e6c" xlink:href="#xbi7aL"/></g><g><use fill="#353543" xlink:href="#xbi7aM"/></g><g><use fill="#353543" xlink:href="#xbi7aN"/></g><g><use fill="#ff77ca" xlink:href="#xbi7aO"/></g><g><use fill="#525260" xlink:href="#xbi7aP"/></g><g><use fill="#0050d7" xlink:href="#xbi7aQ"/></g><g><use fill="#525260" xlink:href="#xbi7aR"/></g><g><use fill="url(#xbi7aT)" xlink:href="#xbi7aS"/></g></g><g><g/><g clip-path="url(#xbi7aU)"><use fill="url(#xbi7aV)" xlink:href="#xbi7a"/></g></g><g><g/><g clip-path="url(#xbi7aW)"><use fill="url(#xbi7aX)" xlink:href="#xbi7b"/></g></g><g><g><use fill="#0b096f" xlink:href="#xbi7aY"/></g><g><use fill="#0b096f" xlink:href="#xbi7aZ"/></g><g><use fill="#fff" fill-opacity="0" stroke="#0b096f" stroke-miterlimit="50" stroke-width="6.3" xlink:href="#xbi7ba"/></g><g><use fill="#fff" xlink:href="#xbi7bb"/></g><g><use fill="#285fd7" xlink:href="#xbi7bc"/></g><g><use fill="#0b096f" xlink:href="#xbi7bd"/></g><g><use fill="#0b096f" xlink:href="#xbi7be"/></g><g><use fill="#fff" fill-opacity="0" stroke="#26262c" stroke-miterlimit="50" stroke-width="2.1" xlink:href="#xbi7bf"/></g><g><use fill="#fff" fill-opacity="0" stroke="#26262c" stroke-miterlimit="50" stroke-width="2.1" xlink:href="#xbi7bg"/></g><g><use fill="#285fd7" xlink:href="#xbi7bh"/></g><g><use fill="#fff" fill-opacity="0" stroke="#26262c" stroke-miterlimit="50" stroke-width="2.1" xlink:href="#xbi7bi"/></g><g><use fill="#fff" fill-opacity="0" stroke="#26262c" stroke-miterlimit="50" stroke-width="2.1" xlink:href="#xbi7bj"/></g><g><use fill="#fff" fill-opacity="0" stroke="#26262c" stroke-miterlimit="50" stroke-width="2.1" xlink:href="#xbi7bk"/></g><g><use fill="#285fd7" xlink:href="#xbi7bl"/></g><g><use fill="#6a6a76" xlink:href="#xbi7bm"/></g><g><use fill="#3f3f4b" xlink:href="#xbi7bn"/></g><g><use fill="#00aeff" xlink:href="#xbi7bo"/></g><g><use fill="#00aeff" xlink:href="#xbi7bp"/></g><g><use fill="#6a6a76" xlink:href="#xbi7bq"/></g><g><use fill="#285fd7" xlink:href="#xbi7br"/></g></g></g></g></svg>