<svg xmlns="http://www.w3.org/2000/svg" xmlns:xlink="http://www.w3.org/1999/xlink" width="496" height="360" viewBox="0 0 496 360"><defs><path id="cf7ma" d="M117.66 4538.47h496.567v3.617H117.66z"/><path id="cf7mg" d="M117.66 4540.278c0 1 111.16 1.81 248.283 1.81s248.284-.81 248.284-1.81c0-.998-111.16-1.808-248.284-1.808-137.123 0-248.283.81-248.283 1.808"/><path id="cf7mh" d="M323.21 4540.466h9.039V4358.84h-9.039z"/><path id="cf7mi" d="M314.17 4540.466h9.039V4358.84h-9.039z"/><path id="cf7mj" d="M394.2 4540.466h9.039V4358.84H394.2z"/><path id="cf7mk" d="M385.16 4540.466h9.039V4358.84h-9.039z"/><path id="cf7ml" d="M323.21 4435.149h70.989v-76.309H323.21z"/><path id="cf7mm" d="M289.96 4358.831H527.2v-12.081H289.96z"/><path id="cf7mn" d="M509.49 4358.831h95.531v-12.081H509.49z"/><path id="cf7mo" d="M571.58 4540.466h9.665V4358.84h-9.665z"/><path id="cf7mp" d="M561.92 4540.466h9.665V4358.84h-9.665z"/><path id="cf7mq" d="M495.38 4540.466h9.665V4358.84h-9.665z"/><path id="cf7mr" d="M495.38 4451.054h76.202v-92.164H495.38z"/><path id="cf7ms" d="M422.57 4451.005h63.148v-92.165H422.57z"/><path id="cf7mt" d="M485.72 4540.466h9.665V4358.84h-9.665z"/><path id="cf7mu" d="M485.72 4374.989h95.532v-16.149H485.72z"/><path id="cf7mv" d="M314.17 4374.989h89.066v-16.149H314.17z"/><path id="cf7mw" d="M432.77 4399.562h42.747v-31.942H432.77z"/><path id="cf7mx" d="M432.77 4440.052h42.747v-31.942H432.77z"/><path id="cf7my" d="M460.84 4383.59c0 3.784-2.997 6.85-6.695 6.85-3.697 0-6.695-3.066-6.695-6.85 0-3.783 2.998-6.85 6.695-6.85 3.698 0 6.696 3.067 6.696 6.85"/><path id="cf7mz" d="M460.84 4424.08c0 3.784-2.997 6.85-6.695 6.85-3.697 0-6.695-3.066-6.695-6.85 0-3.783 2.998-6.85 6.695-6.85 3.698 0 6.696 3.067 6.696 6.85"/><path id="cf7mA" d="M488.654 4219.6l-20.572 76.173-4.885 18.089-1.199 4.447-7.681 28.44h-3.219v.037H420.3l.01-.037.777-2.871 6.903-25.569 1.2-4.447 4.885-18.089 20.571-76.173z"/><path id="cf7mB" d="M483.434 4219.6l-20.572 76.173-4.885 18.089-1.2 4.447-6.902 25.569-.778 2.871-.01.037H415.08l.01-.037.777-2.871 6.903-25.569 1.2-4.447.961-3.547.655-2.43 1.272-4.715.604-2.233 1.392-5.164 20.572-76.173z"/><path id="cf7mC" d="M378.83 4346.788h67.04v-2.908h-67.04z"/><path id="cf7mD" d="M427.54 4346.788h23.566v-2.908H427.54z"/><path id="cf7mE" d="M376.719 4182.7h174.94c1.733 0 2.985 1.744 2.511 3.498l-35.137 130.12c-.32 1.18-1.344 1.996-2.51 1.996H341.58c-1.732 0-2.984-1.744-2.51-3.498l35.137-130.12c.32-1.181 1.344-1.996 2.51-1.996"/><path id="cf7mF" d="M374.003 4182.7h172.104c2.143 0 3.691 2.158 3.106 4.327l-34.362 127.248c-.645 2.39-2.72 4.039-5.08 4.039H340.385c-3.506 0-6.04-3.53-5.08-7.08l33.618-124.494c.645-2.391 2.72-4.04 5.08-4.04"/><path id="cf7mG" d="M375.545 4188.79h166.348l-33.775 125.073H341.77z"/><path id="cf7mH" d="M519.85 4295.78l-4.997 18.5c-.645 2.39-2.72 4.039-5.08 4.039H340.385c-3.506 0-6.04-3.53-5.08-7.08l4.175-15.459z"/><path id="cf7mI" d="M425.204 4309.674c-.948 2.606-3.314 4.076-5.284 3.282-1.969-.795-2.796-3.552-1.847-6.159.95-2.606 3.315-4.076 5.284-3.281 1.97.794 2.796 3.55 1.847 6.158"/><path id="cf7mJ" d="M424.945 4301.492c1.554-.965 3.213-.417 3.213-.417s-.861 2.112-2.415 3.078c-1.555.965-3.213.417-3.213.417s.86-2.112 2.415-3.078"/><path id="cf7mb" d="M375.54 4188.79l-28.89 106.984h166.527l28.711-106.984z"/><path id="cf7mL" d="M341.77 4295.78h189.246v-107.11H341.77z"/><path id="cf7mc" d="M467.874 4188.79c-8.804 10.49-14.044 23.65-14.044 37.936 0 32.392 26.93 58.989 61.29 61.82l26.77-99.756z"/><path id="cf7md" d="M474.209 4207.57c-10.751.773-18.536 12.412-17.387 25.998 1.15 13.587 10.796 23.975 21.548 23.203 10.751-.771 18.534-12.411 17.386-25.997-1.109-13.111-10.13-23.244-20.422-23.244-.373 0-.75.014-1.125.04"/><path id="cf7me" d="M374.069 4188.03L345.1 4294.962h166.982l28.79-106.932"/><path id="cf7mR" d="M478.65 4231.137c.243 2.882-1.157 5.332-3.129 5.473-1.972.14-3.769-2.08-4.013-4.962-.245-2.88 1.156-5.33 3.128-5.472 1.972-.14 3.769 2.08 4.013 4.961"/><path id="cf7mT" d="M355.53 4247.392l90.405-11.162"/><path id="cf7mV" d="M462.813 4210.55l-16.873 25.68"/><path id="cf7mX" d="M477.094 4207.98l-31.154 28.243"/><path id="cf7mZ" d="M490.645 4220.98l-44.705 15.25"/><path id="cf7mab" d="M492.239 4242.696l-46.299-6.466"/><path id="cf7mad" d="M481.345 4255.445l-35.405-19.215"/><path id="cf7maf" d="M466.997 4253.127l-21.057-16.897"/><path id="cf7mag" d="M382.213 4196.619a.958.958 0 1 1-1.915.002.958.958 0 0 1 1.915-.002"/><path id="cf7mah" d="M399.745 4204.63c0 .89-.72 1.61-1.608 1.61a1.609 1.609 0 0 1-1.607-1.61c0-.889.72-1.61 1.607-1.61.888 0 1.608.721 1.608 1.61"/><path id="cf7mai" d="M383.514 4220.88c0 .89-.719 1.61-1.607 1.61a1.608 1.608 0 0 1-1.607-1.61c0-.889.72-1.61 1.607-1.61.888 0 1.607.721 1.607 1.61"/><path id="cf7maj" d="M426.417 4212.927c0 1.07-.866 1.937-1.933 1.937a1.935 1.935 0 0 1-1.934-1.937c0-1.07.866-1.937 1.934-1.937 1.067 0 1.933.867 1.933 1.937"/><path id="cf7mak" d="M425.728 4197.235a.625.625 0 1 1-1.25.001.625.625 0 0 1 1.25 0"/><path id="cf7mal" d="M432.043 4270.425c0 1.23-.995 2.226-2.222 2.226a2.224 2.224 0 0 1-2.221-2.226c0-1.229.995-2.225 2.221-2.225 1.227 0 2.222.996 2.222 2.225"/><path id="cf7mam" d="M385.357 4267.27a.92.92 0 1 1-1.838.002.92.92 0 0 1 1.838-.002"/><path id="cf7man" d="M360.637 4283.032a1.8 1.8 0 0 1-1.799 1.802 1.8 1.8 0 0 1-1.798-1.802 1.8 1.8 0 0 1 1.798-1.802 1.8 1.8 0 0 1 1.799 1.802"/><path id="cf7mao" d="M408.081 4255.202a.652.652 0 1 1-1.303 0 .652.652 0 0 1 1.303 0"/><path id="cf7map" d="M460.958 4287.353a1.83 1.83 0 0 1-1.829 1.832 1.83 1.83 0 0 1-1.829-1.832 1.83 1.83 0 0 1 1.83-1.833c1.01 0 1.828.82 1.828 1.833"/><path id="cf7maq" d="M449.72 4255.042a1.11 1.11 0 0 1-2.22 0 1.11 1.11 0 1 1 2.22 0"/><path id="cf7mar" d="M355.5 4290.279h61.995"/><path id="cf7mas" d="M426.3 4290.279h78.5"/><path id="cf7mat" d="M424.34 4291.103c-.562 1.788-2.185 2.868-3.627 2.414-1.44-.455-2.152-2.272-1.591-4.06.562-1.787 2.185-2.868 3.626-2.413 1.44.454 2.153 2.272 1.591 4.06"/><path id="cf7mau" d="M282.074 4350.876l-9.034-24.188 1.968-7.742 22.455-3.436s30.567 63.947-.617 56.835"/><path id="cf7mav" d="M225.373 4475.764L207.8 4422.17"/><path id="cf7maw" d="M239.12 4422.17l-45.79 53.445"/><path id="cf7max" d="M239.12 4422.17l65.665 52.848"/><path id="cf7may" d="M290.419 4422.17l-65.049 52.848"/><path id="cf7maz" d="M286.78 4422.17h7.421l31.767 117.714h-7.421z"/><path id="cf7maA" d="M211.818 4422.17h-7.421l-31.767 117.714h7.421z"/><path id="cf7maB" d="M251.23 4422.17h7.421l31.767 117.714h-7.421z"/><path id="cf7maC" d="M242.958 4422.17h-7.421l-31.767 117.714h7.421z"/><path id="cf7maD" d="M223.924 4471.534c-.416 1.498-.061 2.945.792 3.231.854.287 1.883-.696 2.299-2.194.416-1.498.061-2.945-.792-3.231-.854-.287-1.883.696-2.299 2.194"/><path id="cf7maE" d="M196.586 4422.537h31.232c15.996 0 28.303-14.163 26.1-30.037l-11.707-84.349c-1.016-7.321-7.264-12.771-14.642-12.771h-30.734c-7.378 0-13.626 5.45-14.643 12.771l-11.706 84.349c-2.204 15.874 10.103 30.037 26.1 30.037"/><path id="cf7maF" d="M204.74 4422.533h97.312c6.336 0 11.472-5.146 11.472-11.494v-1.019H204.74z"/><path id="cf7maG" d="M236.754 4425.634c-.416 1.498-.06 2.945.792 3.232.854.286 1.883-.696 2.3-2.194.415-1.499.06-2.946-.793-3.232-.853-.287-1.883.696-2.299 2.194"/><path id="cf7maH" d="M345.882 4510.642l-.143 13.152s27.535 4.645 36.87 15.905H327.75l2.298-37.599z"/><path id="cf7maI" d="M258.043 4507.628l-.152 15.645s12.282 1.718 17.282 16.3H235.41l3.977-17.165 1.556-15.648z"/><path id="cf7maJ" d="M330.056 4505.55l-1.276 17.432 16.967.816.143-13.152z"/><path id="cf7maK" d="M241.278 4502.24l-1.888 20.176 18.505.865.151-15.645z"/><path id="cf7maL" d="M335.378 4372.3h-95.645l-4.583 40.141h91.48l-1.35 103.754h29.335l13.855-106.423c2.482-19.9-13.037-37.472-33.092-37.472"/><path id="cf7maM" d="M271.16 4372.303H193.33s-17.298-101.153 46.958-101.153c47.496 0 59.852 47.756 59.852 47.756l-24.754 7.868z"/><path id="cf7maN" d="M297.39 4372.429c-13.114-.126-30.75-40.982-30.75-40.982l11.616-8.407 18.543 25.123"/><path id="cf7maO" d="M269.265 4339.381a4.715 4.715 0 0 1-5.524 3.741 4.723 4.723 0 0 1-3.734-5.534 4.715 4.715 0 0 1 5.524-3.741 4.723 4.723 0 0 1 3.734 5.534"/><path id="cf7maP" d="M265.817 4333.904a1.79 1.79 0 1 1-3.514-.68 1.79 1.79 0 1 1 3.514.68"/><path id="cf7maQ" d="M261.407 4336.564a1.79 1.79 0 1 1-3.514-.68 1.79 1.79 0 1 1 3.514.68"/><path id="cf7maR" d="M286.513 4329.196c.832 2.071.432 8.921.432 8.921s-.595 2.55-1.67 5.285c-1.076 2.734-1.804 4.342-1.894 9.587-.062 3.655-4.184-.539-4.655-2.96-.486-2.497 2.317-9.139-.567-9.57-2.884-.43-7.044 5.25-9.857 11.452-.442.974-1.647 1.136-2.355.98-1.149-.252-.428-4.853-.428-4.853s-1.194.912-2.337-.7c-.405-.57-.537-4.167-.537-4.167s-.494-2.093-.348-3.909c.257-3.206 1.871-8.305 2.819-9.447 2.297-2.77 6.513-7.274 9.638-8.937 3.093-1.645 10.415 4.973 11.759 8.318"/><path id="cf7maS" d="M294.247 4341.814a1.79 1.79 0 1 1-3.514-.68 1.79 1.79 0 1 1 3.514.68"/><path id="cf7maT" d="M289.545 4345.711a4.715 4.715 0 0 1-5.524 3.741 4.723 4.723 0 0 1-3.734-5.534 4.715 4.715 0 0 1 5.524-3.741 4.723 4.723 0 0 1 3.734 5.534"/><path id="cf7maU" d="M292.385 4343.491a4.715 4.715 0 0 1-5.524 3.741 4.723 4.723 0 0 1-3.734-5.534 4.716 4.716 0 0 1 5.524-3.741 4.723 4.723 0 0 1 3.734 5.534"/><path id="cf7maV" d="M226.2 4273.002c2.6 7.641 16.059 11.566 25.773 10.5 10.334-1.134 7.798-8.349 2.61-10.873-9.54-2.343-4.723-2.317-14.388-1.965-3.578.13-10.52 1.539-13.995 2.338"/><path id="cf7maW" d="M262.77 4206.67c1.731.286 19.102 9.754 3.227 24.18z"/><path id="cf7maX" d="M222.35 4243.564l1.017 3.976c12.442-7.084 3.21-16.892 3.21-16.892 18.804-.328 30.868-4.133 38.392-9.387-.178-.31-.36-.618-.549-.919l-1.188-.596-21.589-10.866-25.263 11.316 3.705 14.495z"/><path id="cf7maY" d="M220.31 4245.29c1.806 1.004 2.892 2.08 3.045 2.228-.607-.753-1.696-1.542-3.045-2.228"/><path id="cf7maZ" d="M228.697 4262l.509 10.772 23.41 1.965.177-10.809s14.582.342 19.408-2.488c0 0-.876-19.864-1.536-23.327-1.05-5.542-2.726-11.508-5.39-16.328a24.742 24.742 0 0 0-.301-.525c-7.524 5.254-19.588 9.059-38.393 9.387 0 0 9.233 9.807-3.209 16.891 0 0-.008-.006-.016-.021-.153-.15-1.239-1.225-3.045-2.229a18.9 18.9 0 0 0-5.268-1.722c-.008-.006-.018-.006-.027-.005-1.748-.287-3.516-.3-5.072.127l-.006-.002c-2.211.604-3.992 2.081-4.649 4.878-.004.022-.007.044-.014.067-2.693 11.886 23.422 13.37 23.422 13.37"/><path id="cf7mba" d="M209.936 4243.682l.006.002c1.555-.428 4.599-.893 10.366 1.6 1.897.82 2.892 2.08 3.045 2.229a.065.065 0 0 0 .017.021c12.441-7.084 3.208-16.892 3.208-16.892 18.806-.328 30.87-4.133 38.394-9.387 18.588-12.973 9.472-34.803 5.826-34.99-4.8-.24-7.717 14.668-7.717 14.668s-10.371-21.71-24.946-16.508c-10.232 3.657-8.326 20.503-8.326 20.503s-15.933-3.16-25.125 17.375c-7.997 17.869 2.41 20.892 5.252 21.379"/><path id="cf7mbb" d="M203.8 4209.03l5.49 9.503-3.142 3.198-9.608-4.624"/><path id="cf7mbc" d="M252.796 4263.925l-10.576-.505 10.449 7.678z"/><path id="cf7mbd" d="M269.358 4237.957a2.932 2.932 0 0 1-.576 4.1 2.92 2.92 0 0 1-4.094-.576 2.933 2.933 0 0 1 .577-4.102 2.92 2.92 0 0 1 4.093.578"/><path id="cf7mbe" d="M271.847 4334.094a1.79 1.79 0 1 1-3.514-.68 1.79 1.79 0 1 1 3.514.68"/><path id="cf7mbf" d="M275.707 4334.834a1.79 1.79 0 1 1-3.514-.68 1.79 1.79 0 1 1 3.514.68"/><path id="cf7mbg" d="M276.625 4339.511a4.715 4.715 0 0 1-5.524 3.741 4.723 4.723 0 0 1-3.734-5.534 4.715 4.715 0 0 1 5.524-3.741 4.723 4.723 0 0 1 3.734 5.534"/><path id="cf7mbh" d="M269.685 4343.141a4.715 4.715 0 0 1-5.524 3.741 4.723 4.723 0 0 1-3.734-5.534 4.715 4.715 0 0 1 5.524-3.741 4.723 4.723 0 0 1 3.734 5.534"/><path id="cf7mbi" d="M286.497 4336.613a1.79 1.79 0 1 1-3.514-.68 1.79 1.79 0 1 1 3.514.68"/><path id="cf7mbj" d="M281.357 4333.644a1.79 1.79 0 1 1-3.514-.68 1.79 1.79 0 1 1 3.514.68"/><path id="cf7mbk" d="M256.778 4238.727a2.932 2.932 0 0 1-.576 4.1 2.92 2.92 0 0 1-4.093-.576 2.932 2.932 0 0 1 .576-4.102 2.92 2.92 0 0 1 4.093.578"/><path id="cf7mbl" d="M192.181 4468.511c-.416 1.498-.546 2.783-.29 2.87.257.085.801-1.06 1.218-2.558.416-1.498.545-2.782.289-2.868-.256-.087-.801 1.058-1.217 2.556"/><path id="cf7mbm" d="M282.065 4345.371a4.715 4.715 0 0 1-5.524 3.741 4.723 4.723 0 0 1-3.734-5.534 4.716 4.716 0 0 1 5.524-3.741 4.723 4.723 0 0 1 3.734 5.534"/><path id="cf7mbn" d="M204.01 4425.912c-.415 1.498-.545 2.782-.288 2.869.255.085.8-1.06 1.216-2.558.416-1.498.546-2.782.29-2.868-.256-.086-.8 1.058-1.217 2.557"/><path id="cf7mbo" d="M293.972 4425.647c.382 1.509.897 2.67 1.15 2.591.254-.077.15-1.363-.233-2.873-.382-1.509-.898-2.67-1.15-2.591-.254.078-.15 1.364.233 2.873"/><path id="cf7mbp" d="M284.665 4339.961a4.715 4.715 0 0 1-5.524 3.741 4.723 4.723 0 0 1-3.734-5.534 4.715 4.715 0 0 1 5.524-3.741 4.723 4.723 0 0 1 3.734 5.534"/><path id="cf7mbq" d="M305.542 4470.646c.382 1.51.897 2.67 1.15 2.593.254-.078.15-1.364-.233-2.873-.382-1.51-.898-2.67-1.15-2.592-.254.077-.15 1.364.233 2.872"/><path id="cf7mbr" d="M261.45 4240.68l6.191 11.164-5.734.76z"/><path id="cf7mbs" d="M221.57 4300.03c5.807 8.16 8.759 21.8 8.759 21.8l-7.436 3.18"/><path id="cf7mbt" d="M291.944 4345.038l-9.494 25.085-3.65 9.643-20.35-3.942.201-10.311.525-26.823z"/><path id="cf7mbu" d="M268.318 4340.462l-6.934 35.931-2.934-.568.201-10.311 5.01-25.954z"/><path id="cf7mbv" d="M270.948 4378.244l-4.658-.902 6.934-35.932 4.66.902z"/><path id="cf7mbw" d="M287.453 4344.172l-5.009 25.954-3.65 9.644-2.934-.569 6.935-35.931z"/><path id="cf7mbx" d="M250.8 4363.261l11.73-7.395s2.584-1.073 5.713-1.89c3.129-.816 5.047-1.223 9.435-4.299 3.058-2.143 2.98 3.525 1.373 5.337-1.656 1.87-9.413 3.707-7.409 6.172 2.005 2.465 10.081 2.243 17.483.677 1.163-.245 2.283.58 2.734 1.216.732 1.03-3.643 3.235-3.643 3.235s1.727.368 1.337 2.21c-.138.65-2.99 2.908-2.99 2.908s-1.318 1.634-2.93 2.61c-2.848 1.726-8.363 3.547-10.079 3.507-4.156-.098-11.31-.624-15.235-2.019-3.882-1.38-2.528-7.128-7.519-12.269"/><path id="cf7mby" d="M254.45 4252.78s.225 4.097 4.645 3.81"/><path id="cf7mbz" d="M193.33 4372.3h62.966c13.007 0 23.177 11.116 21.901 23.94l-12.4 119.955h-28.843l4.882-103.754H221.38c-15.492 0-28.051-12.442-28.051-27.79z"/><path id="cf7mbA" d="M222.877 4325.01l-24.577 7.906s4.006 27.145 13.14 35.416c9.135 8.271 45.487 3.911 45.487 3.911l5.434-14.459-35.392-5.426z"/><path id="cf7mbB" d="M222.877 4325.01l-24.577 7.906 2.002 10.275z"/><path id="cf7mbC" d="M377.18 4346.907h72.141v-.036H377.18z"/><linearGradient id="cf7mN" x1="509.1" x2="533.55" y1="4165.13" y2="4289.55" gradientUnits="userSpaceOnUse"><stop offset="0" stop-color="#89969e"/><stop offset="1" stop-color="#050610"/></linearGradient><linearGradient id="cf7mP" x1="497.64" x2="443.48" y1="4248.99" y2="4206.34" gradientUnits="userSpaceOnUse"><stop offset="0" stop-color="#89969e"/><stop offset="1" stop-color="#050610"/></linearGradient><clipPath id="cf7mf"><use xlink:href="#cf7ma"/></clipPath><clipPath id="cf7mK"><use xlink:href="#cf7mb"/></clipPath><clipPath id="cf7mM"><use xlink:href="#cf7mc"/></clipPath><clipPath id="cf7mO"><use xlink:href="#cf7md"/></clipPath><clipPath id="cf7mQ"><use xlink:href="#cf7me"/></clipPath><clipPath id="cf7mS"><use xlink:href="#cf7me"/></clipPath><clipPath id="cf7mU"><use xlink:href="#cf7me"/></clipPath><clipPath id="cf7mW"><use xlink:href="#cf7me"/></clipPath><clipPath id="cf7mY"><use xlink:href="#cf7me"/></clipPath><clipPath id="cf7maa"><use xlink:href="#cf7me"/></clipPath><clipPath id="cf7mac"><use xlink:href="#cf7me"/></clipPath><clipPath id="cf7mae"><use xlink:href="#cf7me"/></clipPath></defs><g><g transform="translate(-118 -4182)"><g><g><g><g/><g clip-path="url(#cf7mf)"><use fill="#afb3c1" xlink:href="#cf7mg"/></g></g><g><use fill="#5e5e6c" xlink:href="#cf7mh"/></g><g><use fill="#353543" xlink:href="#cf7mi"/></g><g><use fill="#5e5e6c" xlink:href="#cf7mj"/></g><g><use fill="#353543" xlink:href="#cf7mk"/></g><g><use fill="#5e5e6c" xlink:href="#cf7ml"/></g><g><use fill="#353543" xlink:href="#cf7mm"/></g><g><use fill="#5e5e6c" xlink:href="#cf7mn"/></g><g><use fill="#5e5e6c" xlink:href="#cf7mo"/></g><g><use fill="#353543" xlink:href="#cf7mp"/></g><g><use fill="#5e5e6c" xlink:href="#cf7mq"/></g><g><use fill="#5e5e6c" xlink:href="#cf7mr"/></g><g><use fill="#353543" xlink:href="#cf7ms"/></g><g><use fill="#353543" xlink:href="#cf7mt"/></g><g><use fill="#353543" xlink:href="#cf7mu"/></g><g><use fill="#353543" xlink:href="#cf7mv"/></g><g><use fill="#5e5e6c" xlink:href="#cf7mw"/></g><g><use fill="#5e5e6c" xlink:href="#cf7mx"/></g><g><use fill="#353543" xlink:href="#cf7my"/></g><g><use fill="#353543" xlink:href="#cf7mz"/></g><g><use fill="#353543" xlink:href="#cf7mA"/></g><g><use fill="#81818e" xlink:href="#cf7mB"/></g><g><use fill="#81818e" xlink:href="#cf7mC"/></g><g><use fill="#353543" xlink:href="#cf7mD"/></g><g><use fill="#5e5e6c" xlink:href="#cf7mE"/></g><g><use fill="#353543" xlink:href="#cf7mF"/></g><g><use fill="#fff" xlink:href="#cf7mG"/></g><g><use fill="#b6bbce" xlink:href="#cf7mH"/></g><g><use fill="#353543" xlink:href="#cf7mI"/></g><g><use fill="#353543" xlink:href="#cf7mJ"/></g></g><g><g/><g clip-path="url(#cf7mK)"><use fill="#060606" xlink:href="#cf7mL"/></g></g><g><g/><g clip-path="url(#cf7mM)"><use fill="url(#cf7mN)" xlink:href="#cf7mc"/></g></g><g><g/><g clip-path="url(#cf7mO)"><use fill="url(#cf7mP)" xlink:href="#cf7md"/></g></g></g><g><g><g/><g clip-path="url(#cf7mQ)"><use fill="#364148" xlink:href="#cf7mR"/></g></g><g><g/><g clip-path="url(#cf7mS)"><use fill="#0ff" xlink:href="#cf7mT"/></g><g clip-path="url(#cf7mS)"><use fill="#fff" fill-opacity="0" stroke="#00d4d1" stroke-miterlimit="50" stroke-width="5.6" xlink:href="#cf7mT"/></g></g><g><g/><g clip-path="url(#cf7mU)"><use fill="#fff" fill-opacity="0" stroke="#00d4d1" stroke-miterlimit="50" stroke-width="2.8" xlink:href="#cf7mV"/></g></g><g><g/><g clip-path="url(#cf7mW)"><use fill="#fff" fill-opacity="0" stroke="#00d4d1" stroke-miterlimit="50" stroke-width="2.8" xlink:href="#cf7mX"/></g></g><g><g/><g clip-path="url(#cf7mY)"><use fill="#fff" fill-opacity="0" stroke="#00d4d1" stroke-miterlimit="50" stroke-width="2.8" xlink:href="#cf7mZ"/></g></g><g><g/><g clip-path="url(#cf7maa)"><use fill="#fff" fill-opacity="0" stroke="#00d4d1" stroke-miterlimit="50" stroke-width="2.8" xlink:href="#cf7mab"/></g></g><g><g/><g clip-path="url(#cf7mac)"><use fill="#fff" fill-opacity="0" stroke="#00d4d1" stroke-miterlimit="50" stroke-width="2.8" xlink:href="#cf7mad"/></g></g><g><g/><g clip-path="url(#cf7mae)"><use fill="#fff" fill-opacity="0" stroke="#00d4d1" stroke-miterlimit="50" stroke-width="2.8" xlink:href="#cf7maf"/></g></g></g><g><g><use fill="#cce9e8" xlink:href="#cf7mag"/></g><g><use fill="#cce9e8" xlink:href="#cf7mah"/></g><g><use fill="#cce9e8" xlink:href="#cf7mai"/></g><g><use fill="#cce9e8" xlink:href="#cf7maj"/></g><g><use fill="#cce9e8" xlink:href="#cf7mak"/></g><g><use fill="#cce9e8" xlink:href="#cf7mal"/></g><g><use fill="#cce9e8" xlink:href="#cf7mam"/></g><g><use fill="#cce9e8" xlink:href="#cf7man"/></g><g><use fill="#cce9e8" xlink:href="#cf7mao"/></g><g><use fill="#cce9e8" xlink:href="#cf7map"/></g><g><use fill="#cce9e8" xlink:href="#cf7maq"/></g><g><use fill="#fff" fill-opacity="0" stroke="#b6bbce" stroke-miterlimit="50" stroke-width="2.8" xlink:href="#cf7mar"/></g><g><use fill="#fff" fill-opacity="0" stroke="#737986" stroke-miterlimit="50" stroke-width="2.8" xlink:href="#cf7mas"/></g><g><use fill="#b6bbce" xlink:href="#cf7mat"/></g><g><use fill="#ff77ca" xlink:href="#cf7mau"/></g><g><use fill="#fff" fill-opacity="0" stroke="#000" stroke-miterlimit="50" stroke-width="4.9" xlink:href="#cf7mav"/></g><g><use fill="#fff" fill-opacity="0" stroke="#000" stroke-miterlimit="50" stroke-width="4.9" xlink:href="#cf7maw"/></g><g><g><use fill="#fff" xlink:href="#cf7max"/></g><g><use fill="#fff" fill-opacity="0" stroke="#000" stroke-miterlimit="50" stroke-width="4.9" xlink:href="#cf7max"/></g></g><g><use fill="#fff" fill-opacity="0" stroke="#000" stroke-miterlimit="50" stroke-width="4.9" xlink:href="#cf7may"/></g><g><use fill="#ffc100" xlink:href="#cf7maz"/></g><g><use fill="#f38c01" xlink:href="#cf7maA"/></g><g><use fill="#f38c01" xlink:href="#cf7maB"/></g><g><use fill="#ffc100" xlink:href="#cf7maC"/></g><g><use fill="#121216" xlink:href="#cf7maD"/></g><g><use fill="#a6a6b1" xlink:href="#cf7maE"/></g><g><use fill="#a6a6b1" xlink:href="#cf7maF"/></g><g><use fill="#121216" xlink:href="#cf7maG"/></g><g><use fill="#0b096f" xlink:href="#cf7maH"/></g><g><use fill="#0b096f" xlink:href="#cf7maI"/></g><g><use fill="#ef3c86" xlink:href="#cf7maJ"/></g><g><use fill="#ef3c86" xlink:href="#cf7maK"/></g><g><use fill="#121216" xlink:href="#cf7maL"/></g><g><use fill="#ffc100" xlink:href="#cf7maM"/></g><g><use fill="#ff77ca" xlink:href="#cf7maN"/></g><g><use fill="#ffe184" xlink:href="#cf7maO"/></g><g><use fill="#ffe184" xlink:href="#cf7maP"/></g><g><use fill="#ffe184" xlink:href="#cf7maQ"/></g><g><use fill="#ff77ca" xlink:href="#cf7maR"/></g><g><use fill="#ffe184" xlink:href="#cf7maS"/></g><g><use fill="#ffd161" xlink:href="#cf7maT"/></g><g><use fill="#ffd161" xlink:href="#cf7maU"/></g><g><use fill="#ff77ca" xlink:href="#cf7maV"/></g><g><use fill="#0b096f" xlink:href="#cf7maW"/></g><g><use fill="#ff77ca" xlink:href="#cf7maX"/></g><g><use fill="#ff77ca" xlink:href="#cf7maY"/></g><g><use fill="#ff77ca" xlink:href="#cf7maZ"/></g><g><use fill="#0b096f" xlink:href="#cf7mba"/></g><g><use fill="#fff" fill-opacity="0" stroke="#0b096f" stroke-miterlimit="50" stroke-width="6.3" xlink:href="#cf7mbb"/></g><g><use fill="#ef3c86" xlink:href="#cf7mbc"/></g><g><use fill="#0b096f" xlink:href="#cf7mbd"/></g><g><use fill="#ffe184" xlink:href="#cf7mbe"/></g><g><use fill="#ffe184" xlink:href="#cf7mbf"/></g><g><use fill="#ffd161" xlink:href="#cf7mbg"/></g><g><use fill="#ffd161" xlink:href="#cf7mbh"/></g><g><use fill="#ffe184" xlink:href="#cf7mbi"/></g><g><use fill="#ffe184" xlink:href="#cf7mbj"/></g><g><use fill="#0b096f" xlink:href="#cf7mbk"/></g><g><use fill="#121216" xlink:href="#cf7mbl"/></g><g><use fill="#ffd161" xlink:href="#cf7mbm"/></g><g><use fill="#121216" xlink:href="#cf7mbn"/></g><g><use fill="#121216" xlink:href="#cf7mbo"/></g><g><use fill="#ffd161" xlink:href="#cf7mbp"/></g><g><use fill="#121216" xlink:href="#cf7mbq"/></g><g><use fill="#285fd7" xlink:href="#cf7mbr"/></g><g><use fill="#fff" fill-opacity="0" stroke="#fa8400" stroke-miterlimit="50" stroke-width="3.5" xlink:href="#cf7mbs"/></g><g><use fill="#f52121" xlink:href="#cf7mbt"/></g><g><use fill="#ead0d0" xlink:href="#cf7mbu"/></g><g><use fill="#ead0d0" xlink:href="#cf7mbv"/></g><g><use fill="#ead0d0" xlink:href="#cf7mbw"/></g><g><use fill="#ff77ca" xlink:href="#cf7mbx"/></g><g><use fill="#fff" fill-opacity="0" stroke="#010098" stroke-miterlimit="50" stroke-width="2.8" xlink:href="#cf7mby"/></g><g><use fill="#2b2b3b" xlink:href="#cf7mbz"/></g><g><use fill="#ff77ca" xlink:href="#cf7mbA"/></g><g><use fill="#ef3c86" xlink:href="#cf7mbB"/></g><g><use fill="#353543" xlink:href="#cf7mbC"/></g></g></g></g></svg>