<svg xmlns="http://www.w3.org/2000/svg" xmlns:xlink="http://www.w3.org/1999/xlink" width="510" height="459" viewBox="0 0 510 459"><defs><path id="mmaja" d="M1437.324 650.235c0 .975-113.528 1.765-253.572 1.765-140.044 0-253.572-.79-253.572-1.765 0-.974 113.528-1.765 253.572-1.765 140.044 0 253.572.79 253.572 1.765"/><path id="mmajb" d="M1425.023 650.233H949.79c-.005-.26-.01-.522-.01-.786 0-13.98 0-31.25 16.965-41.767 26-16.119 53.446 9.915 53.009-22.238-.454-33.41-15.432-207.939-15.432-207.939l4.444-13.244s34.755 139.166 43.678 186.628c9.547 50.783 19.982-1.316 53.713-2.856 31.84-1.452 46.67 16.578 52.75 38.764 18.422-5.409 35.407-8.263 48.257 4.124 17.512-44.24 46.371-6.077 43.023-47.521-3.938-48.74-19.31-198.95-19.31-198.95l6.535-8.308s32.958 138.422 46.502 199.787c9.592 43.467 34.255-3.07 76.663 18.829 33.237 17.163 24.93 57.13 24.93 57.13s36.375-3.606 39.516 38.347"/><path id="mmajc" d="M1128.86 627.283c0 8.49-2.556 16.38-6.942 22.948h-68.937a41.126 41.126 0 0 1-6.873-20.588 42.057 42.057 0 0 1-.068-2.36c0-22.858 18.54-41.393 41.41-41.393 4.619 0 9.059.755 13.207 2.151 16.394 5.509 28.202 20.998 28.202 39.242"/><path id="mmajd" d="M1262.11 649.487c0 .248-.005.5-.01.749h-63.18c-.005-.248-.01-.501-.01-.75 0-14.707 10.062-27.07 23.682-30.588a31.805 31.805 0 0 1 7.917-.998c1.576 0 3.128.115 4.642.339 15.253 2.244 26.958 15.38 26.958 31.248"/><path id="mmaje" d="M1171.783 649.259c0 .322-.006.65-.012.972h-81.969c-.006-.322-.012-.65-.012-.972 0-19.08 13.054-35.12 30.724-39.685a41.276 41.276 0 0 1 10.272-1.294c2.045 0 4.058.148 6.022.44 19.79 2.91 34.975 19.954 34.975 40.539"/><path id="mmajf" d="M1055.586 649.704c0 .174-.004.352-.007.526h-44.392a27.013 27.013 0 0 1-.007-.526c0-10.334 7.07-19.021 16.64-21.493a22.382 22.382 0 0 1 8.824-.463c10.718 1.577 18.942 10.807 18.942 21.956"/><path id="mmajg" d="M993.216 649.979l-.003.255h-21.5c-.002-.084-.003-.17-.003-.255 0-5.005 3.424-9.212 8.059-10.41a10.812 10.812 0 0 1 4.274-.223c5.19.763 9.173 5.233 9.173 10.633"/><path id="mmajh" d="M1396.036 649.704c0 .174-.004.352-.007.526h-44.393a27.012 27.012 0 0 1-.006-.526c0-10.334 7.07-19.021 16.64-21.493a22.379 22.379 0 0 1 8.824-.463c10.717 1.577 18.942 10.807 18.942 21.956"/><path id="mmaji" d="M1342.677 628.721c0 7.734-1.824 15.046-5.064 21.518h-86.282c-3.247-6.472-5.071-13.784-5.071-21.518 0-26.613 21.587-48.191 48.212-48.191a47.987 47.987 0 0 1 16.456 2.885c18.52 6.719 31.749 24.47 31.749 45.306"/><path id="mmajj" d="M1010.327 589.3a6.612 6.612 0 0 1-6.614 6.611 6.612 6.612 0 0 1 0-13.221 6.612 6.612 0 0 1 6.614 6.61"/><path id="mmajk" d="M939.386 628.166a3.807 3.807 0 0 1-3.808 3.807 3.807 3.807 0 1 1 3.808-3.807"/><path id="mmajl" d="M1235.799 550.586c0 5.227-4.24 9.465-9.47 9.465s-9.469-4.238-9.469-9.465c0-5.228 4.24-9.466 9.47-9.466s9.469 4.238 9.469 9.466"/><path id="mmajm" d="M1304.036 542.026a3.907 3.907 0 1 1-7.815-.002 3.907 3.907 0 0 1 7.815.002"/><path id="mmajn" d="M1439.617 612.935c0 4.979-4.038 9.015-9.019 9.015-4.98 0-9.018-4.036-9.018-9.015 0-4.979 4.038-9.015 9.018-9.015 4.981 0 9.02 4.036 9.02 9.015"/><path id="mmajo" d="M1022.411 380.707l-28.46 3.811-12.08-90.157c-2.665-19.884 9.925-34.021 9.925-34.021s15.869 10.326 18.534 30.21l12.081 90.157"/><path id="mmajp" d="M1019.875 361.746l-28.46 3.811-8.475-63.246 28.46-3.811z"/><path id="mmajq" d="M1020.785 389.751l-22.883 3.064-1.162-8.67 22.883-3.065z"/><path id="mmajr" d="M980.74 390.269l13.21-5.753-2.223-16.596-11.637 17.495z"/><path id="mmajs" d="M1036.674 382.78l-14.26-2.075-2.224-16.595 15.833 13.817z"/><path id="mmajt" d="M1227.142 329.007l-219.056 29.33-6.746-50.341 101.003-78.276 118.052 48.946z"/><path id="mmaju" d="M1171.288 271.739l8.523 63.602-124.397 16.657-8.523-63.603a24.929 24.929 0 0 1 9.44-23.016l46.014-35.659 53.776 22.298a24.935 24.935 0 0 1 15.167 19.72"/><path id="mmajv" d="M1249.861 347.587l-28.46 3.811-12.08-90.157c-2.665-19.884 9.925-34.021 9.925-34.021s15.869 10.326 18.534 30.21l12.081 90.157"/><path id="mmajw" d="M1247.325 328.626l-28.46 3.81-8.475-63.246 28.46-3.81z"/><path id="mmajx" d="M1248.235 356.631l-22.883 3.064-1.162-8.67 22.883-3.065z"/><path id="mmajy" d="M1208.19 357.149l13.211-5.753-2.223-16.596-11.638 17.495z"/><path id="mmajz" d="M1264.124 349.66l-14.26-2.075-2.224-16.595 15.833 13.817z"/><path id="mmajA" d="M1077.807 471.968l8.178 8.862s-18.915 17.372-20.535 30.59l40.702-26.585-19.982-27.555z"/><path id="mmajB" d="M1087.878 459.89l9.217 12.806-11.107 8.136-8.178-8.862z"/><path id="mmajC" d="M1163.065 512.386l8.687 8.364s-8.086 27.735-8.922 41.027l28.314-40.173-20.599-24.374z"/><path id="mmajD" d="M1172.396 499.74l8.981 10.286-9.63 10.731-8.687-8.364z"/><path id="mmajE" d="M1032.88 367.34s46.298-.91 49.016-7.517c5.342-12.993-1.016-56.183-1.016-56.183l-27.223 4.709 4.68 39.204-31.477 6.825"/><path id="mmajF" d="M1081.417 349.183l-6.718-28.656-22.25 4.196s-.46-35.094 5.245-43.804c4.91-7.495 13.211-17.248 34.105-21.517 31.068-6.348 38.606-3.092 49.009 4.849 8.988 6.86 21.35 28.228 21.35 28.228l-23.285 12.717 7.833 26.89z"/><path id="mmajG" d="M1094.79 195.7l1.4 9.483 3.891.476 4.07-8.387"/><path id="mmajH" d="M1049.567 219.96s-8.486 19.789 9.886 19.786z"/><path id="mmajI" d="M1086.016 268.256l-3.029-11.64s-16.359 5.557-20.656 4.553c0 0-7.407-16.998-7.871-30.27l11.495-17.282 24.55-4.367 8.294 21.105c.313-4.04 10.604-11.625 15.486-3.986 6.297 9.85-11.766 20.233-11.766 20.233l4.644 15.203"/><path id="mmajJ" d="M1086.012 260.676l-5.347 1.938s-2.918 16.141 13.255 12.793c13.069-2.707 15.27-18.817 15.27-18.817l-7.22.817"/><path id="mmajK" d="M1107.034 223.269s10.485-7.739-6.74-18.363c-17.225-10.624-27.507-.214-27.507-.214s-7.087-13.49-16.56-11.033c-13.493 3.5-10.258 24.896-10.258 24.896s-9.702-9.612-13.16-7.004c-3.458 2.609 6.045 40.324 55.112 8.262 0 0-1.971 11.571 10.881 10.544 0 0 1.017-4.983 8.232-7.088"/><path id="mmajL" d="M1117.84 256.052s1.533-.938 10.33 1.329c0 0-6.745 24.418 13.096 69.692l-3.295 3.105s-24.726-31.05-20.132-74.126"/><path id="mmajM" d="M1065.037 272.035s5.633-5.788 9.31-6.605c0 0-8.899 19.769 3.572 68.812l2.78 11.852s-21.288-31.848-15.662-74.06"/><path id="mmajN" d="M1072.37 253.578c.565 1.798 4.901 2.39 7.42.501 5.582-4.181 3.867-9.718.434-9.628-4.284.113-3.27 4.032-5.261 5.356-2.28 1.513-3.006 2.457-2.593 3.771"/><path id="mmajO" d="M1083.01 256.68l12.774-6.1-11.32 11.561z"/><path id="mmajP" d="M1067.427 240.16l-1.557 11.156 4.97-1.2z"/><path id="mmajQ" d="M1071.434 240.054c.256 1.824 1.555 3.151 2.9 2.962 1.347-.188 2.23-1.82 1.974-3.646-.256-1.824-1.554-3.151-2.9-2.962-1.346.188-2.23 1.82-1.974 3.646"/><path id="mmajR" d="M1059.554 242.684c.256 1.824 1.555 3.151 2.9 2.962 1.347-.188 2.23-1.82 1.974-3.646-.256-1.824-1.554-3.151-2.9-2.962-1.346.188-2.23 1.82-1.974 3.646"/><path id="mmajS" d="M1081.42 349.18s-59.39 31.606-65.538 49.28c-6.614 19.012 60 81.583 60 81.583l20.576-14.874-37.665-59.047 70.36-38.779-15.12-26.703z"/><path id="mmajT" d="M1109.167 341.921s-4.336 86.92 0 104.749c2.325 9.559 55.286 76.124 55.286 76.124l17.036-20.634-36.35-68.712 4.484-102.768z"/><path id="mmajU" d="M1121.98 339.445s43.196 6.967 49.076 1.413c9.415-8.894-12.15-46.598-12.15-46.598l-21.01 11.509 8.264 17.314-25.51.214"/><path id="mmajV" d="M1013.43 343.07l22.145 29.448"/><path id="mmajW" d="M1115.326 346.23l-7.816-36.84"/><path id="mmajX" d="M1027.362 359.03c4.457 4.546 6.058 10.492 3.576 13.281-2.483 2.79-8.107 1.364-12.564-3.183-4.457-4.546-6.057-10.493-3.575-13.281 2.482-2.79 8.107-1.364 12.563 3.182"/><path id="mmajY" d="M1026.533 355.27c-.226 3.71-4.192 3.944-4.192 3.944l-.591-9.314 12.304 2.92-.69 6.394z"/><path id="mmajZ" d="M1124.297 325.134s-11.911-8.063-14.818-7.84c-3.498.27-8.601 2.835-10.437 4.198-1.836 1.364-.376 4.923.763 5.702 0 0-2.15 3.05.602 6.148 0 0-.193 3.083 2.698 4.708 0 0 .661 3.174 4.054 3.285 3.393.11 11.316-1.333 17.51-2.502"/><path id="mmajaa" d="M1013.43 343.074l57.184-75.414"/><path id="mmajab" d="M1122.566 256.36l-15.056 53.029"/><path id="mmajac" d="M1107.752 378.98l.51-9.88-25.932 23.805z"/><path id="mmajad" d="M1137.89 305.769l21.01-11.509-17.64 18.568z"/><path id="mmajae" d="M1055.54 324.136l.928 7.773 14.816-5.541-1.66-4.888z"/></defs><g><g transform="translate(-930 -193)"><g><g><use fill="#afb4c8" xlink:href="#mmaja"/></g><g><use fill="#b5babd" xlink:href="#mmajb"/></g><g><use fill="#d7dbde" xlink:href="#mmajc"/></g><g><use fill="#d7dbde" xlink:href="#mmajd"/></g><g><use fill="#d7dbde" xlink:href="#mmaje"/></g><g><use fill="#d7dbde" xlink:href="#mmajf"/></g><g><use fill="#bec2c7" xlink:href="#mmajg"/></g><g><use fill="#d7dbde" xlink:href="#mmajh"/></g><g><use fill="#d7dbde" xlink:href="#mmaji"/></g><g><use fill="#d7dbde" xlink:href="#mmajj"/></g><g><use fill="#d7dbde" xlink:href="#mmajk"/></g><g><use fill="#d7dbde" xlink:href="#mmajl"/></g><g><use fill="#d7dbde" xlink:href="#mmajm"/></g><g><use fill="#d7dbde" xlink:href="#mmajn"/></g><g><use fill="#49a2ff" xlink:href="#mmajo"/></g><g><use fill="#285fd7" xlink:href="#mmajp"/></g><g><use fill="#285fd7" xlink:href="#mmajq"/></g><g><use fill="#285fd7" xlink:href="#mmajr"/></g><g><use fill="#285fd7" xlink:href="#mmajs"/></g><g><use fill="#49a2ff" xlink:href="#mmajt"/></g><g><use fill="#285fd7" xlink:href="#mmaju"/></g><g><use fill="#49a2ff" xlink:href="#mmajv"/></g><g><use fill="#285fd7" xlink:href="#mmajw"/></g><g><use fill="#285fd7" xlink:href="#mmajx"/></g><g><use fill="#285fd7" xlink:href="#mmajy"/></g><g><use fill="#285fd7" xlink:href="#mmajz"/></g><g><use fill="#0b096f" xlink:href="#mmajA"/></g><g><use fill="#ef3c86" xlink:href="#mmajB"/></g><g><use fill="#0b096f" xlink:href="#mmajC"/></g><g><use fill="#ef3c86" xlink:href="#mmajD"/></g><g><use fill="#ff77ca" xlink:href="#mmajE"/></g><g><use fill="#ffc100" xlink:href="#mmajF"/></g><g><use fill="#fff" fill-opacity="0" stroke="#0b096f" stroke-miterlimit="50" stroke-width="6.3" xlink:href="#mmajG"/></g><g><use fill="#0b096f" xlink:href="#mmajH"/></g><g><use fill="#ff77ca" xlink:href="#mmajI"/></g><g><use fill="#ff77ca" xlink:href="#mmajJ"/></g><g><use fill="#0b096f" xlink:href="#mmajK"/></g><g><use fill="#1e202d" xlink:href="#mmajL"/></g><g><use fill="#1e202d" xlink:href="#mmajM"/></g><g><use fill="#fff" xlink:href="#mmajN"/></g><g><use fill="#ef3c86" xlink:href="#mmajO"/></g><g><use fill="#285fd7" xlink:href="#mmajP"/></g><g><use fill="#0b096f" xlink:href="#mmajQ"/></g><g><use fill="#0b096f" xlink:href="#mmajR"/></g><g><use fill="#2b2b3b" xlink:href="#mmajS"/></g><g><use fill="#2b2b3b" xlink:href="#mmajT"/></g><g><use fill="#ff77ca" xlink:href="#mmajU"/></g><g><use fill="#fff" fill-opacity="0" stroke="#1c2127" stroke-miterlimit="50" stroke-width="14" xlink:href="#mmajV"/></g><g><use fill="#fff" fill-opacity="0" stroke="#1c2127" stroke-miterlimit="50" stroke-width="12.6" xlink:href="#mmajW"/></g><g><use fill="#ff77ca" xlink:href="#mmajX"/></g><g><use fill="#ff77ca" xlink:href="#mmajY"/></g><g><use fill="#ff77ca" xlink:href="#mmajZ"/></g><g><use fill="#fff" fill-opacity="0" stroke="#1c2127" stroke-miterlimit="50" stroke-width="3.5" xlink:href="#mmajaa"/></g><g><use fill="#fff" fill-opacity="0" stroke="#1c2127" stroke-miterlimit="50" stroke-width="3.5" xlink:href="#mmajab"/></g><g><use fill="#151b21" xlink:href="#mmajac"/></g><g><use fill="#ef3c86" xlink:href="#mmajad"/></g><g><use fill="#ef3c86" xlink:href="#mmajae"/></g></g></g></g></svg>