<svg xmlns="http://www.w3.org/2000/svg" xmlns:xlink="http://www.w3.org/1999/xlink" width="560" height="475" viewBox="0 0 560 475"><defs><path id="aibka" d="M1066.74 636.52h352.047v4.693H1066.74z"/><path id="aibkc" d="M1418.787 638.867c0 1.296-78.807 2.346-176.023 2.346-97.215 0-176.024-1.05-176.024-2.346s78.81-2.347 176.024-2.347c97.216 0 176.023 1.05 176.023 2.347"/><path id="aibkd" d="M1323.33 550.644l24.28-73.944"/><path id="aibke" d="M1304.33 476.7l63.264 73.738"/><path id="aibkf" d="M1304.327 476.7l-90.727 72.914"/><path id="aibkg" d="M1233.45 476.7l89.875 72.914"/><path id="aibkh" d="M1238.483 476.7h-10.253l-43.89 162.41h10.253z"/><path id="aibki" d="M1342.05 476.7h10.253l43.89 162.41h-10.253z"/><path id="aibkj" d="M1287.593 476.7h-10.253l-43.89 162.41h10.253z"/><path id="aibkk" d="M1299.03 476.7h10.254l43.89 162.41h-10.254z"/><path id="aibkl" d="M1325.321 544.806c.575 2.067.085 4.063-1.095 4.459-1.179.395-2.6-.96-3.176-3.027-.574-2.068-.084-4.064 1.095-4.46 1.18-.395 2.602.96 3.176 3.028"/><path id="aibkm" d="M1363.086 477.207h-43.151c-22.102 0-39.105-19.54-36.062-41.442l16.175-116.374c1.404-10.101 10.037-17.621 20.23-17.621h42.464c10.194 0 18.827 7.52 20.23 17.62l16.175 116.375c3.044 21.901-13.96 41.442-36.06 41.442"/><path id="aibkn" d="M1351.833 477.204H1216.91c-8.495 0-15.381-6.89-15.381-15.387v-1.877h150.303z"/><path id="aibko" d="M1307.591 481.485c.575 2.068.085 4.064-1.094 4.46-1.18.395-2.6-.96-3.176-3.027-.575-2.068-.085-4.064 1.094-4.46 1.18-.395 2.602.96 3.176 3.027"/><path id="aibkp" d="M1156.813 598.766l.198 18.146s-38.045 6.408-50.941 21.943h75.796l-3.175-51.875z"/><path id="aibkq" d="M1278.187 594.609l.21 21.584s-16.97 2.37-23.877 22.49h54.937L1303.963 615l-2.15-21.59z"/><path id="aibkr" d="M1178.697 591.74l1.764 24.05-23.443 1.127-.198-18.147z"/><path id="aibks" d="M1301.348 587.17l2.608 27.837-25.567 1.193-.209-21.584z"/><path id="aibkt" d="M1171.343 407.9h132.148l6.333 55.383H1183.43l1.867 143.147h-40.532l-19.143-146.83c-3.429-27.455 18.013-51.7 45.722-51.7"/><path id="aibku" d="M1367.596 407.9h-86.997c-17.971 0-32.022 15.337-30.26 33.03l17.133 165.5h39.85l-6.744-143.147h28.26c21.405 0 38.758-17.167 38.758-38.343z"/><path id="aibkv" d="M1213.605 294.071l-30.76 7.593-81.028-11.044-4.877 17.601s60.395 24.112 85.154 24.308c24.759.195 53.081-11.711 53.081-11.711z"/><path id="aibkw" d="M1250.727 327.914l9.332 79.986h107.537s24.758-118.99-61.771-138.861c-40.92-9.397-101.035 24.926-101.035 24.926l8.752 44.833z"/><path id="aibkx" d="M1324.53 275.602c-1.08 12.722-18.196 24.724-32.575 22.035-15.298-2.862-20.712-13.697-13.552-26.928 14.362-3.318 19.227-5.253 31.84-.79 5.034 1.782 10.007 3.28 14.287 5.683"/><path id="aibky" d="M1231.736 210.3c-1.93 1.466-17.062 24.227 11.622 31.585z"/><path id="aibkz" d="M1304.863 229.225l1.316 5.507c-19.762-.616-14.794-18.54-14.794-18.54-23.189 11.734-40.38 14.875-52.955 13.32.018-.494.043-.988.08-1.476l1.066-1.494 19.385-27.188 38.154-2.494 4.803 20.077z"/><path id="aibkA" d="M1308.476 230.02c-1.561 2.39-2.195 4.403-2.286 4.684.256-1.311 1.079-2.976 2.286-4.684"/><path id="aibkB" d="M1312.445 253.2l2.024 19.82-29.82 15.894-2.665-15.643s-24.54 4.616-30.917 2.354c0 0-5.024-9.715-8.742-21.87-2.286-7.44-4.078-15.801-3.926-23.4.007-.28.019-.561.03-.836 12.577 1.555 29.767-1.585 52.955-13.319 0 0-4.967 17.924 14.796 18.54 0 0 .005-.012.005-.037.092-.28.725-2.293 2.286-4.684.366-.506.756-1.018 1.183-1.524a25.966 25.966 0 0 1 4.145-3.977c.006-.012.018-.018.03-.024 1.951-1.476 4.103-2.634 6.279-3.116l.006-.006c3.09-.69 6.218-.037 8.821 2.951a.58.58 0 0 0 .06.074c10.943 12.764-16.55 28.803-16.55 28.803"/><path id="aibkC" d="M1320.115 221.365l-.006.006c-2.176.482-6.193 1.878-11.637 8.642-1.79 2.224-2.194 4.403-2.286 4.683 0 .025-.005.037-.005.037-19.763-.616-14.796-18.54-14.796-18.54-23.188 11.734-40.378 14.875-52.954 13.32-31.065-3.836-33.978-36.354-29.645-38.934 5.712-3.39 18.873 12.917 18.873 12.917s-1.304-33.183 19.854-36.238c14.857-2.14 23.372 19.644 23.372 19.644s17.434-14.137 41.885 4.988c21.275 16.643 10.503 27.048 7.345 29.475"/><path id="aibkD" d="M1305.302 175.13l-.592 15.139 5.899 1.874 8.762-11.842"/><path id="aibkE" d="M1266.13 264.379s7.834 0 7.223-6.629"/><path id="aibkF" d="M1281.99 273.266l15.869-3.346-13.917 14.104z"/><path id="aibkG" d="M1266.673 244.508a4.04 4.04 0 0 0 8.07.324 4.039 4.039 0 1 0-8.07-.324"/><path id="aibkH" d="M1246.153 247.498a4.04 4.04 0 1 0 4.198-3.875 4.039 4.039 0 0 0-4.198 3.875"/><path id="aibkI" d="M1324.827 367.95l34.388 14.674s-6.007 25.39-18.628 36.801c-12.62 11.413-87.857 51.719-87.857 51.719V447.12l61.13-49.442z"/><path id="aibkJ" d="M1369.183 540.634c.575 2.067.754 3.84.4 3.958-.354.119-1.106-1.461-1.682-3.528-.574-2.068-.753-3.84-.4-3.958.355-.118 1.108 1.46 1.682 3.528"/><path id="aibkK" d="M1352.833 481.864c.575 2.068.754 3.84.4 3.958-.354.12-1.107-1.46-1.681-3.528-.575-2.067-.754-3.839-.4-3.958.353-.118 1.107 1.46 1.681 3.528"/><path id="aibkL" d="M1228.54 481.49c-.527 2.081-1.24 3.682-1.589 3.575-.35-.107-.206-1.882.322-3.964.529-2.082 1.24-3.683 1.59-3.576.35.107.206 1.882-.322 3.964"/><path id="aibkM" d="M1212.561 543.579c-.528 2.082-1.24 3.683-1.59 3.576-.35-.108-.205-1.882.323-3.964s1.24-3.683 1.59-3.576c.35.107.205 1.882-.323 3.964"/><path id="aibkN" d="M1255.94 444.52l-20.42 7.676s-3.773 2.12-7.711 5.063c-3.94 2.942-6.231 4.82-14.275 7.451-5.605 1.834 1.865 6.132 5.705 5.7 3.96-.447 13.48-7.886 14.856-3.688 1.377 4.198-6.329 13.252-15.168 20.497-1.388 1.138-1.338 3.055-.924 4.062.672 1.633 7.568-1.656 7.568-1.656s-1.106 2.256 1.656 3.236c.977.347 6.54-1.163 6.54-1.163s3.342-.243 6.099-1.329c4.866-1.917 12.306-6.807 13.829-8.798 3.688-4.823 9.57-13.404 11.353-18.966 1.764-5.504-6.981-8.405-9.107-18.085"/><path id="aibkO" d="M1104.239 307.485l-5.331 3.86s-2.427 1.92-6.868 4.255c-4.44 2.335-7.474 2.202-14.268 6.77-7.71 5.187-5.572-2.089-2.362-5.118 2.506-2.363 6.449-2.82 7.705-5.543-1.58-.569-3.982-2.077-16.41-1.014-2.228.19-9.152 2.318-9.152 2.318-2.126.386-6.516 1.397-7.644-.704-.28-.52.24-1.35.24-1.35s-2.736.692-3.749-1.48c-.398-.852 5.244-3.652 5.244-3.652s-3.563 1.211-3.791-1.827c-.037-.5 16.054-8.648 16.054-8.648l-3.206 1.172-4.345 1.783s-2.39.149-3.095-1.376c-.28-.605 3.122-2.776 7.139-4.64 6.251-2.902 11.225-3.719 16.27-4.047 6.097-.396 8.045-1.02 15.857.155 3.223.484 8.23 1.886 10.411 2.71"/><path id="aibkP" d="M1260.838 243.16l-4.348 17.074 7.928-1.005z"/><path id="aibkQ" d="M1276.02 220.93l.66 3.527"/><path id="aibkR" d="M1280.987 231.635l-6.88 1.06a2.601 2.601 0 1 1-.791-5.144l6.88-1.06a2.602 2.602 0 1 1 .792 5.144"/><path id="aibkS" d="M1250.807 239.043l-6.88 1.062a2.6 2.6 0 0 1-2.966-2.175 2.603 2.603 0 0 1 2.175-2.967l6.88-1.062a2.602 2.602 0 0 1 .79 5.143"/><path id="aibkT" d="M1327.262 332.26c-8.023 11.258-12.102 30.076-12.102 30.076l10.273 4.389"/><path id="aibkU" d="M1324.83 367.95l34.388 14.674-2.786 9.273z"/><path id="aibkV" d="M1205.21 296.14l6.313 32.335-6.05 1.37z"/><path id="aibkW" d="M1250.183 294.06l.495 33.826-16.948 5.003z"/><path id="aibkX" d="M883.96 638.684h112.16V560.36H883.96z"/><path id="aibkY" d="M996.12 638.684h134.675V560.36H996.12z"/><path id="aibkZ" d="M924.93 542.884h112.16V464.56H924.93z"/><path id="aibkaa" d="M1037.09 542.884h134.675V464.56H1037.09z"/><path id="aibkab" d="M1019.08 440.683H859.21l79.933-73.403z"/><path id="aibkac" d="M906.72 424.415l31.53-28.955 31.534 28.955"/><path id="aibkad" d="M1148.864 440.683h-129.786L939.14 367.28h129.785z"/><path id="aibkae" d="M1053.45 638.68h22.449v-43.83h-22.449z"/><path id="aibkaf" d="M899.27 638.68h22.449v-43.83H899.27z"/><path id="aibkag" d="M1039.785 638.683h-28.635v-23.74c0-7.91 6.41-14.323 14.318-14.323 7.907 0 14.317 6.413 14.317 14.324z"/><path id="aibkah" d="M1118.195 638.683h-28.635v-23.74c0-7.91 6.41-14.323 14.317-14.323s14.318 6.413 14.318 14.324z"/><path id="aibkai" d="M1052.11 511.317h14.13V464.56h-14.13z"/><path id="aibkaj" d="M1007.84 410.224h14.13V377.06h-14.13z"/><path id="aibkak" d="M1075.9 511.317h14.13V464.56h-14.13z"/><path id="aibkal" d="M1099.69 511.317h14.13V464.56h-14.13z"/><path id="aibkam" d="M1123.48 511.317h14.13V464.56h-14.13z"/><path id="aibkan" d="M1147.26 511.317h14.13V464.56h-14.13z"/><path id="aibkao" d="M1052.11 533.91h14.13v-14.76h-14.13z"/><path id="aibkap" d="M1075.9 533.91h14.13v-14.76h-14.13z"/><path id="aibkaq" d="M1099.69 533.91h14.13v-14.76h-14.13z"/><path id="aibkar" d="M1123.48 533.91h14.13v-14.76h-14.13z"/><path id="aibkas" d="M1147.26 533.91h14.13v-14.76h-14.13z"/><path id="aibkat" d="M1028.32 430.91h14.13v-14.76h-14.13z"/><path id="aibkau" d="M1002.84 387.37h24.134v-14.76h-24.134z"/><path id="aibkav" d="M892.77 409.863V377.06h14.13v19.828"/><path id="aibkaw" d="M887.77 387.37h24.134v-14.76H887.77z"/><path id="aibkax" d="M1080.9 410.224h14.13V377.06h-14.13z"/><path id="aibkay" d="M1075.9 387.37h24.134v-14.76H1075.9z"/><path id="aibkaz" d="M1052.11 430.91h14.13v-14.76h-14.13z"/><path id="aibkaA" d="M1075.9 430.91h14.13v-14.76h-14.13z"/><path id="aibkaB" d="M1099.69 430.91h14.13v-14.76h-14.13z"/><path id="aibkaC" d="M1123.48 430.91h14.13v-14.76h-14.13z"/><path id="aibkaD" d="M938.26 511.317h14.13V464.56h-14.13z"/><path id="aibkaE" d="M962.05 511.317h14.13V464.56h-14.13z"/><path id="aibkaF" d="M985.84 511.317h14.13V464.56h-14.13z"/><path id="aibkaG" d="M1009.63 511.317h14.13V464.56h-14.13z"/><path id="aibkaH" d="M938.26 533.91h14.13v-14.76h-14.13z"/><path id="aibkaI" d="M962.05 533.91h14.13v-14.76h-14.13z"/><path id="aibkaJ" d="M985.84 533.91h14.13v-14.76h-14.13z"/><path id="aibkaK" d="M1009.63 533.91h14.13v-14.76h-14.13z"/><path id="aibkaL" d="M1010.03 583.17h14.13v-14.76h-14.13z"/><path id="aibkaM" d="M1033.82 583.17h14.13v-14.76h-14.13z"/><path id="aibkaN" d="M1057.61 583.17h14.13v-14.76h-14.13z"/><path id="aibkaO" d="M1081.4 583.17h14.13v-14.76h-14.13z"/><path id="aibkaP" d="M1105.19 583.17h14.13v-14.76h-14.13z"/><path id="aibkaQ" d="M899.27 583.17h14.13v-14.76h-14.13z"/><path id="aibkaR" d="M923.06 583.17h14.13v-14.76h-14.13z"/><path id="aibkaS" d="M946.85 583.17h14.13v-14.76h-14.13z"/><path id="aibkaT" d="M970.64 583.17h14.13v-14.76h-14.13z"/><clipPath id="aibkb"><use xlink:href="#aibka"/></clipPath></defs><g><g transform="translate(-859 -167)"><g><g/><g clip-path="url(#aibkb)"><use fill="#afb4c8" xlink:href="#aibkc"/></g></g><g><use fill="#fff" fill-opacity="0" stroke="#000" stroke-miterlimit="50" stroke-width="4.9" xlink:href="#aibkd"/></g><g><use fill="#fff" fill-opacity="0" stroke="#000" stroke-miterlimit="50" stroke-width="4.9" xlink:href="#aibke"/></g><g><g><use fill="#fff" xlink:href="#aibkf"/></g><g><use fill="#fff" fill-opacity="0" stroke="#000" stroke-miterlimit="50" stroke-width="4.9" xlink:href="#aibkf"/></g></g><g><use fill="#fff" fill-opacity="0" stroke="#000" stroke-miterlimit="50" stroke-width="4.9" xlink:href="#aibkg"/></g><g><use fill="#ffc100" xlink:href="#aibkh"/></g><g><use fill="#f38c01" xlink:href="#aibki"/></g><g><use fill="#f38c01" xlink:href="#aibkj"/></g><g><use fill="#ffc100" xlink:href="#aibkk"/></g><g><use fill="#121216" xlink:href="#aibkl"/></g><g><use fill="#d2d2dc" xlink:href="#aibkm"/></g><g><use fill="#d2d2dc" xlink:href="#aibkn"/></g><g><use fill="#121216" xlink:href="#aibko"/></g><g><use fill="#0b096f" xlink:href="#aibkp"/></g><g><use fill="#0b096f" xlink:href="#aibkq"/></g><g><use fill="#ef3c86" xlink:href="#aibkr"/></g><g><use fill="#ef3c86" xlink:href="#aibks"/></g><g><use fill="#121216" xlink:href="#aibkt"/></g><g><use fill="#2b2b3b" xlink:href="#aibku"/></g><g><use fill="#ff77ca" xlink:href="#aibkv"/></g><g><use fill="#008bff" xlink:href="#aibkw"/></g><g><use fill="#ff77ca" xlink:href="#aibkx"/></g><g><use fill="#0b096f" xlink:href="#aibky"/></g><g><use fill="#ff77ca" xlink:href="#aibkz"/></g><g><use fill="#ff77ca" xlink:href="#aibkA"/></g><g><use fill="#ff77ca" xlink:href="#aibkB"/></g><g><use fill="#0b096f" xlink:href="#aibkC"/></g><g><use fill="#fff" fill-opacity="0" stroke="#0b096f" stroke-miterlimit="50" stroke-width="6.3" xlink:href="#aibkD"/></g><g><use fill="#fff" fill-opacity="0" stroke="#0b096f" stroke-miterlimit="50" stroke-width="2.8" xlink:href="#aibkE"/></g><g><use fill="#ef3c86" xlink:href="#aibkF"/></g><g><use fill="#0b096f" xlink:href="#aibkG"/></g><g><use fill="#0b096f" xlink:href="#aibkH"/></g><g><use fill="#ff77ca" xlink:href="#aibkI"/></g><g><use fill="#121216" xlink:href="#aibkJ"/></g><g><use fill="#121216" xlink:href="#aibkK"/></g><g><use fill="#121216" xlink:href="#aibkL"/></g><g><use fill="#121216" xlink:href="#aibkM"/></g><g><use fill="#ff77ca" xlink:href="#aibkN"/></g><g><use fill="#ff77ca" xlink:href="#aibkO"/></g><g><use fill="#285fd7" xlink:href="#aibkP"/></g><g><use fill="#fff" fill-opacity="0" stroke="#525559" stroke-miterlimit="50" stroke-width=".7" xlink:href="#aibkQ"/></g><g><use fill="#7c7e80" xlink:href="#aibkR"/></g><g transform="rotate(-12 1247 237)"><use fill="#7c7e80" xlink:href="#aibkS"/></g><g><use fill="#fff" fill-opacity="0" stroke="#1447ea" stroke-miterlimit="50" stroke-width="3.5" xlink:href="#aibkT"/></g><g><use fill="#ef3c86" xlink:href="#aibkU"/></g><g><use fill="#ef3c86" xlink:href="#aibkV"/></g><g><use fill="#1447ea" xlink:href="#aibkW"/></g><g><use fill="#ffc100" xlink:href="#aibkX"/></g><g><use fill="#f38c01" xlink:href="#aibkY"/></g><g><use fill="#ffc100" xlink:href="#aibkZ"/></g><g><use fill="#f38c01" xlink:href="#aibkaa"/></g><g><use fill="#ffc100" xlink:href="#aibkab"/></g><g><use fill="#fff" xlink:href="#aibkac"/></g><g><use fill="#f38c01" xlink:href="#aibkad"/></g><g><use fill="#fff" xlink:href="#aibkae"/></g><g><use fill="#fff" xlink:href="#aibkaf"/></g><g><use fill="#fff" xlink:href="#aibkag"/></g><g><use fill="#fff" xlink:href="#aibkah"/></g><g><use fill="#fff" xlink:href="#aibkai"/></g><g><use fill="#ffe9cf" xlink:href="#aibkaj"/></g><g><use fill="#fff" xlink:href="#aibkak"/></g><g><use fill="#fff" xlink:href="#aibkal"/></g><g><use fill="#fff" xlink:href="#aibkam"/></g><g><use fill="#fff" xlink:href="#aibkan"/></g><g><use fill="#fff" xlink:href="#aibkao"/></g><g><use fill="#fff" xlink:href="#aibkap"/></g><g><use fill="#fff" xlink:href="#aibkaq"/></g><g><use fill="#fff" xlink:href="#aibkar"/></g><g><use fill="#fff" xlink:href="#aibkas"/></g><g><use fill="#fff" xlink:href="#aibkat"/></g><g><use fill="#ffe9cf" xlink:href="#aibkau"/></g><g><use fill="#ffe9cf" xlink:href="#aibkav"/></g><g><use fill="#ffe9cf" xlink:href="#aibkaw"/></g><g><use fill="#ffe9cf" xlink:href="#aibkax"/></g><g><use fill="#ffe9cf" xlink:href="#aibkay"/></g><g><use fill="#fff" xlink:href="#aibkaz"/></g><g><use fill="#fff" xlink:href="#aibkaA"/></g><g><use fill="#fff" xlink:href="#aibkaB"/></g><g><use fill="#fff" xlink:href="#aibkaC"/></g><g><use fill="#fff" xlink:href="#aibkaD"/></g><g><use fill="#fff" xlink:href="#aibkaE"/></g><g><use fill="#fff" xlink:href="#aibkaF"/></g><g><use fill="#fff" xlink:href="#aibkaG"/></g><g><use fill="#fff" xlink:href="#aibkaH"/></g><g><use fill="#fff" xlink:href="#aibkaI"/></g><g><use fill="#fff" xlink:href="#aibkaJ"/></g><g><use fill="#fff" xlink:href="#aibkaK"/></g><g><use fill="#fff" xlink:href="#aibkaL"/></g><g><use fill="#fff" xlink:href="#aibkaM"/></g><g><use fill="#fff" xlink:href="#aibkaN"/></g><g><use fill="#fff" xlink:href="#aibkaO"/></g><g><use fill="#fff" xlink:href="#aibkaP"/></g><g><use fill="#fff" xlink:href="#aibkaQ"/></g><g><use fill="#fff" xlink:href="#aibkaR"/></g><g><use fill="#fff" xlink:href="#aibkaS"/></g><g><use fill="#fff" xlink:href="#aibkaT"/></g></g></g></svg>