<svg xmlns="http://www.w3.org/2000/svg" xmlns:xlink="http://www.w3.org/1999/xlink" width="20" height="24" viewBox="0 0 20 24"><defs><path id="1a9oa" d="M1308.005 3040.57c-2.621 0-4.751-2.153-4.751-4.802 0-2.65 2.13-4.802 4.751-4.802 2.621 0 4.751 2.153 4.751 4.802 0 2.65-2.13 4.802-4.751 4.802zm7.067-11.608s0-.028 0 0a9.923 9.923 0 0 0-14.144 0c-3.904 3.95-3.904 10.39 0 14.34l6.28 6.355c.226.229.51.343.792.343.283 0 .566-.114.792-.343l6.28-6.383c3.904-3.95 3.904-10.362 0-14.312z"/></defs><g><g transform="translate(-1298 -3026)"><use fill="#91b7dc" xlink:href="#1a9oa"/></g></g></svg>