<svg xmlns="http://www.w3.org/2000/svg" xmlns:xlink="http://www.w3.org/1999/xlink" width="254" height="512" viewBox="0 0 254 512"><defs><path id="jmhoa" d="M1069.05 687.14h240.675v3.27H1069.05z"/><path id="jmhod" d="M1069.05 688.775c0 .903 53.877 1.635 120.337 1.635 66.46 0 120.338-.732 120.338-1.635s-53.877-1.635-120.338-1.635c-66.46 0-120.337.732-120.337 1.635"/><path id="jmhob" d="M1063.38 179.01h253.056v330.571H1063.38z"/><path id="jmhof" d="M1308.711 509.581h-237.607c-4.248 0-7.724-3.459-7.724-7.686V186.697c0-4.228 3.476-7.687 7.724-7.687h237.607c4.249 0 7.725 3.46 7.725 7.687v315.198c0 4.227-3.476 7.686-7.725 7.686"/><path id="jmhog" d="M1130.99 322.541h158.964v-6.121H1130.99z"/><path id="jmhoh" d="M1130.99 335.341h111.987v-6.121H1130.99z"/><path id="jmhoi" d="M1130.99 480.898h108.541v-8.418H1130.99z"/><path id="jmhoj" d="M1097.769 341.178c-8.459 0-15.379-6.887-15.379-15.304 0-8.417 6.92-15.304 15.379-15.304 8.458 0 15.379 6.887 15.379 15.304 0 8.417-6.92 15.304-15.379 15.304z"/><path id="jmhok" d="M1097.769 442.918c-8.459 0-15.379-6.887-15.379-15.304 0-8.417 6.92-15.304 15.379-15.304 8.458 0 15.379 6.887 15.379 15.304 0 8.417-6.92 15.304-15.379 15.304z"/><path id="jmhol" d="M1097.769 392.048c-8.459 0-15.379-6.886-15.379-15.304 0-8.417 6.92-15.304 15.379-15.304 8.458 0 15.379 6.887 15.379 15.304 0 8.418-6.92 15.304-15.379 15.304z"/><path id="jmhom" d="M1130.99 373.402h158.964v-6.122H1130.99z"/><path id="jmhon" d="M1130.99 386.202h111.987v-6.122H1130.99z"/><path id="jmhoo" d="M1130.99 424.272h158.964v-6.122H1130.99z"/><path id="jmhop" d="M1130.99 437.072h111.987v-6.122H1130.99z"/><path id="jmhoq" d="M1082.38 268.593l11.288 8.882 20.007-23.025"/><path id="jmhor" d="M1082.38 217.733l11.288 8.882 20.007-23.025"/><path id="jmhos" d="M1130.99 210.872h158.964v-7.742H1130.99z"/><path id="jmhot" d="M1130.99 227.063h111.987v-7.743H1130.99z"/><path id="jmhou" d="M1124.63 207.006h171.686"/><path id="jmhov" d="M1124.63 223.196h124.41"/><path id="jmhow" d="M1130.99 261.743h158.964V254H1130.99z"/><path id="jmhox" d="M1130.99 277.932h111.987v-7.742H1130.99z"/><path id="jmhoy" d="M1124.63 257.876h171.686"/><path id="jmhoz" d="M1124.63 274.056h124.41"/><path id="jmhoA" d="M1090.82 296.636h197.227"/><path id="jmhoB" d="M1097.767 464.91v23.56"/><path id="jmhoC" d="M1085.93 476.686h23.675"/><path id="jmhoD" d="M1113.322 352.485l1.011-3.233s.57-2.286.9-4.83c.33-2.546-.615-5.917 2.253-9.79 2.868-3.87-2.127-2.016-3.587-.202-1.215 1.513-1.714 5.253-3.009 6.32-.7-.67-1.092-1.403-1.092-1.403l-9.329-15.316a1.037 1.037 0 0 0-1.202-.633l-.56.14c-.59.147-.924.776-.715 1.357 1.116 3.144 4.685 11.244 4.516 11.283l-5.128 7.559s.44 5.042 2.963 8.498c1.064 1.464 2.868 3.102 3.855 4.02"/><path id="jmhoE" d="M1156.385 418.78s-31.517-17.801-38.047-24.832c-7.28-10.28-15.288-41.518-15.288-41.518l10.14-.94 15.429 32.645 34.237 22.311z"/><path id="jmhoF" d="M1209.612 501.979l-7.168-2.942 6.799-38.49-10.603-22.116 15.325-8.721s7.575 21.258 7.787 28.206c.37 12.16-12.14 44.063-12.14 44.063"/><path id="jmhoG" d="M1218.41 434.133l-20.422 6.916-6.068-23.945 16.02-4.854z"/><path id="jmhoH" d="M1142.671 390.45l-2.901 25.984 11.674 5.845s4.196 9.141 7.32 13.883c4.594 6.97 8.71 25.507 8.71 25.507h37.752l.243-14.545s9.333-34.678.334-38.598c-9.203-4.013-13.7-2.845-27.184-2.825-12.694.022-35.948-15.251-35.948-15.251"/><path id="jmhoI" d="M1203.42 650.294l-18.706 6.502-21.043-138.944a121.226 121.226 0 0 1 2.431-51.035l1.374-5.157h27.261l5.776 101.52z"/><path id="jmhoJ" d="M1232.684 655.912l-19.563-1.506-12.61-91.226-16.311-101.52h21.026l7.141 10.607a47.417 47.417 0 0 1 7.888 22.226z"/><path id="jmhoK" d="M1204.631 672.488l-13.602 16.327h-18.939l12.421-8.52 5.219-14.982-.205-7.468 12.237-6.235z"/><path id="jmhoL" d="M1201.697 652.81l1.304 7.832-13.275 4.668-.626-8.182z"/><path id="jmhoM" d="M1233.502 672.488l-13.602 16.327h-18.94l12.421-8.52 5.219-14.982-.205-7.468 12.237-6.235z"/><path id="jmhoN" d="M1230.33 650.96l1.36 7.79-13.078 4.52-.692-8.133z"/><path id="jmhoO" d="M1207.491 657.052l-24.845 4.561-1.306-7.052 24.845-4.561z"/><path id="jmhoP" d="M1236.05 655.606l-24.844 4.156-1.306-6.426 24.845-4.156z"/><path id="jmhoQ" d="M1209.516 382.398c-3.905 12.585-17.322 19.637-29.965 15.751-11.762-3.614-18.716-15.418-16.487-27.175.164-.884.385-1.767.658-2.647 2.058-6.63 6.755-11.724 12.588-14.492a23.986 23.986 0 0 1 17.38-1.257c12.645 3.886 19.732 17.238 15.826 29.82"/><path id="jmhoR" d="M1220.357 359.74c-2.165 6.975-9.601 10.884-16.61 8.73-7.009-2.154-10.936-9.554-8.772-16.529 2.164-6.975 9.6-10.883 16.61-8.73 7.008 2.154 10.936 9.555 8.771 16.53"/><path id="jmhoS" d="M1164.041 378.34l-6.871 7.49 4.125 1.6z"/><path id="jmhoT" d="M1172.118 402.235s-10.367-4.455-11.583-8.424c-3.424-11.175 12.788-33.091 12.788-33.091l19.56 23.803s-3.116 23.37-3.192 23.37l-17.364-.205z"/><path id="jmhoU" d="M1163.51 378.397c-.506 1.018-.333 2.126.386 2.475.72.35 1.712-.194 2.218-1.211.506-1.018.333-2.126-.386-2.475-.72-.35-1.712.193-2.218 1.21"/><path id="jmhoV" d="M1193.86 387.25c-6.172 4.423-14.504 3.825-20.376-.942a16.162 16.162 0 0 1-1.349-1.208 17.471 17.471 0 0 1-1.947-2.268c-5.628-7.777-4.153-18.405 3.296-23.743.716-.514 1.46-.96 2.228-1.335 7.216-3.569 16.364-1.282 21.452 5.748 5.573 7.703 4.173 18.203-3.091 23.59-.07.055-.14.107-.213.158"/><path id="jmhoW" d="M1199.03 431.421l-28.008.51-1.092-55.82 40.67-.741.83 42.373c.145 7.427-5.406 13.55-12.4 13.678"/><path id="jmhoX" d="M1193.69 492.12l2.933 8.41 3.92 62.873z"/><path id="jmhoY" d="M1169.833 385.385s-.515-5.13 3.11-5.125c2.701.004 3.432 2.562 3.43 4.04-.008 4.991-5.464 5.743-7.373 9.355"/><path id="jmhoZ" d="M1160.08 390.61s1.187.325 2.57-1.39"/><clipPath id="jmhoc"><use xlink:href="#jmhoa"/></clipPath><clipPath id="jmhoe"><use xlink:href="#jmhob"/></clipPath></defs><g><g transform="translate(-1063 -179)"><g><g><g/><g clip-path="url(#jmhoc)"><use fill="#afb4c8" xlink:href="#jmhod"/></g></g><g><g/><g clip-path="url(#jmhoe)"><use fill="#007eff" xlink:href="#jmhof"/></g></g><g><use fill="#fff" xlink:href="#jmhog"/></g><g><use fill="#fff" xlink:href="#jmhoh"/></g><g><use fill="#fff" xlink:href="#jmhoi"/></g><g><use fill="#fff" fill-opacity="0" stroke="#fff" stroke-miterlimit="50" stroke-width="4.2" xlink:href="#jmhoj"/></g><g><use fill="#fff" fill-opacity="0" stroke="#fff" stroke-miterlimit="50" stroke-width="4.2" xlink:href="#jmhok"/></g><g><use fill="#fff" fill-opacity="0" stroke="#fff" stroke-miterlimit="50" stroke-width="4.2" xlink:href="#jmhol"/></g><g><use fill="#fff" xlink:href="#jmhom"/></g><g><use fill="#fff" xlink:href="#jmhon"/></g><g><use fill="#fff" xlink:href="#jmhoo"/></g><g><use fill="#fff" xlink:href="#jmhop"/></g><g><use fill="#fff" fill-opacity="0" stroke="#fff" stroke-miterlimit="50" stroke-width="6.3" xlink:href="#jmhoq"/></g><g><use fill="#fff" fill-opacity="0" stroke="#fff" stroke-miterlimit="50" stroke-width="6.3" xlink:href="#jmhor"/></g><g><use fill="#fff" xlink:href="#jmhos"/></g><g><use fill="#fff" xlink:href="#jmhot"/></g><g><use fill="#fff" fill-opacity="0" stroke="#a6a7af" stroke-miterlimit="50" stroke-width="2.1" xlink:href="#jmhou"/></g><g><use fill="#fff" fill-opacity="0" stroke="#a6a7af" stroke-miterlimit="50" stroke-width="2.1" xlink:href="#jmhov"/></g><g><use fill="#fff" xlink:href="#jmhow"/></g><g><use fill="#fff" xlink:href="#jmhox"/></g><g><use fill="#fff" fill-opacity="0" stroke="#a6a7af" stroke-miterlimit="50" stroke-width="2.1" xlink:href="#jmhoy"/></g><g><use fill="#fff" fill-opacity="0" stroke="#a6a7af" stroke-miterlimit="50" stroke-width="2.1" xlink:href="#jmhoz"/></g><g><use fill="#fff" fill-opacity="0" stroke="#c2c7d0" stroke-miterlimit="50" stroke-width="2.1" xlink:href="#jmhoA"/></g><g><use fill="#fff" fill-opacity="0" stroke="#fff" stroke-miterlimit="50" stroke-width="6.3" xlink:href="#jmhoB"/></g><g><use fill="#fff" fill-opacity="0" stroke="#fff" stroke-miterlimit="50" stroke-width="6.3" xlink:href="#jmhoC"/></g><g><use fill="#ff77ca" xlink:href="#jmhoD"/></g><g><use fill="#ff77ca" xlink:href="#jmhoE"/></g><g><use fill="#ff77ca" xlink:href="#jmhoF"/></g><g><use fill="#ff9200" xlink:href="#jmhoG"/></g><g><use fill="#ffc100" xlink:href="#jmhoH"/></g><g><use fill="#272636" xlink:href="#jmhoI"/></g><g><use fill="#272636" xlink:href="#jmhoJ"/></g><g><use fill="#0b096f" xlink:href="#jmhoK"/></g><g><use fill="#ef3c86" xlink:href="#jmhoL"/></g><g><use fill="#0b096f" xlink:href="#jmhoM"/></g><g><use fill="#ef3c86" xlink:href="#jmhoN"/></g><g><use fill="#272636" xlink:href="#jmhoO"/></g><g><use fill="#272636" xlink:href="#jmhoP"/></g><g><use fill="#25003f" xlink:href="#jmhoQ"/></g><g><use fill="#25003f" xlink:href="#jmhoR"/></g><g><use fill="#285fd7" xlink:href="#jmhoS"/></g><g><use fill="#ff77ca" xlink:href="#jmhoT"/></g><g><use fill="#0b096f" xlink:href="#jmhoU"/></g><g><use fill="#25003f" xlink:href="#jmhoV"/></g><g><use fill="#25003f" xlink:href="#jmhoW"/></g><g><use fill="#0d0d11" xlink:href="#jmhoX"/></g><g><use fill="#ff77ca" xlink:href="#jmhoY"/></g><g><use fill="#fff" fill-opacity="0" stroke="#0c245f" stroke-miterlimit="50" stroke-width="2.1" xlink:href="#jmhoZ"/></g></g></g></g></svg>